<svg width="50" height="50" viewBox="0 0 50 50" fill="none" xmlns="http://www.w3.org/2000/svg">
<path d="M24.9784 49.877L10.5487 45.8712L7.33313 9.80469H42.6669L39.4479 45.8656L24.9784 49.877Z" fill="#264DE4"/>
<path d="M36.6921 43.5657L39.4429 12.75H25V46.8072L36.6921 43.5657Z" fill="#2965F1"/>
<path d="M14.7048 26.125L15.1012 30.5484H25V26.125H14.7048Z" fill="#EBEBEB"/>
<path d="M13.9082 17.1719L14.3103 21.5953H25V17.1719H13.9082Z" fill="#EBEBEB"/>
<path d="M25 37.6186L24.9806 37.6237L20.0542 36.2935L19.7393 32.7656H15.2989L15.9186 39.711L24.9796 42.2264L25 42.2208V37.6186Z" fill="#EBEBEB"/>
<path d="M15.6487 0H21.0062V2.24042H17.8891V4.48084H21.0062V6.72126H15.6487V0Z" fill="white"/>
<path d="M22.0777 0H27.4352V1.94819H24.3181V2.33783H27.4352V6.81867H22.0777V4.77307H25.1948V4.38343H22.0777V0Z" fill="white"/>
<path d="M28.5068 0H33.8643V1.94819H30.7472V2.33783H33.8643V6.81867H28.5068V4.77307H31.6239V4.38343H28.5068V0Z" fill="white"/>
<path d="M35.2669 26.125L36.0655 17.1719H24.9847V21.5953H31.2178L30.8153 26.125H24.9847V30.5483H30.4317L29.9182 36.2852L24.9847 37.6168V42.2188L34.053 39.7055L34.1195 38.9582L35.159 27.3128L35.2669 26.125Z" fill="white"/>
</svg>
