<svg width="50" height="50" viewBox="0 0 50 50" fill="none" xmlns="http://www.w3.org/2000/svg">
<g clip-path="url(#clip0_8_91)">
<path d="M25 0C18.3696 0 12.0107 2.63392 7.32233 7.32233C2.63392 12.0107 0 18.3696 0 25C0 31.6304 2.63392 37.9893 7.32233 42.6777C12.0107 47.3661 18.3696 50 25 50C31.6304 50 37.9893 47.3661 42.6777 42.6777C47.3661 37.9893 50 31.6304 50 25C50 18.3696 47.3661 12.0107 42.6777 7.32233C37.9893 2.63392 31.6304 0 25 0V0ZM31.5896 45.3812H31.3958C31.2503 45.3895 31.1046 45.3678 30.9678 45.3177C30.8309 45.2675 30.7057 45.1899 30.6 45.0896C30.5023 44.9863 30.4261 44.8646 30.3761 44.7315C30.326 44.5984 30.3029 44.4567 30.3083 44.3146V41.3854C30.3208 40.4125 30.3292 39.4271 30.3292 38.4354C30.3258 37.7103 30.2198 36.9892 30.0146 36.2937C29.8201 35.5907 29.4283 34.9581 28.8854 34.4708C30.3375 34.3306 31.7649 34.0008 33.1312 33.4896C34.2838 33.0513 35.3263 32.3658 36.1854 31.4812C37.0333 30.5917 37.6646 29.5167 38.0292 28.3437C38.4727 26.9073 38.6837 25.4093 38.6542 23.9062C38.6623 22.8568 38.4787 21.8147 38.1125 20.8312C37.7404 19.84 37.1777 18.9312 36.4562 18.1562C36.612 17.7654 36.7251 17.3589 36.7937 16.9438C36.8625 16.5271 36.8979 16.1062 36.8979 15.6854C36.8979 15.1437 36.8354 14.6021 36.7104 14.075C36.5969 13.5344 36.443 13.003 36.25 12.4854C36.1763 12.4567 36.0978 12.4425 36.0187 12.4437H35.7896C35.3104 12.4479 34.8396 12.5271 34.3854 12.675C33.8851 12.821 33.3957 13.002 32.9208 13.2167C32.4485 13.4284 31.9888 13.6669 31.5437 13.9312C31.0958 14.1958 30.7 14.45 30.35 14.6854C26.8453 13.7086 23.1402 13.7086 19.6354 14.6854C19.2446 14.4241 18.8472 14.1726 18.4437 13.9312C17.9924 13.6647 17.5248 13.4268 17.0437 13.2187C16.5701 12.997 16.0788 12.8151 15.575 12.675C15.1298 12.5279 14.6647 12.4499 14.1958 12.4437H13.9667C13.8883 12.4426 13.8105 12.4568 13.7375 12.4854C13.5418 13.0038 13.3817 13.5349 13.2583 14.075C13.1458 14.6042 13.0917 15.1437 13.0896 15.6854C13.0896 16.1062 13.125 16.5271 13.1958 16.9438C13.2646 17.3583 13.375 17.7646 13.5292 18.1562C12.8096 18.9323 12.249 19.8417 11.8792 20.8333C11.511 21.8165 11.3253 22.8585 11.3313 23.9083C11.3021 25.4033 11.5074 26.8936 11.9396 28.325C12.3167 29.4979 12.9458 30.575 13.7812 31.4833C14.6458 32.3625 15.6875 33.0458 16.8354 33.4917C18.1958 34.0125 19.6208 34.3458 21.0708 34.4833C20.666 34.8503 20.3448 35.3 20.1292 35.8021C19.924 36.2986 19.784 36.8196 19.7125 37.3521C18.9481 37.7181 18.1121 37.9102 17.2646 37.9146C16.4775 37.9461 15.7007 37.7273 15.0458 37.2896C14.4176 36.824 13.8855 36.241 13.4792 35.5729C13.2973 35.2923 13.0939 35.0262 12.8708 34.7771C12.6355 34.5151 12.376 34.2758 12.0958 34.0625C11.8197 33.8561 11.5169 33.688 11.1958 33.5625C10.8799 33.424 10.5387 33.3523 10.1937 33.3521C10.1104 33.3542 10.0271 33.3625 9.94375 33.3729C9.82994 33.3725 9.71655 33.3865 9.60625 33.4146C9.50931 33.44 9.41762 33.4823 9.33542 33.5396C9.29804 33.5602 9.26679 33.5903 9.24483 33.6269C9.22288 33.6635 9.211 33.7052 9.21042 33.7479C9.21917 33.8482 9.24982 33.9453 9.30022 34.0324C9.35062 34.1195 9.41953 34.1945 9.50208 34.2521C9.69583 34.4062 9.85625 34.525 9.98542 34.6083L10.0479 34.6521C10.325 34.8667 10.5917 35.0979 10.8437 35.3458C11.0771 35.55 11.2875 35.7812 11.4688 36.0333C11.6562 36.2812 11.8187 36.5458 11.95 36.8271C12.1021 37.1062 12.2625 37.4271 12.4312 37.7917C12.8229 38.7792 13.5187 39.6146 14.4187 40.1771C15.3625 40.6833 16.4208 40.9354 17.4937 40.9083C17.8563 40.9083 18.2208 40.8875 18.5812 40.8458C18.9396 40.7875 19.2958 40.7271 19.6542 40.6562V44.2875C19.6607 44.4339 19.6362 44.58 19.5823 44.7163C19.5285 44.8526 19.4465 44.9761 19.3417 45.0785C19.2369 45.1809 19.1116 45.2601 18.9741 45.3108C18.8366 45.3616 18.69 45.3827 18.5437 45.3729H18.4146C13.5563 43.8035 9.41805 40.551 6.74493 36.2013C4.07181 31.8515 3.03951 26.6903 3.83392 21.647C4.62832 16.6038 7.19724 12.0098 11.0781 8.69242C14.9589 5.37504 19.8966 3.55223 25.0021 3.55223C30.1076 3.55223 35.0453 5.37504 38.9261 8.69242C42.8069 12.0098 45.3758 16.6038 46.1702 21.647C46.9647 26.6903 45.9324 31.8515 43.2592 36.2013C40.5861 40.551 36.4478 43.8035 31.5896 45.3729V45.3833V45.3812Z" fill="url(#paint0_linear_8_91)"/>
</g>
<defs>
<linearGradient id="paint0_linear_8_91" x1="25" y1="0" x2="25" y2="50" gradientUnits="userSpaceOnUse">
<stop stop-color="#780206"/>
<stop offset="1" stop-color="#061161" stop-opacity="0.78"/>
</linearGradient>
<clipPath id="clip0_8_91">
<rect width="50" height="50" fill="white"/>
</clipPath>
</defs>
</svg>
