<svg width="38" height="52" viewBox="0 0 38 52" fill="none" xmlns="http://www.w3.org/2000/svg">
<g clip-path="url(#clip0_17_154)">
<path d="M38 10.0938H0L3.56241 47.2996L18.9981 51.516L34.4337 47.2996L38 10.0938Z" fill="#E6A329"/>
<path d="M18.998 13.125V48.3631L31.5044 44.9508L34.5469 13.125H18.998Z" fill="#F1BF22"/>
<path d="M28.9477 17.6875H9.71837L8.37903 31.6163L8.4066 31.5297H24.7429L24.2108 37.4231L18.9985 38.8673L13.7093 37.3998L13.3925 33.8328H8.59137L9.27627 40.9603L18.9985 43.6184L28.7252 40.9603L30.0645 26.97H12.727L12.9495 22.3087H24.9785L25.1584 24.9794H30.0002L28.9477 17.6875Z" fill="white"/>
<path d="M19.0024 17.6875H9.71837L8.37903 31.6163L8.4066 31.5297H19.0019V26.9858H13.4032L13.6256 22.3245H19.0024V17.6875ZM13.4032 33.8352H8.59088L9.2758 40.9589L18.998 43.6142V38.8738L13.7088 37.4026L13.4032 33.8352Z" fill="#EBEBEB"/>
<path d="M15.3031 4.60769H11.9202V6.94671H17.7245V0H15.306L15.3031 4.60769ZM26.0784 0.0372678H20.1812V2.46899C20.9687 3.22739 21.3793 3.59215 22.5392 4.69062H20.1812V6.90805H26.0779V4.69434L23.7223 2.47272H26.0803L26.0784 0.0372678Z" fill="white"/>
</g>
<defs>
<clipPath id="clip0_17_154">
<rect width="38" height="51.5176" fill="white"/>
</clipPath>
</defs>
</svg>
