<svg width="50" height="50" viewBox="0 0 50 50" fill="none" xmlns="http://www.w3.org/2000/svg">
<path d="M42.6776 7.32246C37.9558 2.60039 31.6776 0 25 0C18.3224 0 12.0442 2.60039 7.32236 7.32246C2.60039 12.0442 0 18.3224 0 25C0 31.6776 2.60039 37.9558 7.32236 42.6776C12.0442 47.3996 18.3224 50 25 50C31.6776 50 37.9558 47.3996 42.6776 42.6775C47.3996 37.9558 50 31.6776 50 25C50 18.3224 47.3996 12.0442 42.6776 7.32246ZM25 48.4211C12.0855 48.4211 1.57891 37.9145 1.57891 25C1.57891 12.0855 12.0855 1.57891 25 1.57891C37.9145 1.57891 48.4211 12.0855 48.4211 25C48.4211 37.9145 37.9145 48.4211 25 48.4211Z" fill="url(#paint0_linear_8_95)"/>
<path d="M17.6316 20H12.3684C11.9323 20 11.5789 20.3534 11.5789 20.7895V36.5789C11.5789 37.015 11.9324 37.3684 12.3684 37.3684H17.6316C18.0676 37.3684 18.421 37.0149 18.421 36.5789V20.7895C18.4211 20.3534 18.0676 20 17.6316 20ZM16.8421 35.7895H13.1579V21.5789H16.8421V35.7895Z" fill="url(#paint1_linear_8_95)"/>
<path d="M14.4736 10.5234C12.2969 10.5234 10.5262 12.2941 10.5262 14.4708C10.5262 16.6475 12.2969 18.4182 14.4736 18.4182C16.6503 18.4182 18.421 16.6475 18.421 14.4708C18.421 12.2941 16.6503 10.5234 14.4736 10.5234ZM14.4736 16.8393C13.1677 16.8393 12.1052 15.7768 12.1052 14.4708C12.1052 13.1649 13.1676 12.1023 14.4736 12.1023C15.7796 12.1023 16.8421 13.1648 16.8421 14.4708C16.8421 15.7768 15.7797 16.8393 14.4736 16.8393Z" fill="url(#paint2_linear_8_95)"/>
<path d="M32.3685 20C30.8007 20 29.2562 20.4059 27.8947 21.1617V20.7895C27.8947 20.3535 27.5412 20.0001 27.1053 20.0001H22.8947C22.4587 20.0001 22.1053 20.3536 22.1053 20.7895V36.579C22.1053 37.015 22.4588 37.3685 22.8947 37.3685H28.1579C28.594 37.3685 28.9474 37.0149 28.9474 36.579V30.911C28.9474 29.0548 29.3582 26.8422 31.3158 26.8422C32.7767 26.8422 33.3759 28.0745 33.5861 29.4714C33.6437 29.8544 33.9756 30.1362 34.3631 30.1362C34.8493 30.1362 35.2149 29.7003 35.1399 29.22C34.7435 26.6835 33.3988 25.2633 31.3158 25.2633C28.8072 25.2633 27.3685 27.3219 27.3685 30.911V35.7895H23.6843V21.5789H26.3158V22.617C26.3158 22.8618 26.4178 23.101 26.6092 23.2536C26.9064 23.4905 27.3156 23.4823 27.5992 23.2548C28.9665 22.1585 30.6156 21.5789 32.3685 21.5789C36.9131 21.5789 38.9474 25.4118 38.9474 29.2104V35.7893H35.2632V33.1897C35.2632 32.755 34.9108 32.4025 34.4761 32.4025H34.4715C34.0367 32.4025 33.6844 32.755 33.6844 33.1897V36.5788C33.6844 37.0148 34.0379 37.3683 34.4738 37.3683H39.737C40.1731 37.3683 40.5265 37.0147 40.5265 36.5788V29.2103C40.5263 23.7875 37.1717 20 32.3685 20Z" fill="url(#paint3_linear_8_95)"/>
<defs>
<linearGradient id="paint0_linear_8_95" x1="25" y1="0" x2="25" y2="50" gradientUnits="userSpaceOnUse">
<stop stop-color="#780206"/>
<stop offset="1" stop-color="#061161" stop-opacity="0.78"/>
</linearGradient>
<linearGradient id="paint1_linear_8_95" x1="15" y1="20" x2="15" y2="37.3684" gradientUnits="userSpaceOnUse">
<stop stop-color="#780206"/>
<stop offset="1" stop-color="#061161" stop-opacity="0.78"/>
</linearGradient>
<linearGradient id="paint2_linear_8_95" x1="14.4736" y1="10.5234" x2="14.4736" y2="18.4182" gradientUnits="userSpaceOnUse">
<stop stop-color="#780206"/>
<stop offset="1" stop-color="#061161" stop-opacity="0.78"/>
</linearGradient>
<linearGradient id="paint3_linear_8_95" x1="31.3159" y1="20" x2="31.3159" y2="37.3685" gradientUnits="userSpaceOnUse">
<stop stop-color="#780206"/>
<stop offset="1" stop-color="#061161" stop-opacity="0.78"/>
</linearGradient>
</defs>
</svg>
