<svg width="50" height="50" viewBox="0 0 50 50" fill="none" xmlns="http://www.w3.org/2000/svg">
<path d="M38.7755 7.14062H11.2245C5.03531 7.14062 0 12.1759 0 18.3651V31.6304C0 37.8196 5.03531 42.8549 11.2245 42.8549H38.7755C44.9647 42.8549 50 37.8196 50 31.6304V18.3651C50 12.1759 44.9647 7.14062 38.7755 7.14062ZM47.9592 31.6304C47.9592 36.6943 43.8394 40.8141 38.7755 40.8141H11.2245C6.16061 40.8141 2.04082 36.6943 2.04082 31.6304V18.3651C2.04082 13.3012 6.16061 9.18144 11.2245 9.18144H38.7755C43.8394 9.18144 47.9592 13.3012 47.9592 18.3651V31.6304Z" fill="url(#paint0_linear_8_112)"/>
<path d="M33.0455 24.0556L20.8006 18.9535C20.4858 18.8223 20.126 18.8571 19.8421 19.0465C19.5583 19.2357 19.3878 19.5543 19.3878 19.8955V30.0995C19.3878 30.4408 19.5583 30.7593 19.8421 30.9485C20.0122 31.062 20.2096 31.1199 20.4083 31.1199C20.541 31.1199 20.6744 31.094 20.8006 31.0415L33.0455 25.9394C33.4258 25.781 33.6735 25.4094 33.6735 24.9975C33.6735 24.5856 33.4257 24.214 33.0455 24.0556ZM21.4286 28.5689V21.4261L30 24.9975L21.4286 28.5689Z" fill="url(#paint1_linear_8_112)"/>
<defs>
<linearGradient id="paint0_linear_8_112" x1="25" y1="7.14062" x2="25" y2="42.8549" gradientUnits="userSpaceOnUse">
<stop stop-color="#780206"/>
<stop offset="1" stop-color="#061161" stop-opacity="0.78"/>
</linearGradient>
<linearGradient id="paint1_linear_8_112" x1="26.5306" y1="18.875" x2="26.5306" y2="31.1199" gradientUnits="userSpaceOnUse">
<stop stop-color="#780206"/>
<stop offset="1" stop-color="#061161" stop-opacity="0.78"/>
</linearGradient>
</defs>
</svg>
