<svg width="60" height="50" viewBox="0 0 60 50" fill="none" xmlns="http://www.w3.org/2000/svg">
<mask id="path-1-inside-1_63_460" fill="white">
<path d="M22.8348 0L21.1607 0.211864C21.1607 0.211864 13.6523 1.07698 8.16964 5.72034H8.10268L8.03571 5.79096C6.80524 6.9827 6.26953 8.44809 5.42411 10.5932C4.57868 12.7383 3.67467 15.4749 2.87946 18.5028C1.28906 24.5674 0 31.9121 0 38.6299V39.1949L0.267857 39.7599C2.25167 43.4322 5.77567 45.7715 9.04018 47.387C12.3047 49.0025 15.1256 49.8588 17.0759 49.9294L18.3482 50L19.0179 48.7994L21.3616 44.4209C23.8477 45.0124 26.7104 45.4096 30 45.4096C33.2896 45.4096 36.1523 45.0124 38.6384 44.4209L40.9821 48.7994L41.6518 50L42.9241 49.9294C44.8744 49.8588 47.6953 49.0025 50.9598 47.387C54.2243 45.7715 57.7483 43.4322 59.7321 39.7599L60 39.1949V38.6299C60 31.9121 58.7109 24.5674 57.1205 18.5028C56.3253 15.4749 55.4213 12.7383 54.5759 10.5932C53.7305 8.44809 53.1948 6.9827 51.9643 5.79096L51.8973 5.72034H51.8304C46.3477 1.07698 38.8393 0.211864 38.8393 0.211864L37.1652 0L36.5625 1.62429C36.5625 1.62429 35.9431 3.27507 35.558 5.15537C33.1306 4.81109 31.1468 4.73164 30 4.73164C28.8532 4.73164 26.8694 4.81109 24.442 5.15537C24.0569 3.27507 23.4375 1.62429 23.4375 1.62429L22.8348 0ZM19.8884 5.15537C19.9805 5.47316 20.0725 5.74682 20.1562 6.00282C17.3856 6.7267 14.4308 7.83016 11.7187 9.60452L13.9955 13.4181C19.5536 9.78107 27.5391 9.25141 30 9.25141C32.4609 9.25141 40.4464 9.78107 46.0045 13.4181L48.2812 9.60452C45.5692 7.83016 42.6144 6.7267 39.8437 6.00282C39.9275 5.74682 40.0195 5.47316 40.1116 5.15537C42.1122 5.5791 45.9291 6.55014 49.0848 9.18079C49.0681 9.18962 49.8884 10.4961 50.625 12.3588C51.3783 14.2744 52.2154 16.8256 52.9687 19.7034C54.4169 25.2207 55.5552 31.9386 55.6473 37.8531C54.2997 40.0247 51.7969 41.9845 49.1518 43.291C46.8415 44.4297 45.0167 44.8446 43.9286 45.0565L42.8571 43.1497C43.4933 42.9025 44.1211 42.6289 44.6652 42.3729C47.9632 40.8457 49.7545 39.1949 49.7545 39.1949L46.942 35.8051C46.942 35.8051 45.7366 36.9703 42.9241 38.2768C40.1116 39.5833 35.8175 40.8898 30 40.8898C24.1825 40.8898 19.8884 39.5833 17.0759 38.2768C14.2634 36.9703 13.058 35.8051 13.058 35.8051L10.2455 39.1949C10.2455 39.1949 12.0368 40.8457 15.3348 42.3729C15.8789 42.6289 16.5067 42.9025 17.1429 43.1497L16.0714 45.0565C14.9833 44.8446 13.1585 44.4297 10.8482 43.291C8.20312 41.9845 5.70033 40.0247 4.35268 37.8531C4.44475 31.9386 5.58315 25.2207 7.03125 19.7034C7.7846 16.8256 8.62165 14.2744 9.375 12.3588C10.1116 10.4961 10.9319 9.18962 10.9152 9.18079C14.0709 6.55014 17.8878 5.5791 19.8884 5.15537ZM22.5 20.5508C20.8426 20.5508 19.3778 21.5484 18.4821 22.8107C17.5865 24.0731 17.1429 25.6268 17.1429 27.3305C17.1429 29.0343 17.5865 30.5879 18.4821 31.8503C19.3778 33.1126 20.8426 34.1102 22.5 34.1102C24.1574 34.1102 25.6222 33.1126 26.5179 31.8503C27.4135 30.5879 27.8571 29.0343 27.8571 27.3305C27.8571 25.6268 27.4135 24.0731 26.5179 22.8107C25.6222 21.5484 24.1574 20.5508 22.5 20.5508ZM37.5 20.5508C35.8426 20.5508 34.3778 21.5484 33.4821 22.8107C32.5865 24.0731 32.1429 25.6268 32.1429 27.3305C32.1429 29.0343 32.5865 30.5879 33.4821 31.8503C34.3778 33.1126 35.8426 34.1102 37.5 34.1102C39.1574 34.1102 40.6222 33.1126 41.5179 31.8503C42.4135 30.5879 42.8571 29.0343 42.8571 27.3305C42.8571 25.6268 42.4135 24.0731 41.5179 22.8107C40.6222 21.5484 39.1574 20.5508 37.5 20.5508ZM22.5 25.0706C22.6172 25.0706 22.7679 25.1148 23.0357 25.4943C23.3036 25.8739 23.5714 26.536 23.5714 27.3305C23.5714 28.125 23.3036 28.7871 23.0357 29.1667C22.7679 29.5463 22.6172 29.5904 22.5 29.5904C22.3828 29.5904 22.2321 29.5463 21.9643 29.1667C21.6964 28.7871 21.4286 28.125 21.4286 27.3305C21.4286 26.536 21.6964 25.8739 21.9643 25.4943C22.2321 25.1148 22.3828 25.0706 22.5 25.0706ZM37.5 25.0706C37.6172 25.0706 37.7679 25.1148 38.0357 25.4943C38.3036 25.8739 38.5714 26.536 38.5714 27.3305C38.5714 28.125 38.3036 28.7871 38.0357 29.1667C37.7679 29.5463 37.6172 29.5904 37.5 29.5904C37.3828 29.5904 37.2321 29.5463 36.9643 29.1667C36.6964 28.7871 36.4286 28.125 36.4286 27.3305C36.4286 26.536 36.6964 25.8739 36.9643 25.4943C37.2321 25.1148 37.3828 25.0706 37.5 25.0706Z"/>
</mask>
<path d="M22.8348 0L21.1607 0.211864C21.1607 0.211864 13.6523 1.07698 8.16964 5.72034H8.10268L8.03571 5.79096C6.80524 6.9827 6.26953 8.44809 5.42411 10.5932C4.57868 12.7383 3.67467 15.4749 2.87946 18.5028C1.28906 24.5674 0 31.9121 0 38.6299V39.1949L0.267857 39.7599C2.25167 43.4322 5.77567 45.7715 9.04018 47.387C12.3047 49.0025 15.1256 49.8588 17.0759 49.9294L18.3482 50L19.0179 48.7994L21.3616 44.4209C23.8477 45.0124 26.7104 45.4096 30 45.4096C33.2896 45.4096 36.1523 45.0124 38.6384 44.4209L40.9821 48.7994L41.6518 50L42.9241 49.9294C44.8744 49.8588 47.6953 49.0025 50.9598 47.387C54.2243 45.7715 57.7483 43.4322 59.7321 39.7599L60 39.1949V38.6299C60 31.9121 58.7109 24.5674 57.1205 18.5028C56.3253 15.4749 55.4213 12.7383 54.5759 10.5932C53.7305 8.44809 53.1948 6.9827 51.9643 5.79096L51.8973 5.72034H51.8304C46.3477 1.07698 38.8393 0.211864 38.8393 0.211864L37.1652 0L36.5625 1.62429C36.5625 1.62429 35.9431 3.27507 35.558 5.15537C33.1306 4.81109 31.1468 4.73164 30 4.73164C28.8532 4.73164 26.8694 4.81109 24.442 5.15537C24.0569 3.27507 23.4375 1.62429 23.4375 1.62429L22.8348 0ZM19.8884 5.15537C19.9805 5.47316 20.0725 5.74682 20.1562 6.00282C17.3856 6.7267 14.4308 7.83016 11.7187 9.60452L13.9955 13.4181C19.5536 9.78107 27.5391 9.25141 30 9.25141C32.4609 9.25141 40.4464 9.78107 46.0045 13.4181L48.2812 9.60452C45.5692 7.83016 42.6144 6.7267 39.8437 6.00282C39.9275 5.74682 40.0195 5.47316 40.1116 5.15537C42.1122 5.5791 45.9291 6.55014 49.0848 9.18079C49.0681 9.18962 49.8884 10.4961 50.625 12.3588C51.3783 14.2744 52.2154 16.8256 52.9687 19.7034C54.4169 25.2207 55.5552 31.9386 55.6473 37.8531C54.2997 40.0247 51.7969 41.9845 49.1518 43.291C46.8415 44.4297 45.0167 44.8446 43.9286 45.0565L42.8571 43.1497C43.4933 42.9025 44.1211 42.6289 44.6652 42.3729C47.9632 40.8457 49.7545 39.1949 49.7545 39.1949L46.942 35.8051C46.942 35.8051 45.7366 36.9703 42.9241 38.2768C40.1116 39.5833 35.8175 40.8898 30 40.8898C24.1825 40.8898 19.8884 39.5833 17.0759 38.2768C14.2634 36.9703 13.058 35.8051 13.058 35.8051L10.2455 39.1949C10.2455 39.1949 12.0368 40.8457 15.3348 42.3729C15.8789 42.6289 16.5067 42.9025 17.1429 43.1497L16.0714 45.0565C14.9833 44.8446 13.1585 44.4297 10.8482 43.291C8.20312 41.9845 5.70033 40.0247 4.35268 37.8531C4.44475 31.9386 5.58315 25.2207 7.03125 19.7034C7.7846 16.8256 8.62165 14.2744 9.375 12.3588C10.1116 10.4961 10.9319 9.18962 10.9152 9.18079C14.0709 6.55014 17.8878 5.5791 19.8884 5.15537ZM22.5 20.5508C20.8426 20.5508 19.3778 21.5484 18.4821 22.8107C17.5865 24.0731 17.1429 25.6268 17.1429 27.3305C17.1429 29.0343 17.5865 30.5879 18.4821 31.8503C19.3778 33.1126 20.8426 34.1102 22.5 34.1102C24.1574 34.1102 25.6222 33.1126 26.5179 31.8503C27.4135 30.5879 27.8571 29.0343 27.8571 27.3305C27.8571 25.6268 27.4135 24.0731 26.5179 22.8107C25.6222 21.5484 24.1574 20.5508 22.5 20.5508ZM37.5 20.5508C35.8426 20.5508 34.3778 21.5484 33.4821 22.8107C32.5865 24.0731 32.1429 25.6268 32.1429 27.3305C32.1429 29.0343 32.5865 30.5879 33.4821 31.8503C34.3778 33.1126 35.8426 34.1102 37.5 34.1102C39.1574 34.1102 40.6222 33.1126 41.5179 31.8503C42.4135 30.5879 42.8571 29.0343 42.8571 27.3305C42.8571 25.6268 42.4135 24.0731 41.5179 22.8107C40.6222 21.5484 39.1574 20.5508 37.5 20.5508ZM22.5 25.0706C22.6172 25.0706 22.7679 25.1148 23.0357 25.4943C23.3036 25.8739 23.5714 26.536 23.5714 27.3305C23.5714 28.125 23.3036 28.7871 23.0357 29.1667C22.7679 29.5463 22.6172 29.5904 22.5 29.5904C22.3828 29.5904 22.2321 29.5463 21.9643 29.1667C21.6964 28.7871 21.4286 28.125 21.4286 27.3305C21.4286 26.536 21.6964 25.8739 21.9643 25.4943C22.2321 25.1148 22.3828 25.0706 22.5 25.0706ZM37.5 25.0706C37.6172 25.0706 37.7679 25.1148 38.0357 25.4943C38.3036 25.8739 38.5714 26.536 38.5714 27.3305C38.5714 28.125 38.3036 28.7871 38.0357 29.1667C37.7679 29.5463 37.6172 29.5904 37.5 29.5904C37.3828 29.5904 37.2321 29.5463 36.9643 29.1667C36.6964 28.7871 36.4286 28.125 36.4286 27.3305C36.4286 26.536 36.6964 25.8739 36.9643 25.4943C37.2321 25.1148 37.3828 25.0706 37.5 25.0706Z" stroke="url(#paint0_linear_63_460)" stroke-width="6" mask="url(#path-1-inside-1_63_460)"/>
<defs>
<linearGradient id="paint0_linear_63_460" x1="30" y1="0" x2="30" y2="50" gradientUnits="userSpaceOnUse">
<stop stop-color="#FF050D"/>
<stop offset="1" stop-color="#061161"/>
</linearGradient>
</defs>
</svg>
