<svg width="50" height="50" viewBox="0 0 50 50" fill="none" xmlns="http://www.w3.org/2000/svg">
<g clip-path="url(#clip0_9_124)">
<path d="M24.9998 0C11.215 0 0.000183105 11.2149 0.000183105 25.0001C0.000183105 38.7852 11.215 50.0002 24.9998 50.0002C28.5139 50.0002 31.913 49.2849 35.1027 47.8745C35.9662 47.4926 36.3566 46.483 35.9748 45.6193C35.5927 44.7556 34.5828 44.3656 33.7196 44.7472C30.9685 45.9638 28.0346 46.5809 24.9998 46.5809C13.1004 46.5809 3.41946 36.8998 3.41946 25.0001C3.41946 13.1004 13.1004 3.41928 24.9998 3.41928C36.8995 3.41928 46.5807 13.1004 46.5807 25.0001C46.5807 27.2551 46.2346 29.4767 45.5525 31.603C44.0828 36.1814 41.6682 37.5942 40.493 37.4114C39.3661 37.2349 39.2786 35.5497 39.2786 35.0374V14.7323C39.2786 13.7881 38.5131 13.0226 37.5689 13.0226C36.6247 13.0226 35.8593 13.7881 35.8593 14.7323V15.7383C33.2384 12.6694 29.3426 10.7212 24.9999 10.7212C17.1266 10.7212 10.721 17.1267 10.721 25.0001C10.721 32.8734 17.1266 39.279 24.9999 39.279C29.3426 39.279 33.2384 37.3308 35.8593 34.2618V35.0374C35.8593 38.1413 37.4705 40.3991 39.9643 40.7897C42.9154 41.2507 46.7969 38.9142 48.8081 32.6479C49.599 30.1834 50 27.6102 50 25.0001C49.9999 11.2149 38.7849 0 24.9998 0ZM24.9998 35.8597C19.0119 35.8597 14.1402 30.988 14.1402 25.0001C14.1402 19.0121 19.0119 14.1404 24.9998 14.1404C30.9876 14.1404 35.8591 19.0121 35.8591 25.0001C35.8591 30.988 30.9876 35.8597 24.9998 35.8597Z" fill="url(#paint0_linear_9_124)"/>
</g>
<defs>
<linearGradient id="paint0_linear_9_124" x1="25.0001" y1="0" x2="25.0001" y2="50.0002" gradientUnits="userSpaceOnUse">
<stop stop-color="#FF050D"/>
<stop offset="1" stop-color="#061161" stop-opacity="0.78"/>
</linearGradient>
<clipPath id="clip0_9_124">
<rect width="50" height="50" fill="white"/>
</clipPath>
</defs>
</svg>
