<svg width="50" height="50" viewBox="0 0 50 50" fill="none" xmlns="http://www.w3.org/2000/svg">
<path d="M42.6776 7.32246C37.9558 2.60039 31.6776 0 25 0C18.3224 0 12.0442 2.60039 7.32236 7.32246C2.60039 12.0442 0 18.3224 0 25C0 31.6776 2.60039 37.9558 7.32236 42.6776C12.0442 47.3996 18.3224 50 25 50C31.6776 50 37.9558 47.3996 42.6776 42.6775C47.3996 37.9558 50 31.6776 50 25C50 18.3224 47.3996 12.0442 42.6776 7.32246ZM25 48.4211C12.0855 48.4211 1.57891 37.9145 1.57891 25C1.57891 12.0855 12.0855 1.57891 25 1.57891C37.9145 1.57891 48.4211 12.0855 48.4211 25C48.4211 37.9145 37.9145 48.4211 25 48.4211Z" fill="url(#paint0_linear_8_95)"/>
<path d="M13.5 23.6847L13.6712 23H15V25.5V30V35H13.7434L13.5 34.9189V34V32V29V25.5V23.6847Z" stroke="url(#paint1_linear_8_95)" stroke-opacity="0.5" stroke-width="3"/>
<path d="M17.0526 20H11.7894C11.3534 20 10.9999 20.3534 10.9999 20.7895V36.5789C10.9999 37.015 11.3535 37.3684 11.7894 37.3684H17.0526C17.4886 37.3684 17.842 37.0149 17.842 36.5789V20.7895C17.8421 20.3534 17.4886 20 17.0526 20ZM16.2631 35.7895H12.5789V21.5789H16.2631V35.7895Z" fill="url(#paint2_linear_8_95)"/>
<path d="M13.3416 15.3292L13.3121 15.2701L13.2775 15.2139L13 14.7629V14.4542L13.5817 13.5817L14.2216 13.155L15.0257 13.423L15.8141 13.6859L16 14.2434V14.6812L15.5178 15.314L14.3255 15.9102L13.5331 15.7121L13.3416 15.3292Z" stroke="url(#paint3_linear_8_95)" stroke-opacity="0.5" stroke-width="3"/>
<path d="M14.4736 10.5234C12.2969 10.5234 10.5262 12.2941 10.5262 14.4708C10.5262 16.6475 12.2969 18.4182 14.4736 18.4182C16.6503 18.4182 18.421 16.6475 18.421 14.4708C18.421 12.2941 16.6503 10.5234 14.4736 10.5234ZM14.4736 16.8393C13.1677 16.8393 12.1052 15.7768 12.1052 14.4708C12.1052 13.1649 13.1676 12.1023 14.4736 12.1023C15.7796 12.1023 16.8421 13.1648 16.8421 14.4708C16.8421 15.7768 15.7797 16.8393 14.4736 16.8393Z" fill="url(#paint4_linear_8_95)"/>
<path d="M29.5 25H30.3333L29.8 25.4L29.1373 25.8971L29.0201 26.7172L28.5201 30.2172L28.5 30.3579V30.5V34H28.4322L28.1219 25H29.5ZM35.4851 24.0597L33.4856 23.5598L34.6423 23.0971L36.0149 23.4403L37.6788 23.8563L38.7258 24.5542L39.6326 25.461L40.011 27.7315L40.4289 34H40V30.5V30.1754L39.8974 29.8675L39.3974 28.3675L39.3524 28.2327L39.2889 28.1056L38.2889 26.1056L38.0513 25.6305L37.6094 25.3359L36.1094 24.3359L35.8212 24.1437L35.4851 24.0597Z" stroke="url(#paint5_linear_8_95)" stroke-opacity="0.46" stroke-width="4"/>
<path d="M35.2632 20C33.6954 20 32.1509 20.4059 30.7895 21.1617V20.7895C30.7895 20.3535 30.4359 20.0001 30 20.0001H25.7895C25.3534 20.0001 25 20.3536 25 20.7895V36.579C25 37.015 25.3535 37.3685 25.7895 37.3685H31.0526C31.4887 37.3685 31.8421 37.0149 31.8421 36.579V30.911C31.8421 29.0548 32.2529 26.8422 34.2106 26.8422C35.6714 26.8422 36.2706 28.0745 36.4808 29.4714C36.5384 29.8544 36.8703 30.1362 37.2578 30.1362C37.744 30.1362 38.1096 29.7003 38.0346 29.22C37.6382 26.6835 36.2936 25.2633 34.2106 25.2633C31.702 25.2633 30.2632 27.3219 30.2632 30.911V35.7895H26.579V21.5789H29.2105V22.617C29.2105 22.8618 29.3125 23.101 29.5039 23.2536C29.8011 23.4905 30.2104 23.4823 30.4939 23.2548C31.8612 22.1585 33.5104 21.5789 35.2632 21.5789C39.8078 21.5789 41.8421 25.4118 41.8421 29.2104V35.7893H38.1579V33.1897C38.1579 32.755 37.8055 32.4025 37.3708 32.4025H37.3662C36.9315 32.4025 36.5791 32.755 36.5791 33.1897V36.5788C36.5791 37.0148 36.9326 37.3683 37.3686 37.3683H42.6318C43.0678 37.3683 43.4212 37.0147 43.4212 36.5788V29.2103C43.421 23.7875 40.0664 20 35.2632 20Z" fill="url(#paint6_linear_8_95)" fill-opacity="0.98"/>
<defs>
<linearGradient id="paint0_linear_8_95" x1="25" y1="0" x2="25" y2="50" gradientUnits="userSpaceOnUse">
<stop stop-color="#FF050D"/>
<stop offset="1" stop-color="#061161" stop-opacity="0.78"/>
</linearGradient>
<linearGradient id="paint1_linear_8_95" x1="14.25" y1="21.5" x2="14.25" y2="36.5" gradientUnits="userSpaceOnUse">
<stop stop-color="#FF050D"/>
<stop offset="1" stop-color="#061161"/>
</linearGradient>
<linearGradient id="paint2_linear_8_95" x1="14.421" y1="20" x2="14.421" y2="37.3684" gradientUnits="userSpaceOnUse">
<stop stop-color="#FF050D"/>
<stop offset="1" stop-color="#061161" stop-opacity="0.78"/>
</linearGradient>
<linearGradient id="paint3_linear_8_95" x1="14.5" y1="11.5" x2="14.5" y2="17.5" gradientUnits="userSpaceOnUse">
<stop stop-color="#FF050D"/>
<stop offset="1" stop-color="#061161"/>
</linearGradient>
<linearGradient id="paint4_linear_8_95" x1="14.4736" y1="10.5234" x2="14.4736" y2="18.4182" gradientUnits="userSpaceOnUse">
<stop stop-color="#FF050D"/>
<stop offset="1" stop-color="#061161" stop-opacity="0.78"/>
</linearGradient>
<linearGradient id="paint5_linear_8_95" x1="34.25" y1="21" x2="34.25" y2="36" gradientUnits="userSpaceOnUse">
<stop stop-color="#FF050D"/>
<stop offset="1" stop-color="#061161"/>
</linearGradient>
<linearGradient id="paint6_linear_8_95" x1="34.2106" y1="20" x2="34.2106" y2="37.3685" gradientUnits="userSpaceOnUse">
<stop stop-color="#FF050D"/>
<stop offset="1" stop-color="#061161" stop-opacity="0.78"/>
</linearGradient>
</defs>
</svg>
