<svg width="726" height="319" viewBox="0 0 726 319" fill="none" xmlns="http://www.w3.org/2000/svg">
<path opacity="0.28" d="M716.34 318.631H9.66024C4.46131 318.631 0.247559 314.55 0.247559 309.515C0.247559 304.479 4.46131 300.398 9.66024 300.398H716.34C721.539 300.398 725.753 304.479 725.753 309.515C725.753 314.549 721.538 318.631 716.34 318.631Z" fill="#848484"/>
<path d="M685.594 225.031C685.594 187.325 656.097 156.349 617.9 152.839V144.32H594.983V307.092H617.9V297.224C656.097 293.715 685.594 262.738 685.594 225.031ZM617.9 273.827V176.239C642.346 179.637 661.602 200.217 661.602 225.032C661.602 249.848 642.346 270.428 617.9 273.827Z" fill="#F09F54"/>
<path opacity="0.29" d="M617.9 152.839V144.32H594.983V307.092H617.9V297.224C656.097 293.715 685.594 262.739 685.594 225.032C685.594 187.326 656.097 156.349 617.9 152.839ZM617.9 289.77V298.214H596.511V151.718H617.9V160.294C651.514 163.441 678.604 191.219 678.604 225.03C678.604 258.844 651.514 286.622 617.9 289.77Z" fill="#F09F54"/>
<path d="M685.594 225.031C685.594 187.325 656.097 156.349 617.9 152.839V144.32H594.983V307.092H617.9V297.224C656.097 293.715 685.594 262.738 685.594 225.031ZM617.9 273.827V176.239C642.346 179.637 661.602 200.217 661.602 225.032C661.602 249.848 642.346 270.428 617.9 273.827Z" stroke="#444E59" stroke-width="4" stroke-miterlimit="10" stroke-linecap="round" stroke-linejoin="round"/>
<path d="M604.15 290.812H594.983" stroke="#444E59" stroke-width="3" stroke-miterlimit="10" stroke-linecap="round" stroke-linejoin="round"/>
<path d="M604.15 274.531H594.983" stroke="#444E59" stroke-width="3" stroke-miterlimit="10" stroke-linecap="round" stroke-linejoin="round"/>
<path d="M604.15 258.258H594.983" stroke="#444E59" stroke-width="3" stroke-miterlimit="10" stroke-linecap="round" stroke-linejoin="round"/>
<path d="M604.15 241.977H594.983" stroke="#444E59" stroke-width="3" stroke-miterlimit="10" stroke-linecap="round" stroke-linejoin="round"/>
<path d="M604.15 225.703H594.983" stroke="#444E59" stroke-width="3" stroke-miterlimit="10" stroke-linecap="round" stroke-linejoin="round"/>
<path d="M604.15 209.43H594.983" stroke="#444E59" stroke-width="3" stroke-miterlimit="10" stroke-linecap="round" stroke-linejoin="round"/>
<path d="M604.15 193.148H594.983" stroke="#444E59" stroke-width="3" stroke-miterlimit="10" stroke-linecap="round" stroke-linejoin="round"/>
<path d="M604.15 176.867H594.983" stroke="#444E59" stroke-width="3" stroke-miterlimit="10" stroke-linecap="round" stroke-linejoin="round"/>
<path d="M604.15 160.594H594.983" stroke="#444E59" stroke-width="3" stroke-miterlimit="10" stroke-linecap="round" stroke-linejoin="round"/>
<path d="M578.8 61.9453H544.202V306.707H578.8V61.9453Z" fill="#F09F54"/>
<path d="M578.8 61.9453H544.202V306.707H578.8V61.9453Z" fill="#F09F54"/>
<path opacity="0.29" d="M578.801 61.9453H563.758V306.707H578.801V61.9453Z" fill="#F09F54"/>
<path d="M578.8 61.9453H544.202V306.707H578.8V61.9453Z" stroke="#444E59" stroke-width="4" stroke-miterlimit="10" stroke-linecap="round" stroke-linejoin="round"/>
<path d="M556.236 281.945H544.202" stroke="#444E59" stroke-width="3" stroke-miterlimit="10" stroke-linecap="round" stroke-linejoin="round"/>
<path d="M551.723 293.602H544.202" stroke="#444E59" stroke-width="3" stroke-miterlimit="10" stroke-linecap="round" stroke-linejoin="round"/>
<path d="M556.236 258.633H544.202" stroke="#444E59" stroke-width="3" stroke-miterlimit="10" stroke-linecap="round" stroke-linejoin="round"/>
<path d="M551.723 270.281H544.202" stroke="#444E59" stroke-width="3" stroke-miterlimit="10" stroke-linecap="round" stroke-linejoin="round"/>
<path d="M556.236 235.32H544.202" stroke="#444E59" stroke-width="3" stroke-miterlimit="10" stroke-linecap="round" stroke-linejoin="round"/>
<path d="M551.723 246.977H544.202" stroke="#444E59" stroke-width="3" stroke-miterlimit="10" stroke-linecap="round" stroke-linejoin="round"/>
<path d="M556.236 212.008H544.202" stroke="#444E59" stroke-width="3" stroke-miterlimit="10" stroke-linecap="round" stroke-linejoin="round"/>
<path d="M551.723 223.672H544.202" stroke="#444E59" stroke-width="3" stroke-miterlimit="10" stroke-linecap="round" stroke-linejoin="round"/>
<path d="M556.236 188.703H544.202" stroke="#444E59" stroke-width="3" stroke-miterlimit="10" stroke-linecap="round" stroke-linejoin="round"/>
<path d="M551.723 200.359H544.202" stroke="#444E59" stroke-width="3" stroke-miterlimit="10" stroke-linecap="round" stroke-linejoin="round"/>
<path d="M556.236 165.391H544.202" stroke="#444E59" stroke-width="3" stroke-miterlimit="10" stroke-linecap="round" stroke-linejoin="round"/>
<path d="M551.723 177.047H544.202" stroke="#444E59" stroke-width="3" stroke-miterlimit="10" stroke-linecap="round" stroke-linejoin="round"/>
<path d="M556.236 142.078H544.202" stroke="#444E59" stroke-width="3" stroke-miterlimit="10" stroke-linecap="round" stroke-linejoin="round"/>
<path d="M551.723 153.734H544.202" stroke="#444E59" stroke-width="3" stroke-miterlimit="10" stroke-linecap="round" stroke-linejoin="round"/>
<path d="M556.236 118.766H544.202" stroke="#444E59" stroke-width="3" stroke-miterlimit="10" stroke-linecap="round" stroke-linejoin="round"/>
<path d="M551.723 130.43H544.202" stroke="#444E59" stroke-width="3" stroke-miterlimit="10" stroke-linecap="round" stroke-linejoin="round"/>
<path d="M556.236 95.4609H544.202" stroke="#444E59" stroke-width="3" stroke-miterlimit="10" stroke-linecap="round" stroke-linejoin="round"/>
<path d="M551.723 107.109H544.202" stroke="#444E59" stroke-width="3" stroke-miterlimit="10" stroke-linecap="round" stroke-linejoin="round"/>
<path d="M556.236 72.1484H544.202" stroke="#444E59" stroke-width="3" stroke-miterlimit="10" stroke-linecap="round" stroke-linejoin="round"/>
<path d="M551.723 83.8047H544.202" stroke="#444E59" stroke-width="3" stroke-miterlimit="10" stroke-linecap="round" stroke-linejoin="round"/>
<path d="M493.786 121.164H480.25V155.725H493.786V121.164Z" fill="#848484"/>
<path opacity="0.25" d="M485.25 121.164H480.25V155.725H485.25V121.164Z" fill="#848484"/>
<path d="M493.786 121.164H480.25V155.725H493.786V121.164Z" stroke="#444E59" stroke-width="4" stroke-miterlimit="10" stroke-linecap="round" stroke-linejoin="round"/>
<path d="M490.096 155.719H483.943V172.403H490.096V155.719Z" fill="white"/>
<path d="M490.096 155.719H483.943V172.403H490.096V155.719Z" stroke="#444E59" stroke-width="4" stroke-miterlimit="10" stroke-linecap="round" stroke-linejoin="round"/>
<path d="M476.618 187.391L445.249 306.594L492.915 188.951L476.618 187.391Z" fill="white"/>
<path d="M476.618 187.391L445.249 306.594L492.915 188.951L476.618 187.391Z" stroke="#444E59" stroke-width="4" stroke-miterlimit="10" stroke-linecap="round" stroke-linejoin="round"/>
<path d="M497.531 187.391L528.901 306.594L481.234 188.951L497.531 187.391Z" fill="white"/>
<path d="M497.531 187.391L528.901 306.594L481.234 188.951L497.531 187.391Z" stroke="#444E59" stroke-width="4" stroke-miterlimit="10" stroke-linecap="round" stroke-linejoin="round"/>
<path d="M487.08 210.722C498.633 210.722 507.998 201.651 507.998 190.462C507.998 179.274 498.633 170.203 487.08 170.203C475.527 170.203 466.162 179.274 466.162 190.462C466.162 201.651 475.527 210.722 487.08 210.722Z" fill="#71A850"/>
<path opacity="0.4" d="M471.997 190.462C471.997 180.235 479.829 171.801 489.997 170.423C489.041 170.293 488.073 170.203 487.079 170.203C475.527 170.203 466.161 179.274 466.161 190.462C466.161 201.651 475.527 210.722 487.079 210.722C488.072 210.722 489.041 210.632 489.997 210.502C479.83 209.124 471.997 200.689 471.997 190.462Z" fill="#71A850"/>
<path d="M487.08 210.722C498.633 210.722 507.998 201.651 507.998 190.462C507.998 179.274 498.633 170.203 487.08 170.203C475.527 170.203 466.162 179.274 466.162 190.462C466.162 201.651 475.527 210.722 487.08 210.722Z" stroke="#444E59" stroke-width="4" stroke-miterlimit="10" stroke-linecap="round" stroke-linejoin="round"/>
<path d="M487.08 197.32C490.994 197.32 494.167 194.248 494.167 190.457C494.167 186.666 490.994 183.594 487.08 183.594C483.167 183.594 479.994 186.666 479.994 190.457C479.994 194.248 483.167 197.32 487.08 197.32Z" fill="#444E59"/>
<path d="M487.08 197.32C490.994 197.32 494.167 194.248 494.167 190.457C494.167 186.666 490.994 183.594 487.08 183.594C483.167 183.594 479.994 186.666 479.994 190.457C479.994 194.248 483.167 197.32 487.08 197.32Z" stroke="#444E59" stroke-width="4" stroke-miterlimit="10" stroke-linecap="round" stroke-linejoin="round"/>
<path d="M411.544 306.341H273.491C265.405 306.341 258.85 299.992 258.85 292.161V16.6494C258.85 8.81765 265.405 2.46875 273.491 2.46875H411.544C419.631 2.46875 426.186 8.81765 426.186 16.6494V292.161C426.186 299.992 419.631 306.341 411.544 306.341Z" fill="#848484"/>
<path opacity="0.28" d="M411.544 2.46875H402.701C410.788 2.46875 417.343 8.81765 417.343 16.6494V292.161C417.343 299.992 410.788 306.341 402.701 306.341H411.544C419.631 306.341 426.186 299.992 426.186 292.161V16.6494C426.186 8.81765 419.631 2.46875 411.544 2.46875Z" fill="#848484"/>
<path opacity="0.48" d="M267.565 292.161V16.6494C267.565 8.81765 274.121 2.46875 282.206 2.46875H273.491C265.405 2.46875 258.85 8.81765 258.85 16.6494V292.161C258.85 299.992 265.405 306.341 273.491 306.341H282.206C274.121 306.341 267.565 299.992 267.565 292.161Z" fill="#848484"/>
<path d="M411.544 306.341H273.491C265.405 306.341 258.85 299.992 258.85 292.161V16.6494C258.85 8.81765 265.405 2.46875 273.491 2.46875H411.544C419.631 2.46875 426.186 8.81765 426.186 16.6494V292.161C426.186 299.992 419.631 306.341 411.544 306.341Z" stroke="#444E59" stroke-width="4" stroke-miterlimit="10" stroke-linecap="round" stroke-linejoin="round"/>
<path d="M426.186 267.384V40.4922H258.85V267.384H426.186Z" fill="#E9FBFF"/>
<path d="M425.324 113.573H412.271C405.173 113.573 399.419 107.999 399.419 101.125V70.2288C399.419 63.3543 405.173 57.7812 412.271 57.7812H425.324V113.573ZM268.419 238.835H258.85V140.306H268.419C275.623 140.306 281.463 145.963 281.463 152.939V226.203C281.463 233.179 275.623 238.835 268.419 238.835Z" fill="#C9C9C9"/>
<path d="M426.186 267.384V40.4922H258.85V267.384H426.186Z" stroke="#444E59" stroke-width="4" stroke-miterlimit="10" stroke-linecap="round" stroke-linejoin="round"/>
<path d="M365.526 22.7656H372.847" stroke="#444E59" stroke-width="5" stroke-miterlimit="10" stroke-linecap="round" stroke-linejoin="round"/>
<path d="M312.188 22.7656H354.022" stroke="#444E59" stroke-width="5" stroke-miterlimit="10" stroke-linecap="round" stroke-linejoin="round"/>
<path classname="smartbutton" opacity="0.29" d="M342.518 295.579C348.844 295.579 353.973 290.612 353.973 284.485C353.973 278.358 348.844 273.391 342.518 273.391C336.191 273.391 331.063 278.358 331.063 284.485C331.063 290.612 336.191 295.579 342.518 295.579Z" fill="#848484"/>
<path  classname="smartbutton" d="M342.518 292.997C347.371 292.997 351.306 289.187 351.306 284.487C351.306 279.787 347.371 275.977 342.518 275.977C337.665 275.977 333.731 279.787 333.731 284.487C333.731 289.187 337.665 292.997 342.518 292.997Z" fill="#444E59"/>
<g opacity="0.3">
<path opacity="0.3" d="M304.282 240.219H287.548C282.927 240.219 279.181 236.591 279.181 232.116V215.91C279.181 211.435 282.927 207.806 287.548 207.806H304.282C308.902 207.806 312.648 211.435 312.648 215.91V232.116C312.648 236.592 308.902 240.219 304.282 240.219ZM396.902 240.219H380.168C375.548 240.219 371.802 236.591 371.802 232.116V215.91C371.802 211.435 375.548 207.806 380.168 207.806H396.902C401.523 207.806 405.269 211.435 405.269 215.91V232.116C405.269 236.592 401.523 240.219 396.902 240.219ZM350.885 240.219H334.151C329.531 240.219 325.785 236.591 325.785 232.116V215.91C325.785 211.435 329.531 207.806 334.151 207.806H350.885C355.506 207.806 359.252 211.435 359.252 215.91V232.116C359.252 236.592 355.506 240.219 350.885 240.219ZM304.282 191.6H287.548C282.927 191.6 279.181 187.972 279.181 183.497V167.29C279.181 162.816 282.927 159.188 287.548 159.188H304.282C308.902 159.188 312.648 162.816 312.648 167.29V183.497C312.648 187.973 308.902 191.6 304.282 191.6ZM396.902 191.6H380.168C375.548 191.6 371.802 187.972 371.802 183.497V167.29C371.802 162.816 375.548 159.188 380.168 159.188H396.902C401.523 159.188 405.269 162.816 405.269 167.29V183.497C405.269 187.973 401.523 191.6 396.902 191.6ZM350.885 191.6H334.151C329.531 191.6 325.785 187.972 325.785 183.497V167.29C325.785 162.816 329.531 159.188 334.151 159.188H350.885C355.506 159.188 359.252 162.816 359.252 167.29V183.497C359.252 187.973 355.506 191.6 350.885 191.6Z" stroke="#444E59" stroke-width="2" stroke-linecap="round" stroke-linejoin="round" stroke-dasharray="4.08 4.08"/>
<g opacity="0.3">
<path opacity="0.3" d="M304.282 142.975H287.548C282.927 142.975 279.181 139.347 279.181 134.872V118.666C279.181 114.191 282.927 110.562 287.548 110.562H304.282C308.902 110.562 312.648 114.191 312.648 118.666V134.872C312.648 139.348 308.902 142.975 304.282 142.975ZM396.902 142.975H380.168C375.548 142.975 371.802 139.347 371.802 134.872V118.666C371.802 114.191 375.548 110.562 380.168 110.562H396.902C401.523 110.562 405.269 114.191 405.269 118.666V134.872C405.269 139.348 401.523 142.975 396.902 142.975ZM350.885 142.975H334.151C329.531 142.975 325.785 139.347 325.785 134.872V118.666C325.785 114.191 329.531 110.562 334.151 110.562H350.885C355.506 110.562 359.252 114.191 359.252 118.666V134.872C359.252 139.348 355.506 142.975 350.885 142.975Z" stroke="#444E59" stroke-width="2" stroke-linecap="round" stroke-linejoin="round" stroke-dasharray="4.08 4.08"/>
</g>
<g opacity="0.3">
<path opacity="0.3" d="M304.282 94.3583H287.548C282.927 94.3583 279.181 90.7302 279.181 86.2552V70.0486C279.181 65.5736 282.927 61.9453 287.548 61.9453H304.282C308.902 61.9453 312.648 65.5736 312.648 70.0486V86.2552C312.648 90.7311 308.902 94.3583 304.282 94.3583ZM396.902 94.3583H380.168C375.548 94.3583 371.802 90.7302 371.802 86.2552V70.0486C371.802 65.5736 375.548 61.9453 380.168 61.9453H396.902C401.523 61.9453 405.269 65.5736 405.269 70.0486V86.2552C405.269 90.7311 401.523 94.3583 396.902 94.3583ZM350.885 94.3583H334.151C329.531 94.3583 325.785 90.7302 325.785 86.2552V70.0486C325.785 65.5736 329.531 61.9453 334.151 61.9453H350.885C355.506 61.9453 359.252 65.5736 359.252 70.0486V86.2552C359.252 90.7311 355.506 94.3583 350.885 94.3583Z" stroke="#444E59" stroke-width="2" stroke-linecap="round" stroke-linejoin="round" stroke-dasharray="4.08 4.08"/>
</g>
</g>
<path d="M304.282 240.218H287.548C282.927 240.218 279.181 236.589 279.181 232.115V215.909C279.181 211.433 282.927 207.805 287.548 207.805H304.282C308.902 207.805 312.648 211.433 312.648 215.909V232.115C312.648 236.59 308.902 240.218 304.282 240.218Z" fill="#71A850"/>
<path opacity="0.52" d="M304.276 207.805H287.543C284.192 207.805 281.308 209.719 279.973 212.473L312.643 218.171V215.908C312.643 211.433 308.898 207.805 304.276 207.805Z" fill="#5F8C42"/>
<path d="M304.282 240.218H287.548C282.927 240.218 279.181 236.589 279.181 232.115V215.909C279.181 211.433 282.927 207.805 287.548 207.805H304.282C308.902 207.805 312.648 211.433 312.648 215.909V232.115C312.648 236.59 308.902 240.218 304.282 240.218Z" stroke="#444E59" stroke-width="4" stroke-miterlimit="10" stroke-linecap="round" stroke-linejoin="round"/>
<path d="M350.885 240.218H334.151C329.531 240.218 325.785 236.589 325.785 232.115V215.909C325.785 211.433 329.531 207.805 334.151 207.805H350.885C355.506 207.805 359.252 211.433 359.252 215.909V232.115C359.252 236.59 355.506 240.218 350.885 240.218Z" fill="#F09F54"/>
<path opacity="0.52" d="M350.885 207.805H334.151C330.8 207.805 327.917 209.719 326.581 212.473L359.252 218.171V215.908C359.252 211.433 355.506 207.805 350.885 207.805Z" fill="#D38444"/>
<path d="M350.885 240.218H334.151C329.531 240.218 325.785 236.589 325.785 232.115V215.909C325.785 211.433 329.531 207.805 334.151 207.805H350.885C355.506 207.805 359.252 211.433 359.252 215.909V232.115C359.252 236.59 355.506 240.218 350.885 240.218Z" stroke="#444E59" stroke-width="4" stroke-miterlimit="10" stroke-linecap="round" stroke-linejoin="round"/>
<path d="M396.902 191.6H380.168C375.548 191.6 371.802 187.972 371.802 183.497V167.29C371.802 162.816 375.548 159.188 380.168 159.188H396.902C401.523 159.188 405.269 162.816 405.269 167.29V183.497C405.269 187.973 401.523 191.6 396.902 191.6Z" fill="#2FA9ED"/>
<path opacity="0.52" d="M396.902 159.188H380.168C376.817 159.188 373.935 161.101 372.599 163.856L405.269 169.554V167.29C405.269 162.816 401.523 159.188 396.902 159.188Z" fill="#288FBC"/>
<path d="M396.902 191.6H380.168C375.548 191.6 371.802 187.972 371.802 183.497V167.29C371.802 162.816 375.548 159.188 380.168 159.188H396.902C401.523 159.188 405.269 162.816 405.269 167.29V183.497C405.269 187.973 401.523 191.6 396.902 191.6Z" stroke="#444E59" stroke-width="4" stroke-miterlimit="10" stroke-linecap="round" stroke-linejoin="round"/>
<path d="M350.885 142.975H334.151C329.531 142.975 325.785 139.347 325.785 134.872V118.666C325.785 114.191 329.531 110.562 334.151 110.562H350.885C355.506 110.562 359.252 114.191 359.252 118.666V134.872C359.252 139.348 355.506 142.975 350.885 142.975Z" fill="#E7534E"/>
<path opacity="0.52" d="M350.885 110.562H334.151C330.8 110.562 327.917 112.477 326.581 115.231L359.252 120.929V118.665C359.252 114.191 355.506 110.562 350.885 110.562Z" fill="#BF4040"/>
<path d="M350.885 142.975H334.151C329.531 142.975 325.785 139.347 325.785 134.872V118.666C325.785 114.191 329.531 110.562 334.151 110.562H350.885C355.506 110.562 359.252 114.191 359.252 118.666V134.872C359.252 139.348 355.506 142.975 350.885 142.975Z" stroke="#444E59" stroke-width="4" stroke-miterlimit="10" stroke-linecap="round" stroke-linejoin="round"/>
<path d="M385.811 168.28L395.427 173.657C396.81 174.431 396.81 176.365 395.427 177.137L385.811 182.514C384.428 183.288 382.699 182.32 382.699 180.773V170.021C382.699 168.474 384.428 167.506 385.811 168.28ZM346.925 217.729H338.109C336.238 217.729 334.719 219.198 334.719 221.012V227.279C334.719 229.092 336.237 230.562 338.109 230.562H338.377L337.647 233.396C337.594 233.602 337.835 233.763 338.016 233.639L342.473 230.563H346.925C348.798 230.563 350.316 229.094 350.316 227.28V221.013C350.316 219.198 348.798 217.729 346.925 217.729Z" fill="white"/>
<path d="M289.516 223.995L293.359 227.716C293.884 228.226 294.738 228.226 295.265 227.716L303.903 219.352" stroke="white" stroke-width="4" stroke-miterlimit="10" stroke-linecap="round" stroke-linejoin="round"/>
<path d="M342.518 134.331C346.824 134.331 350.316 130.95 350.316 126.779C350.316 122.608 346.824 119.227 342.518 119.227C338.211 119.227 334.721 122.608 334.721 126.779C334.721 130.95 338.211 134.331 342.518 134.331Z" stroke="white" stroke-width="4" stroke-miterlimit="10" stroke-linecap="round" stroke-linejoin="round"/>
<path classname="gear" d="M279.365 87.3107L279.199 72.1546L268.722 72.2619C268.13 70.3728 267.336 68.5708 266.355 66.8833L273.685 59.634L262.501 49.0299L255.172 56.2792C253.41 55.3656 251.533 54.6343 249.571 54.1015L249.46 43.9531L233.811 44.1132L233.922 54.2625C231.971 54.8359 230.11 55.6046 228.368 56.5537L220.882 49.4552L209.933 60.2863L217.418 67.3847C216.475 69.0915 215.72 70.9097 215.17 72.8099L204.691 72.9173L204.856 88.0733L215.336 87.966C215.926 89.8551 216.722 91.657 217.701 93.3445L210.372 100.593L221.554 111.198L228.883 103.948C230.647 104.863 232.524 105.594 234.487 106.126L234.598 116.276L250.247 116.116L250.136 105.967C252.086 105.395 253.946 104.625 255.689 103.676L263.175 110.774L274.124 99.9419L266.639 92.8431C267.581 91.1364 268.337 89.3182 268.887 87.418L279.365 87.3107ZM242.157 91.9437C235.411 92.0126 229.883 86.7717 229.812 80.2385C229.742 73.7053 235.153 68.3521 241.899 68.2831C248.644 68.2143 254.171 73.4551 254.243 79.9883C254.315 86.5226 248.904 91.8748 242.157 91.9437Z" fill="white"/>
<path classname="gear" d="M279.365 87.3107L279.199 72.1546L268.722 72.2619C268.13 70.3728 267.336 68.5708 266.355 66.8833L273.685 59.634L262.501 49.0299L255.172 56.2792C253.41 55.3656 251.533 54.6343 249.571 54.1015L249.46 43.9531L233.811 44.1132L233.922 54.2625C231.971 54.8359 230.11 55.6046 228.368 56.5537L220.882 49.4552L209.933 60.2863L217.418 67.3847C216.475 69.0915 215.72 70.9097 215.17 72.8099L204.691 72.9173L204.856 88.0733L215.336 87.966C215.926 89.8551 216.722 91.657 217.701 93.3445L210.372 100.593L221.554 111.198L228.883 103.948C230.647 104.863 232.524 105.594 234.487 106.126L234.598 116.276L250.247 116.116L250.136 105.967C252.086 105.395 253.946 104.625 255.689 103.676L263.175 110.774L274.124 99.9419L266.639 92.8431C267.581 91.1364 268.337 89.3182 268.887 87.418L279.365 87.3107ZM242.157 91.9437C235.411 92.0126 229.883 86.7717 229.812 80.2385C229.742 73.7053 235.153 68.3521 241.899 68.2831C248.644 68.2143 254.171 73.4551 254.243 79.9883C254.315 86.5226 248.904 91.8748 242.157 91.9437Z" fill="#F09F54"/>
<path classname="gear" d="M279.365 87.3107L279.199 72.1546L268.722 72.2619C268.13 70.3728 267.336 68.5708 266.355 66.8833L273.685 59.634L262.501 49.0299L255.172 56.2792C253.41 55.3656 251.533 54.6343 249.571 54.1015L249.46 43.9531L233.811 44.1132L233.922 54.2625C231.971 54.8359 230.11 55.6046 228.368 56.5537L220.882 49.4552L209.933 60.2863L217.418 67.3847C216.475 69.0915 215.72 70.9097 215.17 72.8099L204.691 72.9173L204.856 88.0733L215.336 87.966C215.926 89.8551 216.722 91.657 217.701 93.3445L210.372 100.593L221.554 111.198L228.883 103.948C230.647 104.863 232.524 105.594 234.487 106.126L234.598 116.276L250.247 116.116L250.136 105.967C252.086 105.395 253.946 104.625 255.689 103.676L263.175 110.774L274.124 99.9419L266.639 92.8431C267.581 91.1364 268.337 89.3182 268.887 87.418L279.365 87.3107ZM242.157 91.9437C235.411 92.0126 229.883 86.7717 229.812 80.2385C229.742 73.7053 235.153 68.3521 241.899 68.2831C248.644 68.2143 254.171 73.4551 254.243 79.9883C254.315 86.5226 248.904 91.8748 242.157 91.9437Z" fill="#F09F54"/>
<g opacity="0.29">
<path classname="gear" opacity="0.29" d="M275.313 72.195C275.32 72.2173 275.328 72.2396 275.335 72.2619L279.201 72.2223L279.199 72.1545L275.313 72.195ZM261.787 56.2802L265.878 52.2327L262.5 49.0299L257.097 54.376C258.728 54.8774 260.3 55.5095 261.787 56.2802ZM248.514 68.2842C247.414 68.2953 246.357 68.4594 245.346 68.7339C250.43 70.1226 254.185 74.6148 254.243 79.9903C254.303 85.4601 250.514 90.0891 245.323 91.496C246.418 91.7958 247.574 91.9579 248.771 91.9457C255.517 91.8768 260.928 86.5246 260.857 79.9903C260.786 73.4561 255.261 68.2153 248.514 68.2842ZM232.91 54.5886L234.983 56.5537C236.725 55.6036 238.585 54.8348 240.536 54.2625L240.425 44.1132L249.46 44.021L249.459 43.9531L233.81 44.1132L233.921 54.2625C233.58 54.3628 233.246 54.4762 232.91 54.5886ZM241.1 106.125C239.138 105.593 237.261 104.862 235.498 103.947L233.573 105.852C233.877 105.945 234.178 106.043 234.486 106.125L234.597 116.275L241.21 116.207L241.1 106.125ZM211.306 72.9173L221.784 72.8098C222.335 70.9097 223.089 69.0915 224.034 67.3847L216.548 60.2863L224.259 52.658L220.882 49.4552L209.933 60.2863L217.418 67.3847C216.475 69.0915 215.72 70.9097 215.17 72.8098L204.691 72.9173L204.856 88.0733L211.471 88.0055L211.306 72.9173ZM262.303 103.674C260.865 104.458 259.343 105.111 257.761 105.639L263.175 110.772L266.412 107.57L262.303 103.674ZM216.987 100.593L224.317 93.3445C223.335 91.657 222.542 89.855 221.951 87.966L215.36 88.0328C215.949 89.8966 216.734 91.6763 217.702 93.3435L210.373 100.592L221.555 111.197L224.793 107.994L216.987 100.593Z" fill="#F09F54"/>
</g>
<path classname="gear" d="M279.365 87.3107L279.199 72.1546L268.722 72.2619C268.13 70.3728 267.336 68.5708 266.355 66.8833L273.685 59.634L262.501 49.0299L255.172 56.2792C253.41 55.3656 251.533 54.6343 249.571 54.1015L249.46 43.9531L233.811 44.1132L233.922 54.2625C231.971 54.8359 230.11 55.6046 228.368 56.5537L220.882 49.4552L209.933 60.2863L217.418 67.3847C216.475 69.0915 215.72 70.9097 215.17 72.8099L204.691 72.9173L204.856 88.0733L215.336 87.966C215.926 89.8551 216.722 91.657 217.701 93.3445L210.372 100.593L221.554 111.198L228.883 103.948C230.647 104.863 232.524 105.594 234.487 106.126L234.598 116.276L250.247 116.116L250.136 105.967C252.086 105.395 253.946 104.625 255.689 103.676L263.175 110.774L274.124 99.9419L266.639 92.8431C267.581 91.1364 268.337 89.3182 268.887 87.418L279.365 87.3107ZM242.157 91.9437C235.411 92.0126 229.883 86.7717 229.812 80.2385C229.742 73.7053 235.153 68.3521 241.899 68.2831C248.644 68.2143 254.171 73.4551 254.243 79.9883C254.315 86.5226 248.904 91.8748 242.157 91.9437Z" stroke="#444E59" stroke-width="4" stroke-miterlimit="10" stroke-linecap="round" stroke-linejoin="round"/>
<path d="M213.998 306.343H84.5675C80.3171 306.343 76.8711 303.006 76.8711 298.889V213.157C76.8711 209.041 80.3171 205.703 84.5675 205.703H213.999C218.25 205.703 221.696 209.041 221.696 213.157V298.889C221.696 303.006 218.25 306.343 213.998 306.343Z" fill="#444E59"/>
<path d="M221.696 221.991H76.8711V213.157C76.8711 209.041 80.3171 205.703 84.5675 205.703H213.998C218.25 205.703 221.696 209.041 221.696 213.158V221.991Z" fill="#BCBCBC"/>
<path d="M213.998 306.343H84.5675C80.3171 306.343 76.8711 303.006 76.8711 298.889V213.157C76.8711 209.041 80.3171 205.703 84.5675 205.703H213.999C218.25 205.703 221.696 209.041 221.696 213.157V298.889C221.696 303.006 218.25 306.343 213.998 306.343Z" stroke="#444E59" stroke-width="4" stroke-miterlimit="10" stroke-linecap="round" stroke-linejoin="round"/>
<path d="M213.998 306.343H84.5675C80.3171 306.343 76.8711 303.006 76.8711 298.889V213.157C76.8711 209.041 80.3171 205.703 84.5675 205.703H213.999C218.25 205.703 221.696 209.041 221.696 213.157V298.889C221.696 303.006 218.25 306.343 213.998 306.343Z" stroke="#444E59" stroke-width="4" stroke-miterlimit="10" stroke-linecap="round" stroke-linejoin="round"/>
<path d="M221.696 221.991H76.8711V213.157C76.8711 209.041 80.3171 205.703 84.5675 205.703H213.998C218.25 205.703 221.696 209.041 221.696 213.158V221.991Z" stroke="#444E59" stroke-width="4" stroke-miterlimit="10" stroke-linecap="round" stroke-linejoin="round"/>
<path d="M96.8719 293.5H113.166" stroke="white" stroke-width="4" stroke-miterlimit="10" stroke-linecap="round" stroke-linejoin="round"/>
<path d="M85.3331 293.5H86.4699" stroke="white" stroke-width="4" stroke-miterlimit="10" stroke-linecap="round" stroke-linejoin="round"/>
<path d="M96.8719 284.766H138.166" stroke="white" stroke-width="4" stroke-miterlimit="10" stroke-linecap="round" stroke-linejoin="round"/>
<path d="M85.3331 284.766H86.4699" stroke="white" stroke-width="4" stroke-miterlimit="10" stroke-linecap="round" stroke-linejoin="round"/>
<path d="M157.831 276.023H169.067" stroke="#64BDFF" stroke-width="4" stroke-miterlimit="10" stroke-linecap="round" stroke-linejoin="round"/>
<path d="M127.07 276.023H147.999" stroke="white" stroke-width="4" stroke-miterlimit="10" stroke-linecap="round" stroke-linejoin="round"/>
<path d="M96.8719 276.023H117.519" stroke="#FF5F5F" stroke-width="4" stroke-miterlimit="10" stroke-linecap="round" stroke-linejoin="round"/>
<path d="M85.3331 276.023H86.4699" stroke="white" stroke-width="4" stroke-miterlimit="10" stroke-linecap="round" stroke-linejoin="round"/>
<path d="M131.705 267.289H182.076" stroke="white" stroke-width="4" stroke-miterlimit="10" stroke-linecap="round" stroke-linejoin="round"/>
<path d="M96.8719 267.289H123.138" stroke="#64BDFF" stroke-width="4" stroke-miterlimit="10" stroke-linecap="round" stroke-linejoin="round"/>
<path d="M85.3331 267.289H86.4699" stroke="white" stroke-width="4" stroke-miterlimit="10" stroke-linecap="round" stroke-linejoin="round"/>
<path d="M131.705 258.562H150.526" stroke="#FF5F5F" stroke-width="4" stroke-miterlimit="10" stroke-linecap="round" stroke-linejoin="round"/>
<path d="M96.8719 258.562H123.138" stroke="#FFBE78" stroke-width="4" stroke-miterlimit="10" stroke-linecap="round" stroke-linejoin="round"/>
<path d="M85.3331 258.562H86.4699" stroke="white" stroke-width="4" stroke-miterlimit="10" stroke-linecap="round" stroke-linejoin="round"/>
<path d="M135.358 249.828H140.414" stroke="#64BDFF" stroke-width="4" stroke-miterlimit="10" stroke-linecap="round" stroke-linejoin="round"/>
<path d="M115.413 249.828H127.071" stroke="#FF5F5F" stroke-width="4" stroke-miterlimit="10" stroke-linecap="round" stroke-linejoin="round"/>
<path d="M96.8719 249.828H106.423" stroke="#C383F2" stroke-width="4" stroke-miterlimit="10" stroke-linecap="round" stroke-linejoin="round"/>
<path d="M85.3331 249.828H86.4699" stroke="white" stroke-width="4" stroke-miterlimit="10" stroke-linecap="round" stroke-linejoin="round"/>
<path d="M173.001 241.086H182.076" stroke="#64BDFF" stroke-width="4" stroke-miterlimit="10" stroke-linecap="round" stroke-linejoin="round"/>
<path d="M125.807 241.086H161.484" stroke="#FF5F5F" stroke-width="4" stroke-miterlimit="10" stroke-linecap="round" stroke-linejoin="round"/>
<path d="M96.8719 241.086H118.081" stroke="#FFBE78" stroke-width="4" stroke-miterlimit="10" stroke-linecap="round" stroke-linejoin="round"/>
<path d="M85.3331 241.086H86.4699" stroke="white" stroke-width="4" stroke-miterlimit="10" stroke-linecap="round" stroke-linejoin="round"/>
<path d="M150.526 232.352H169.067" stroke="#FFBE78" stroke-width="4" stroke-miterlimit="10" stroke-linecap="round" stroke-linejoin="round"/>
<path d="M127.071 232.352H141.538" stroke="#6DBF7B" stroke-width="4" stroke-miterlimit="10" stroke-linecap="round" stroke-linejoin="round"/>
<path d="M111.34 232.352H119.487" stroke="#FFBE78" stroke-width="4" stroke-miterlimit="10" stroke-linecap="round" stroke-linejoin="round"/>
<path d="M96.8719 232.352H103.474" stroke="#6DBF7B" stroke-width="4" stroke-miterlimit="10" stroke-linecap="round" stroke-linejoin="round"/>
<path d="M85.3331 232.352H86.4699" stroke="white" stroke-width="4" stroke-miterlimit="10" stroke-linecap="round" stroke-linejoin="round"/>
<path d="M91.1491 216.407C92.6128 216.407 93.7993 215.259 93.7993 213.841C93.7993 212.423 92.6128 211.273 91.1491 211.273C89.6854 211.273 88.4989 212.423 88.4989 213.841C88.4989 215.259 89.6854 216.407 91.1491 216.407Z" fill="#E7534E"/>
<path d="M100.638 216.407C102.101 216.407 103.289 215.259 103.289 213.841C103.289 212.423 102.101 211.273 100.638 211.273C99.1745 211.273 97.9879 212.423 97.9879 213.841C97.9879 215.259 99.1745 216.407 100.638 216.407Z" fill="#444E59"/>
<path d="M110.127 216.407C111.591 216.407 112.777 215.259 112.777 213.841C112.777 212.423 111.591 211.273 110.127 211.273C108.664 211.273 107.477 212.423 107.477 213.841C107.477 215.259 108.664 216.407 110.127 216.407Z" fill="#444E59"/>
<path d="M265.511 230.916H171.817C167.196 230.916 163.45 227.288 163.45 222.813V140.915C163.45 136.441 167.196 132.812 171.817 132.812H265.511C270.132 132.812 273.878 136.441 273.878 140.915V222.812C273.878 227.288 270.132 230.916 265.511 230.916Z" fill="white"/>
<path d="M265.511 230.916H171.817C167.196 230.916 163.45 227.288 163.45 222.813V140.915C163.45 136.441 167.196 132.812 171.817 132.812H265.511C270.132 132.812 273.878 136.441 273.878 140.915V222.812C273.878 227.288 270.132 230.916 265.511 230.916Z" fill="white"/>
<path d="M265.511 230.916H171.817C167.196 230.916 163.45 227.288 163.45 222.813V140.915C163.45 136.441 167.196 132.812 171.817 132.812H265.511C270.132 132.812 273.878 136.441 273.878 140.915V222.812C273.878 227.288 270.132 230.916 265.511 230.916Z" stroke="#444E59" stroke-width="4" stroke-miterlimit="10" stroke-linecap="round" stroke-linejoin="round"/>
<path d="M263.729 141.102H173.001V199.513H263.729V141.102Z" fill="#9483C4"/>
<path d="M263.729 141.102H173.001V199.513H263.729V141.102Z" stroke="#444E59" stroke-width="4" stroke-miterlimit="10" stroke-linecap="round" stroke-linejoin="round"/>
<path d="M173.001 208.82H230.262" stroke="#444E59" stroke-width="4" stroke-miterlimit="10" stroke-linecap="round" stroke-linejoin="round"/>
<path d="M173.001 218.18H206.905" stroke="#444E59" stroke-width="4" stroke-miterlimit="10" stroke-linecap="round" stroke-linejoin="round"/>
<path d="M182.076 189.052L201.632 170.312L219.821 187.93" stroke="#444E59" stroke-width="4" stroke-miterlimit="10" stroke-linecap="round" stroke-linejoin="round"/>
<path d="M253.969 189.046L230.262 159.188L211.306 179.677" stroke="#444E59" stroke-width="4" stroke-miterlimit="10" stroke-linecap="round" stroke-linejoin="round"/>
<path d="M253.716 218.042C256.551 218.042 258.849 215.817 258.849 213.072C258.849 210.327 256.551 208.102 253.716 208.102C250.882 208.102 248.584 210.327 248.584 213.072C248.584 215.817 250.882 218.042 253.716 218.042Z" stroke="#444E59" stroke-width="4" stroke-miterlimit="10" stroke-linecap="round" stroke-linejoin="round"/>
<path d="M207.387 165.455C210.943 165.455 213.826 162.664 213.826 159.22C213.826 155.776 210.943 152.984 207.387 152.984C203.832 152.984 200.949 155.776 200.949 159.22C200.949 162.664 203.832 165.455 207.387 165.455Z" fill="#F09F54"/>
<path d="M207.387 165.455C210.943 165.455 213.826 162.664 213.826 159.22C213.826 155.776 210.943 152.984 207.387 152.984C203.832 152.984 200.949 155.776 200.949 159.22C200.949 162.664 203.832 165.455 207.387 165.455Z" stroke="#444E59" stroke-width="4" stroke-miterlimit="10" stroke-linecap="round" stroke-linejoin="round"/>
<path d="M161.687 103.906H189.692" stroke="#444E59" stroke-width="4" stroke-miterlimit="10" stroke-linecap="round" stroke-linejoin="round"/>
<path d="M146.746 103.906H154.144" stroke="#444E59" stroke-width="4" stroke-miterlimit="10" stroke-linecap="round" stroke-linejoin="round"/>
<path d="M175.69 91.3281H189.692" stroke="#444E59" stroke-width="4" stroke-miterlimit="10" stroke-linecap="round" stroke-linejoin="round"/>
<path d="M164.417 91.3281H168.6" stroke="#444E59" stroke-width="4" stroke-miterlimit="10" stroke-linecap="round" stroke-linejoin="round"/>
<path d="M131.356 183.336H153.179" stroke="#444E59" stroke-width="4" stroke-miterlimit="10" stroke-linecap="round" stroke-linejoin="round"/>
<path d="M119.715 183.336H125.479" stroke="#444E59" stroke-width="4" stroke-miterlimit="10" stroke-linecap="round" stroke-linejoin="round"/>
<path d="M144.279 170.75H153.179" stroke="#444E59" stroke-width="4" stroke-miterlimit="10" stroke-linecap="round" stroke-linejoin="round"/>
<path d="M133.484 170.75H136.743" stroke="#444E59" stroke-width="4" stroke-miterlimit="10" stroke-linecap="round" stroke-linejoin="round"/>
<path d="M479.898 36.3594H500.674" stroke="#444E59" stroke-width="4" stroke-miterlimit="10" stroke-linecap="round" stroke-linejoin="round"/>
<path d="M467.21 36.3594H472.975" stroke="#444E59" stroke-width="4" stroke-miterlimit="10" stroke-linecap="round" stroke-linejoin="round"/>
<path d="M491.774 23.7812H500.674" stroke="#444E59" stroke-width="4" stroke-miterlimit="10" stroke-linecap="round" stroke-linejoin="round"/>
<path d="M480.98 23.7812H484.24" stroke="#444E59" stroke-width="4" stroke-miterlimit="10" stroke-linecap="round" stroke-linejoin="round"/>
<path d="M496.052 107.112H414.283C409.305 107.112 405.268 103.202 405.268 98.3804V60.0515C405.268 55.2301 409.304 51.3203 414.283 51.3203H496.052C501.031 51.3203 505.068 55.2291 505.068 60.0515V98.3804C505.068 103.202 501.031 107.112 496.052 107.112Z" fill="#780206"/>
<path d="M496.052 107.112H414.283C409.305 107.112 405.268 103.202 405.268 98.3804V60.0515C405.268 55.2301 409.304 51.3203 414.283 51.3203H496.052C501.031 51.3203 505.068 55.2291 505.068 60.0515V98.3804C505.068 103.202 501.031 107.112 496.052 107.112Z" stroke="#444E59" stroke-width="3" stroke-miterlimit="10" stroke-linecap="round" stroke-linejoin="round"/>
<path opacity="0.56" d="M455.168 66.3125H490.504" stroke="white" stroke-width="3" stroke-miterlimit="10" stroke-linecap="round" stroke-linejoin="round"/>
<path opacity="0.56" d="M455.168 77.3359H478.549" stroke="white" stroke-width="3" stroke-miterlimit="10" stroke-linecap="round" stroke-linejoin="round"/>
<g opacity="0.56">
<path opacity="0.56" d="M472.931 93.8633H458.655C456.729 93.8633 455.168 92.3512 455.168 90.4864C455.168 88.6216 456.729 87.1094 458.655 87.1094H472.931C474.856 87.1094 476.418 88.6216 476.418 90.4864C476.417 92.3512 474.856 93.8633 472.931 93.8633Z" fill="white"/>
<path opacity="0.56" d="M472.931 93.8633H458.655C456.729 93.8633 455.168 92.3512 455.168 90.4864C455.168 88.6216 456.729 87.1094 458.655 87.1094H472.931C474.856 87.1094 476.418 88.6216 476.418 90.4864C476.417 92.3512 474.856 93.8633 472.931 93.8633Z" stroke="white" stroke-width="3" stroke-miterlimit="10" stroke-linecap="round" stroke-linejoin="round"/>
</g>
<path d="M440.401 94.3647H421.673C418.995 94.3647 416.824 92.2629 416.824 89.6688V68.4849C416.824 65.8918 418.994 63.7891 421.673 63.7891H440.401C443.078 63.7891 445.249 65.8908 445.249 68.4849V89.6688C445.249 92.2629 443.078 94.3647 440.401 94.3647Z" stroke="white" stroke-width="3" stroke-miterlimit="10" stroke-linecap="round" stroke-linejoin="round"/>
<path d="M431.037 80.4693C433.804 80.4693 436.047 78.297 436.047 75.6174C436.047 72.9378 433.804 70.7656 431.037 70.7656C428.27 70.7656 426.028 72.9378 426.028 75.6174C426.028 78.297 428.27 80.4693 431.037 80.4693Z" stroke="white" stroke-width="3" stroke-miterlimit="10" stroke-linecap="round" stroke-linejoin="round"/>
<path d="M421.541 93.8681C421.541 88.7893 425.793 84.6719 431.037 84.6719C436.281 84.6719 440.532 88.7893 440.532 93.8681" stroke="white" stroke-width="3" stroke-miterlimit="10" stroke-linecap="round" stroke-linejoin="round"/>
</svg>
