<svg width="726" height="319" viewBox="0 0 726 319" fill="none" xmlns="http://www.w3.org/2000/svg">
<path opacity="0.28" d="M716.34 318.631H9.66024C4.46131 318.631 0.247559 314.55 0.247559 309.515C0.247559 304.479 4.46131 300.398 9.66024 300.398H716.34C721.539 300.398 725.753 304.479 725.753 309.515C725.753 314.549 721.538 318.631 716.34 318.631Z" fill="#848484"/>
<path d="M685.594 225.031C685.594 187.325 656.097 156.349 617.9 152.839V144.32H594.983V307.092H617.9V297.224C656.097 293.715 685.594 262.738 685.594 225.031ZM617.9 273.827V176.239C642.346 179.637 661.602 200.217 661.602 225.032C661.602 249.848 642.346 270.428 617.9 273.827Z" fill="#F09F54"/>
<path opacity="0.29" d="M617.9 152.839V144.32H594.983V307.092H617.9V297.224C656.097 293.715 685.594 262.739 685.594 225.032C685.594 187.326 656.097 156.349 617.9 152.839ZM617.9 289.77V298.214H596.511V151.718H617.9V160.294C651.514 163.441 678.604 191.219 678.604 225.03C678.604 258.844 651.514 286.622 617.9 289.77Z" fill="#F09F54"/>
<path d="M685.594 225.031C685.594 187.325 656.097 156.349 617.9 152.839V144.32H594.983V307.092H617.9V297.224C656.097 293.715 685.594 262.738 685.594 225.031ZM617.9 273.827V176.239C642.346 179.637 661.602 200.217 661.602 225.032C661.602 249.848 642.346 270.428 617.9 273.827Z" stroke="#444E59" stroke-width="4" stroke-miterlimit="10" stroke-linecap="round" stroke-linejoin="round"/>
<path d="M604.15 290.812H594.983" stroke="#444E59" stroke-width="3" stroke-miterlimit="10" stroke-linecap="round" stroke-linejoin="round"/>
<path d="M604.15 274.531H594.983" stroke="#444E59" stroke-width="3" stroke-miterlimit="10" stroke-linecap="round" stroke-linejoin="round"/>
<path d="M604.15 258.258H594.983" stroke="#444E59" stroke-width="3" stroke-miterlimit="10" stroke-linecap="round" stroke-linejoin="round"/>
<path d="M604.15 241.977H594.983" stroke="#444E59" stroke-width="3" stroke-miterlimit="10" stroke-linecap="round" stroke-linejoin="round"/>
<path d="M604.15 225.703H594.983" stroke="#444E59" stroke-width="3" stroke-miterlimit="10" stroke-linecap="round" stroke-linejoin="round"/>
<path d="M604.15 209.43H594.983" stroke="#444E59" stroke-width="3" stroke-miterlimit="10" stroke-linecap="round" stroke-linejoin="round"/>
<path d="M604.15 193.148H594.983" stroke="#444E59" stroke-width="3" stroke-miterlimit="10" stroke-linecap="round" stroke-linejoin="round"/>
<path d="M604.15 176.867H594.983" stroke="#444E59" stroke-width="3" stroke-miterlimit="10" stroke-linecap="round" stroke-linejoin="round"/>
<path d="M604.15 160.594H594.983" stroke="#444E59" stroke-width="3" stroke-miterlimit="10" stroke-linecap="round" stroke-linejoin="round"/>
<path d="M578.8 61.9453H544.202V306.707H578.8V61.9453Z" fill="#F09F54"/>
<path d="M578.8 61.9453H544.202V306.707H578.8V61.9453Z" fill="#F09F54"/>
<path opacity="0.29" d="M578.801 61.9453H563.758V306.707H578.801V61.9453Z" fill="#F09F54"/>
<path d="M578.8 61.9453H544.202V306.707H578.8V61.9453Z" stroke="#444E59" stroke-width="4" stroke-miterlimit="10" stroke-linecap="round" stroke-linejoin="round"/>
<path d="M556.236 281.945H544.202" stroke="#444E59" stroke-width="3" stroke-miterlimit="10" stroke-linecap="round" stroke-linejoin="round"/>
<path d="M551.723 293.602H544.202" stroke="#444E59" stroke-width="3" stroke-miterlimit="10" stroke-linecap="round" stroke-linejoin="round"/>
<path d="M556.236 258.633H544.202" stroke="#444E59" stroke-width="3" stroke-miterlimit="10" stroke-linecap="round" stroke-linejoin="round"/>
<path d="M551.723 270.281H544.202" stroke="#444E59" stroke-width="3" stroke-miterlimit="10" stroke-linecap="round" stroke-linejoin="round"/>
<path d="M556.236 235.32H544.202" stroke="#444E59" stroke-width="3" stroke-miterlimit="10" stroke-linecap="round" stroke-linejoin="round"/>
<path d="M551.723 246.977H544.202" stroke="#444E59" stroke-width="3" stroke-miterlimit="10" stroke-linecap="round" stroke-linejoin="round"/>
<path d="M556.236 212.008H544.202" stroke="#444E59" stroke-width="3" stroke-miterlimit="10" stroke-linecap="round" stroke-linejoin="round"/>
<path d="M551.723 223.672H544.202" stroke="#444E59" stroke-width="3" stroke-miterlimit="10" stroke-linecap="round" stroke-linejoin="round"/>
<path d="M556.236 188.703H544.202" stroke="#444E59" stroke-width="3" stroke-miterlimit="10" stroke-linecap="round" stroke-linejoin="round"/>
<path d="M551.723 200.359H544.202" stroke="#444E59" stroke-width="3" stroke-miterlimit="10" stroke-linecap="round" stroke-linejoin="round"/>
<path d="M556.236 165.391H544.202" stroke="#444E59" stroke-width="3" stroke-miterlimit="10" stroke-linecap="round" stroke-linejoin="round"/>
<path d="M551.723 177.047H544.202" stroke="#444E59" stroke-width="3" stroke-miterlimit="10" stroke-linecap="round" stroke-linejoin="round"/>
<path d="M556.236 142.078H544.202" stroke="#444E59" stroke-width="3" stroke-miterlimit="10" stroke-linecap="round" stroke-linejoin="round"/>
<path d="M551.723 153.734H544.202" stroke="#444E59" stroke-width="3" stroke-miterlimit="10" stroke-linecap="round" stroke-linejoin="round"/>
<path d="M556.236 118.766H544.202" stroke="#444E59" stroke-width="3" stroke-miterlimit="10" stroke-linecap="round" stroke-linejoin="round"/>
<path d="M551.723 130.43H544.202" stroke="#444E59" stroke-width="3" stroke-miterlimit="10" stroke-linecap="round" stroke-linejoin="round"/>
<path d="M556.236 95.4609H544.202" stroke="#444E59" stroke-width="3" stroke-miterlimit="10" stroke-linecap="round" stroke-linejoin="round"/>
<path d="M551.723 107.109H544.202" stroke="#444E59" stroke-width="3" stroke-miterlimit="10" stroke-linecap="round" stroke-linejoin="round"/>
<path d="M556.236 72.1484H544.202" stroke="#444E59" stroke-width="3" stroke-miterlimit="10" stroke-linecap="round" stroke-linejoin="round"/>
<path d="M551.723 83.8047H544.202" stroke="#444E59" stroke-width="3" stroke-miterlimit="10" stroke-linecap="round" stroke-linejoin="round"/>
<path d="M493.786 121.164H480.25V155.725H493.786V121.164Z" fill="#848484"/>
<path opacity="0.25" d="M485.25 121.164H480.25V155.725H485.25V121.164Z" fill="#848484"/>
<path d="M493.786 121.164H480.25V155.725H493.786V121.164Z" stroke="#444E59" stroke-width="4" stroke-miterlimit="10" stroke-linecap="round" stroke-linejoin="round"/>
<path d="M490.096 155.719H483.943V172.403H490.096V155.719Z" fill="white"/>
<path d="M490.096 155.719H483.943V172.403H490.096V155.719Z" stroke="#444E59" stroke-width="4" stroke-miterlimit="10" stroke-linecap="round" stroke-linejoin="round"/>
<path d="M476.618 187.391L445.249 306.594L492.915 188.951L476.618 187.391Z" fill="white"/>
<path d="M476.618 187.391L445.249 306.594L492.915 188.951L476.618 187.391Z" stroke="#444E59" stroke-width="4" stroke-miterlimit="10" stroke-linecap="round" stroke-linejoin="round"/>
<path d="M497.531 187.391L528.901 306.594L481.234 188.951L497.531 187.391Z" fill="white"/>
<path d="M497.531 187.391L528.901 306.594L481.234 188.951L497.531 187.391Z" stroke="#444E59" stroke-width="4" stroke-miterlimit="10" stroke-linecap="round" stroke-linejoin="round"/>
<path d="M487.08 210.722C498.633 210.722 507.998 201.651 507.998 190.462C507.998 179.274 498.633 170.203 487.08 170.203C475.527 170.203 466.162 179.274 466.162 190.462C466.162 201.651 475.527 210.722 487.08 210.722Z" fill="#71A850"/>
<path opacity="0.4" d="M471.997 190.462C471.997 180.235 479.829 171.801 489.997 170.423C489.041 170.293 488.073 170.203 487.079 170.203C475.527 170.203 466.161 179.274 466.161 190.462C466.161 201.651 475.527 210.722 487.079 210.722C488.072 210.722 489.041 210.632 489.997 210.502C479.83 209.124 471.997 200.689 471.997 190.462Z" fill="#71A850"/>
<path d="M487.08 210.722C498.633 210.722 507.998 201.651 507.998 190.462C507.998 179.274 498.633 170.203 487.08 170.203C475.527 170.203 466.162 179.274 466.162 190.462C466.162 201.651 475.527 210.722 487.08 210.722Z" stroke="#444E59" stroke-width="4" stroke-miterlimit="10" stroke-linecap="round" stroke-linejoin="round"/>
<path d="M487.08 197.32C490.994 197.32 494.167 194.248 494.167 190.457C494.167 186.666 490.994 183.594 487.08 183.594C483.167 183.594 479.994 186.666 479.994 190.457C479.994 194.248 483.167 197.32 487.08 197.32Z" fill="#444E59"/>
<path d="M487.08 197.32C490.994 197.32 494.167 194.248 494.167 190.457C494.167 186.666 490.994 183.594 487.08 183.594C483.167 183.594 479.994 186.666 479.994 190.457C479.994 194.248 483.167 197.32 487.08 197.32Z" stroke="#444E59" stroke-width="4" stroke-miterlimit="10" stroke-linecap="round" stroke-linejoin="round"/>
<path d="M411.544 306.341H273.491C265.405 306.341 258.85 299.992 258.85 292.161V16.6494C258.85 8.81765 265.405 2.46875 273.491 2.46875H411.544C419.631 2.46875 426.186 8.81765 426.186 16.6494V292.161C426.186 299.992 419.631 306.341 411.544 306.341Z" fill="#848484"/>
<path opacity="0.28" d="M411.544 2.46875H402.701C410.788 2.46875 417.343 8.81765 417.343 16.6494V292.161C417.343 299.992 410.788 306.341 402.701 306.341H411.544C419.631 306.341 426.186 299.992 426.186 292.161V16.6494C426.186 8.81765 419.631 2.46875 411.544 2.46875Z" fill="#848484"/>
<path opacity="0.48" d="M267.565 292.161V16.6494C267.565 8.81765 274.121 2.46875 282.206 2.46875H273.491C265.405 2.46875 258.85 8.81765 258.85 16.6494V292.161C258.85 299.992 265.405 306.341 273.491 306.341H282.206C274.121 306.341 267.565 299.992 267.565 292.161Z" fill="#848484"/>
<path d="M411.544 306.341H273.491C265.405 306.341 258.85 299.992 258.85 292.161V16.6494C258.85 8.81765 265.405 2.46875 273.491 2.46875H411.544C419.631 2.46875 426.186 8.81765 426.186 16.6494V292.161C426.186 299.992 419.631 306.341 411.544 306.341Z" stroke="#444E59" stroke-width="4" stroke-miterlimit="10" stroke-linecap="round" stroke-linejoin="round"/>
<path d="M426.186 267.384V40.4922H258.85V267.384H426.186Z" fill="#E9FBFF"/>
<path d="M425.324 113.573H412.271C405.173 113.573 399.419 107.999 399.419 101.125V70.2288C399.419 63.3543 405.173 57.7812 412.271 57.7812H425.324V113.573ZM268.419 238.835H258.85V140.306H268.419C275.623 140.306 281.463 145.963 281.463 152.939V226.203C281.463 233.179 275.623 238.835 268.419 238.835Z" fill="#C9C9C9"/>
<path d="M426.186 267.384V40.4922H258.85V267.384H426.186Z" stroke="#444E59" stroke-width="4" stroke-miterlimit="10" stroke-linecap="round" stroke-linejoin="round"/>
<path d="M365.526 22.7656H372.847" stroke="#444E59" stroke-width="5" stroke-miterlimit="10" stroke-linecap="round" stroke-linejoin="round"/>
<path d="M312.188 22.7656H354.022" stroke="#444E59" stroke-width="5" stroke-miterlimit="10" stroke-linecap="round" stroke-linejoin="round"/>
<path classname="smartbutton" opacity="0.29" d="M342.518 295.579C348.844 295.579 353.973 290.612 353.973 284.485C353.973 278.358 348.844 273.391 342.518 273.391C336.191 273.391 331.063 278.358 331.063 284.485C331.063 290.612 336.191 295.579 342.518 295.579Z" fill="#848484"/>
<path  classname="smartbutton" d="M342.518 292.997C347.371 292.997 351.306 289.187 351.306 284.487C351.306 279.787 347.371 275.977 342.518 275.977C337.665 275.977 333.731 279.787 333.731 284.487C333.731 289.187 337.665 292.997 342.518 292.997Z" fill="#444E59"/>
<g opacity="0.3">
<path opacity="0.3" d="M304.282 240.219H287.548C282.927 240.219 279.181 236.591 279.181 232.116V215.91C279.181 211.435 282.927 207.806 287.548 207.806H304.282C308.902 207.806 312.648 211.435 312.648 215.91V232.116C312.648 236.592 308.902 240.219 304.282 240.219ZM396.902 240.219H380.168C375.548 240.219 371.802 236.591 371.802 232.116V215.91C371.802 211.435 375.548 207.806 380.168 207.806H396.902C401.523 207.806 405.269 211.435 405.269 215.91V232.116C405.269 236.592 401.523 240.219 396.902 240.219ZM350.885 240.219H334.151C329.531 240.219 325.785 236.591 325.785 232.116V215.91C325.785 211.435 329.531 207.806 334.151 207.806H350.885C355.506 207.806 359.252 211.435 359.252 215.91V232.116C359.252 236.592 355.506 240.219 350.885 240.219ZM304.282 191.6H287.548C282.927 191.6 279.181 187.972 279.181 183.497V167.29C279.181 162.816 282.927 159.188 287.548 159.188H304.282C308.902 159.188 312.648 162.816 312.648 167.29V183.497C312.648 187.973 308.902 191.6 304.282 191.6ZM396.902 191.6H380.168C375.548 191.6 371.802 187.972 371.802 183.497V167.29C371.802 162.816 375.548 159.188 380.168 159.188H396.902C401.523 159.188 405.269 162.816 405.269 167.29V183.497C405.269 187.973 401.523 191.6 396.902 191.6ZM350.885 191.6H334.151C329.531 191.6 325.785 187.972 325.785 183.497V167.29C325.785 162.816 329.531 159.188 334.151 159.188H350.885C355.506 159.188 359.252 162.816 359.252 167.29V183.497C359.252 187.973 355.506 191.6 350.885 191.6Z" stroke="#444E59" stroke-width="2" stroke-linecap="round" stroke-linejoin="round" stroke-dasharray="4.08 4.08"/>
<g opacity="0.3">
<path opacity="0.3" d="M304.282 142.975H287.548C282.927 142.975 279.181 139.347 279.181 134.872V118.666C279.181 114.191 282.927 110.562 287.548 110.562H304.282C308.902 110.562 312.648 114.191 312.648 118.666V134.872C312.648 139.348 308.902 142.975 304.282 142.975ZM396.902 142.975H380.168C375.548 142.975 371.802 139.347 371.802 134.872V118.666C371.802 114.191 375.548 110.562 380.168 110.562H396.902C401.523 110.562 405.269 114.191 405.269 118.666V134.872C405.269 139.348 401.523 142.975 396.902 142.975ZM350.885 142.975H334.151C329.531 142.975 325.785 139.347 325.785 134.872V118.666C325.785 114.191 329.531 110.562 334.151 110.562H350.885C355.506 110.562 359.252 114.191 359.252 118.666V134.872C359.252 139.348 355.506 142.975 350.885 142.975Z" stroke="#444E59" stroke-width="2" stroke-linecap="round" stroke-linejoin="round" stroke-dasharray="4.08 4.08"/>
</g>
<g opacity="0.3">
<path opacity="0.3" d="M304.282 94.3583H287.548C282.927 94.3583 279.181 90.7302 279.181 86.2552V70.0486C279.181 65.5736 282.927 61.9453 287.548 61.9453H304.282C308.902 61.9453 312.648 65.5736 312.648 70.0486V86.2552C312.648 90.7311 308.902 94.3583 304.282 94.3583ZM396.902 94.3583H380.168C375.548 94.3583 371.802 90.7302 371.802 86.2552V70.0486C371.802 65.5736 375.548 61.9453 380.168 61.9453H396.902C401.523 61.9453 405.269 65.5736 405.269 70.0486V86.2552C405.269 90.7311 401.523 94.3583 396.902 94.3583ZM350.885 94.3583H334.151C329.531 94.3583 325.785 90.7302 325.785 86.2552V70.0486C325.785 65.5736 329.531 61.9453 334.151 61.9453H350.885C355.506 61.9453 359.252 65.5736 359.252 70.0486V86.2552C359.252 90.7311 355.506 94.3583 350.885 94.3583Z" stroke="#444E59" stroke-width="2" stroke-linecap="round" stroke-linejoin="round" stroke-dasharray="4.08 4.08"/>
</g>
</g>
<path d="M304.282 240.218H287.548C282.927 240.218 279.181 236.589 279.181 232.115V215.909C279.181 211.433 282.927 207.805 287.548 207.805H304.282C308.902 207.805 312.648 211.433 312.648 215.909V232.115C312.648 236.59 308.902 240.218 304.282 240.218Z" fill="#71A850"/>
<path opacity="0.52" d="M304.276 207.805H287.543C284.192 207.805 281.308 209.719 279.973 212.473L312.643 218.171V215.908C312.643 211.433 308.898 207.805 304.276 207.805Z" fill="#5F8C42"/>
<path d="M304.282 240.218H287.548C282.927 240.218 279.181 236.589 279.181 232.115V215.909C279.181 211.433 282.927 207.805 287.548 207.805H304.282C308.902 207.805 312.648 211.433 312.648 215.909V232.115C312.648 236.59 308.902 240.218 304.282 240.218Z" stroke="#444E59" stroke-width="4" stroke-miterlimit="10" stroke-linecap="round" stroke-linejoin="round"/>
<path d="M350.885 240.218H334.151C329.531 240.218 325.785 236.589 325.785 232.115V215.909C325.785 211.433 329.531 207.805 334.151 207.805H350.885C355.506 207.805 359.252 211.433 359.252 215.909V232.115C359.252 236.59 355.506 240.218 350.885 240.218Z" fill="#F09F54"/>
<path opacity="0.52" d="M350.885 207.805H334.151C330.8 207.805 327.917 209.719 326.581 212.473L359.252 218.171V215.908C359.252 211.433 355.506 207.805 350.885 207.805Z" fill="#D38444"/>
<path d="M350.885 240.218H334.151C329.531 240.218 325.785 236.589 325.785 232.115V215.909C325.785 211.433 329.531 207.805 334.151 207.805H350.885C355.506 207.805 359.252 211.433 359.252 215.909V232.115C359.252 236.59 355.506 240.218 350.885 240.218Z" stroke="#444E59" stroke-width="4" stroke-miterlimit="10" stroke-linecap="round" stroke-linejoin="round"/>
<path d="M396.902 191.6H380.168C375.548 191.6 371.802 187.972 371.802 183.497V167.29C371.802 162.816 375.548 159.188 380.168 159.188H396.902C401.523 159.188 405.269 162.816 405.269 167.29V183.497C405.269 187.973 401.523 191.6 396.902 191.6Z" fill="#2FA9ED"/>
<path opacity="0.52" d="M396.902 159.188H380.168C376.817 159.188 373.935 161.101 372.599 163.856L405.269 169.554V167.29C405.269 162.816 401.523 159.188 396.902 159.188Z" fill="#288FBC"/>
<path d="M396.902 191.6H380.168C375.548 191.6 371.802 187.972 371.802 183.497V167.29C371.802 162.816 375.548 159.188 380.168 159.188H396.902C401.523 159.188 405.269 162.816 405.269 167.29V183.497C405.269 187.973 401.523 191.6 396.902 191.6Z" stroke="#444E59" stroke-width="4" stroke-miterlimit="10" stroke-linecap="round" stroke-linejoin="round"/>
<path d="M350.885 142.975H334.151C329.531 142.975 325.785 139.347 325.785 134.872V118.666C325.785 114.191 329.531 110.562 334.151 110.562H350.885C355.506 110.562 359.252 114.191 359.252 118.666V134.872C359.252 139.348 355.506 142.975 350.885 142.975Z" fill="#E7534E"/>
<path opacity="0.52" d="M350.885 110.562H334.151C330.8 110.562 327.917 112.477 326.581 115.231L359.252 120.929V118.665C359.252 114.191 355.506 110.562 350.885 110.562Z" fill="#BF4040"/>
<path d="M350.885 142.975H334.151C329.531 142.975 325.785 139.347 325.785 134.872V118.666C325.785 114.191 329.531 110.562 334.151 110.562H350.885C355.506 110.562 359.252 114.191 359.252 118.666V134.872C359.252 139.348 355.506 142.975 350.885 142.975Z" stroke="#444E59" stroke-width="4" stroke-miterlimit="10" stroke-linecap="round" stroke-linejoin="round"/>
<path d="M385.811 168.28L395.427 173.657C396.81 174.431 396.81 176.365 395.427 177.137L385.811 182.514C384.428 183.288 382.699 182.32 382.699 180.773V170.021C382.699 168.474 384.428 167.506 385.811 168.28ZM346.925 217.729H338.109C336.238 217.729 334.719 219.198 334.719 221.012V227.279C334.719 229.092 336.237 230.562 338.109 230.562H338.377L337.647 233.396C337.594 233.602 337.835 233.763 338.016 233.639L342.473 230.563H346.925C348.798 230.563 350.316 229.094 350.316 227.28V221.013C350.316 219.198 348.798 217.729 346.925 217.729Z" fill="white"/>
<path d="M289.516 223.995L293.359 227.716C293.884 228.226 294.738 228.226 295.265 227.716L303.903 219.352" stroke="white" stroke-width="4" stroke-miterlimit="10" stroke-linecap="round" stroke-linejoin="round"/>
<path d="M342.518 134.331C346.824 134.331 350.316 130.95 350.316 126.779C350.316 122.608 346.824 119.227 342.518 119.227C338.211 119.227 334.721 122.608 334.721 126.779C334.721 130.95 338.211 134.331 342.518 134.331Z" stroke="white" stroke-width="4" stroke-miterlimit="10" stroke-linecap="round" stroke-linejoin="round"/>
<path classname="gear" d="M279.365 87.3107L279.199 72.1546L268.722 72.2619C268.13 70.3728 267.336 68.5708 266.355 66.8833L273.685 59.634L262.501 49.0299L255.172 56.2792C253.41 55.3656 251.533 54.6343 249.571 54.1015L249.46 43.9531L233.811 44.1132L233.922 54.2625C231.971 54.8359 230.11 55.6046 228.368 56.5537L220.882 49.4552L209.933 60.2863L217.418 67.3847C216.475 69.0915 215.72 70.9097 215.17 72.8099L204.691 72.9173L204.856 88.0733L215.336 87.966C215.926 89.8551 216.722 91.657 217.701 93.3445L210.372 100.593L221.554 111.198L228.883 103.948C230.647 104.863 232.524 105.594 234.487 106.126L234.598 116.276L250.247 116.116L250.136 105.967C252.086 105.395 253.946 104.625 255.689 103.676L263.175 110.774L274.124 99.9419L266.639 92.8431C267.581 91.1364 268.337 89.3182 268.887 87.418L279.365 87.3107ZM242.157 91.9437C235.411 92.0126 229.883 86.7717 229.812 80.2385C229.742 73.7053 235.153 68.3521 241.899 68.2831C248.644 68.2143 254.171 73.4551 254.243 79.9883C254.315 86.5226 248.904 91.8748 242.157 91.9437Z" fill="white"/>
<path classname="gear" d="M279.365 87.3107L279.199 72.1546L268.722 72.2619C268.13 70.3728 267.336 68.5708 266.355 66.8833L273.685 59.634L262.501 49.0299L255.172 56.2792C253.41 55.3656 251.533 54.6343 249.571 54.1015L249.46 43.9531L233.811 44.1132L233.922 54.2625C231.971 54.8359 230.11 55.6046 228.368 56.5537L220.882 49.4552L209.933 60.2863L217.418 67.3847C216.475 69.0915 215.72 70.9097 215.17 72.8099L204.691 72.9173L204.856 88.0733L215.336 87.966C215.926 89.8551 216.722 91.657 217.701 93.3445L210.372 100.593L221.554 111.198L228.883 103.948C230.647 104.863 232.524 105.594 234.487 106.126L234.598 116.276L250.247 116.116L250.136 105.967C252.086 105.395 253.946 104.625 255.689 103.676L263.175 110.774L274.124 99.9419L266.639 92.8431C267.581 91.1364 268.337 89.3182 268.887 87.418L279.365 87.3107ZM242.157 91.9437C235.411 92.0126 229.883 86.7717 229.812 80.2385C229.742 73.7053 235.153 68.3521 241.899 68.2831C248.644 68.2143 254.171 73.4551 254.243 79.9883C254.315 86.5226 248.904 91.8748 242.157 91.9437Z" fill="#F09F54"/>
<path classname="gear" d="M279.365 87.3107L279.199 72.1546L268.722 72.2619C268.13 70.3728 267.336 68.5708 266.355 66.8833L273.685 59.634L262.501 49.0299L255.172 56.2792C253.41 55.3656 251.533 54.6343 249.571 54.1015L249.46 43.9531L233.811 44.1132L233.922 54.2625C231.971 54.8359 230.11 55.6046 228.368 56.5537L220.882 49.4552L209.933 60.2863L217.418 67.3847C216.475 69.0915 215.72 70.9097 215.17 72.8099L204.691 72.9173L204.856 88.0733L215.336 87.966C215.926 89.8551 216.722 91.657 217.701 93.3445L210.372 100.593L221.554 111.198L228.883 103.948C230.647 104.863 232.524 105.594 234.487 106.126L234.598 116.276L250.247 116.116L250.136 105.967C252.086 105.395 253.946 104.625 255.689 103.676L263.175 110.774L274.124 99.9419L266.639 92.8431C267.581 91.1364 268.337 89.3182 268.887 87.418L279.365 87.3107ZM242.157 91.9437C235.411 92.0126 229.883 86.7717 229.812 80.2385C229.742 73.7053 235.153 68.3521 241.899 68.2831C248.644 68.2143 254.171 73.4551 254.243 79.9883C254.315 86.5226 248.904 91.8748 242.157 91.9437Z" fill="#F09F54"/>
<g opacity="0.29">
<path classname="gear" opacity="0.29" d="M275.313 72.195C275.32 72.2173 275.328 72.2396 275.335 72.2619L279.201 72.2223L279.199 72.1545L275.313 72.195ZM261.787 56.2802L265.878 52.2327L262.5 49.0299L257.097 54.376C258.728 54.8774 260.3 55.5095 261.787 56.2802ZM248.514 68.2842C247.414 68.2953 246.357 68.4594 245.346 68.7339C250.43 70.1226 254.185 74.6148 254.243 79.9903C254.303 85.4601 250.514 90.0891 245.323 91.496C246.418 91.7958 247.574 91.9579 248.771 91.9457C255.517 91.8768 260.928 86.5246 260.857 79.9903C260.786 73.4561 255.261 68.2153 248.514 68.2842ZM232.91 54.5886L234.983 56.5537C236.725 55.6036 238.585 54.8348 240.536 54.2625L240.425 44.1132L249.46 44.021L249.459 43.9531L233.81 44.1132L233.921 54.2625C233.58 54.3628 233.246 54.4762 232.91 54.5886ZM241.1 106.125C239.138 105.593 237.261 104.862 235.498 103.947L233.573 105.852C233.877 105.945 234.178 106.043 234.486 106.125L234.597 116.275L241.21 116.207L241.1 106.125ZM211.306 72.9173L221.784 72.8098C222.335 70.9097 223.089 69.0915 224.034 67.3847L216.548 60.2863L224.259 52.658L220.882 49.4552L209.933 60.2863L217.418 67.3847C216.475 69.0915 215.72 70.9097 215.17 72.8098L204.691 72.9173L204.856 88.0733L211.471 88.0055L211.306 72.9173ZM262.303 103.674C260.865 104.458 259.343 105.111 257.761 105.639L263.175 110.772L266.412 107.57L262.303 103.674ZM216.987 100.593L224.317 93.3445C223.335 91.657 222.542 89.855 221.951 87.966L215.36 88.0328C215.949 89.8966 216.734 91.6763 217.702 93.3435L210.373 100.592L221.555 111.197L224.793 107.994L216.987 100.593Z" fill="#F09F54"/>
</g>
<path classname="gear" d="M279.365 87.3107L279.199 72.1546L268.722 72.2619C268.13 70.3728 267.336 68.5708 266.355 66.8833L273.685 59.634L262.501 49.0299L255.172 56.2792C253.41 55.3656 251.533 54.6343 249.571 54.1015L249.46 43.9531L233.811 44.1132L233.922 54.2625C231.971 54.8359 230.11 55.6046 228.368 56.5537L220.882 49.4552L209.933 60.2863L217.418 67.3847C216.475 69.0915 215.72 70.9097 215.17 72.8099L204.691 72.9173L204.856 88.0733L215.336 87.966C215.926 89.8551 216.722 91.657 217.701 93.3445L210.372 100.593L221.554 111.198L228.883 103.948C230.647 104.863 232.524 105.594 234.487 106.126L234.598 116.276L250.247 116.116L250.136 105.967C252.086 105.395 253.946 104.625 255.689 103.676L263.175 110.774L274.124 99.9419L266.639 92.8431C267.581 91.1364 268.337 89.3182 268.887 87.418L279.365 87.3107ZM242.157 91.9437C235.411 92.0126 229.883 86.7717 229.812 80.2385C229.742 73.7053 235.153 68.3521 241.899 68.2831C248.644 68.2143 254.171 73.4551 254.243 79.9883C254.315 86.5226 248.904 91.8748 242.157 91.9437Z" stroke="#444E59" stroke-width="4" stroke-miterlimit="10" stroke-linecap="round" stroke-linejoin="round"/>
<path d="M213.998 306.343H84.5675C80.3171 306.343 76.8711 303.006 76.8711 298.889V213.157C76.8711 209.041 80.3171 205.703 84.5675 205.703H213.999C218.25 205.703 221.696 209.041 221.696 213.157V298.889C221.696 303.006 218.25 306.343 213.998 306.343Z" fill="#444E59"/>
<path d="M221.696 221.991H76.8711V213.157C76.8711 209.041 80.3171 205.703 84.5675 205.703H213.998C218.25 205.703 221.696 209.041 221.696 213.158V221.991Z" fill="#BCBCBC"/>
<path d="M213.998 306.343H84.5675C80.3171 306.343 76.8711 303.006 76.8711 298.889V213.157C76.8711 209.041 80.3171 205.703 84.5675 205.703H213.999C218.25 205.703 221.696 209.041 221.696 213.157V298.889C221.696 303.006 218.25 306.343 213.998 306.343Z" stroke="#444E59" stroke-width="4" stroke-miterlimit="10" stroke-linecap="round" stroke-linejoin="round"/>
<path d="M213.998 306.343H84.5675C80.3171 306.343 76.8711 303.006 76.8711 298.889V213.157C76.8711 209.041 80.3171 205.703 84.5675 205.703H213.999C218.25 205.703 221.696 209.041 221.696 213.157V298.889C221.696 303.006 218.25 306.343 213.998 306.343Z" stroke="#444E59" stroke-width="4" stroke-miterlimit="10" stroke-linecap="round" stroke-linejoin="round"/>
<path d="M221.696 221.991H76.8711V213.157C76.8711 209.041 80.3171 205.703 84.5675 205.703H213.998C218.25 205.703 221.696 209.041 221.696 213.158V221.991Z" stroke="#444E59" stroke-width="4" stroke-miterlimit="10" stroke-linecap="round" stroke-linejoin="round"/>
<path d="M96.8719 293.5H113.166" stroke="white" stroke-width="4" stroke-miterlimit="10" stroke-linecap="round" stroke-linejoin="round"/>
<path d="M85.3331 293.5H86.4699" stroke="white" stroke-width="4" stroke-miterlimit="10" stroke-linecap="round" stroke-linejoin="round"/>
<path d="M96.8719 284.766H138.166" stroke="white" stroke-width="4" stroke-miterlimit="10" stroke-linecap="round" stroke-linejoin="round"/>
<path d="M85.3331 284.766H86.4699" stroke="white" stroke-width="4" stroke-miterlimit="10" stroke-linecap="round" stroke-linejoin="round"/>
<path d="M157.831 276.023H169.067" stroke="#64BDFF" stroke-width="4" stroke-miterlimit="10" stroke-linecap="round" stroke-linejoin="round"/>
<path d="M127.07 276.023H147.999" stroke="white" stroke-width="4" stroke-miterlimit="10" stroke-linecap="round" stroke-linejoin="round"/>
<path d="M96.8719 276.023H117.519" stroke="#FF5F5F" stroke-width="4" stroke-miterlimit="10" stroke-linecap="round" stroke-linejoin="round"/>
<path d="M85.3331 276.023H86.4699" stroke="white" stroke-width="4" stroke-miterlimit="10" stroke-linecap="round" stroke-linejoin="round"/>
<path d="M131.705 267.289H182.076" stroke="white" stroke-width="4" stroke-miterlimit="10" stroke-linecap="round" stroke-linejoin="round"/>
<path d="M96.8719 267.289H123.138" stroke="#64BDFF" stroke-width="4" stroke-miterlimit="10" stroke-linecap="round" stroke-linejoin="round"/>
<path d="M85.3331 267.289H86.4699" stroke="white" stroke-width="4" stroke-miterlimit="10" stroke-linecap="round" stroke-linejoin="round"/>
<path d="M131.705 258.562H150.526" stroke="#FF5F5F" stroke-width="4" stroke-miterlimit="10" stroke-linecap="round" stroke-linejoin="round"/>
<path d="M96.8719 258.562H123.138" stroke="#FFBE78" stroke-width="4" stroke-miterlimit="10" stroke-linecap="round" stroke-linejoin="round"/>
<path d="M85.3331 258.562H86.4699" stroke="white" stroke-width="4" stroke-miterlimit="10" stroke-linecap="round" stroke-linejoin="round"/>
<path d="M135.358 249.828H140.414" stroke="#64BDFF" stroke-width="4" stroke-miterlimit="10" stroke-linecap="round" stroke-linejoin="round"/>
<path d="M115.413 249.828H127.071" stroke="#FF5F5F" stroke-width="4" stroke-miterlimit="10" stroke-linecap="round" stroke-linejoin="round"/>
<path d="M96.8719 249.828H106.423" stroke="#C383F2" stroke-width="4" stroke-miterlimit="10" stroke-linecap="round" stroke-linejoin="round"/>
<path d="M85.3331 249.828H86.4699" stroke="white" stroke-width="4" stroke-miterlimit="10" stroke-linecap="round" stroke-linejoin="round"/>
<path d="M173.001 241.086H182.076" stroke="#64BDFF" stroke-width="4" stroke-miterlimit="10" stroke-linecap="round" stroke-linejoin="round"/>
<path d="M125.807 241.086H161.484" stroke="#FF5F5F" stroke-width="4" stroke-miterlimit="10" stroke-linecap="round" stroke-linejoin="round"/>
<path d="M96.8719 241.086H118.081" stroke="#FFBE78" stroke-width="4" stroke-miterlimit="10" stroke-linecap="round" stroke-linejoin="round"/>
<path d="M85.3331 241.086H86.4699" stroke="white" stroke-width="4" stroke-miterlimit="10" stroke-linecap="round" stroke-linejoin="round"/>
<path d="M150.526 232.352H169.067" stroke="#FFBE78" stroke-width="4" stroke-miterlimit="10" stroke-linecap="round" stroke-linejoin="round"/>
<path d="M127.071 232.352H141.538" stroke="#6DBF7B" stroke-width="4" stroke-miterlimit="10" stroke-linecap="round" stroke-linejoin="round"/>
<path d="M111.34 232.352H119.487" stroke="#FFBE78" stroke-width="4" stroke-miterlimit="10" stroke-linecap="round" stroke-linejoin="round"/>
<path d="M96.8719 232.352H103.474" stroke="#6DBF7B" stroke-width="4" stroke-miterlimit="10" stroke-linecap="round" stroke-linejoin="round"/>
<path d="M85.3331 232.352H86.4699" stroke="white" stroke-width="4" stroke-miterlimit="10" stroke-linecap="round" stroke-linejoin="round"/>
<path d="M91.1491 216.407C92.6128 216.407 93.7993 215.259 93.7993 213.841C93.7993 212.423 92.6128 211.273 91.1491 211.273C89.6854 211.273 88.4989 212.423 88.4989 213.841C88.4989 215.259 89.6854 216.407 91.1491 216.407Z" fill="#E7534E"/>
<path d="M100.638 216.407C102.101 216.407 103.289 215.259 103.289 213.841C103.289 212.423 102.101 211.273 100.638 211.273C99.1745 211.273 97.9879 212.423 97.9879 213.841C97.9879 215.259 99.1745 216.407 100.638 216.407Z" fill="#444E59"/>
<path d="M110.127 216.407C111.591 216.407 112.777 215.259 112.777 213.841C112.777 212.423 111.591 211.273 110.127 211.273C108.664 211.273 107.477 212.423 107.477 213.841C107.477 215.259 108.664 216.407 110.127 216.407Z" fill="#444E59"/>
<path d="M265.511 230.916H171.817C167.196 230.916 163.45 227.288 163.45 222.813V140.915C163.45 136.441 167.196 132.812 171.817 132.812H265.511C270.132 132.812 273.878 136.441 273.878 140.915V222.812C273.878 227.288 270.132 230.916 265.511 230.916Z" fill="white"/>
<path d="M265.511 230.916H171.817C167.196 230.916 163.45 227.288 163.45 222.813V140.915C163.45 136.441 167.196 132.812 171.817 132.812H265.511C270.132 132.812 273.878 136.441 273.878 140.915V222.812C273.878 227.288 270.132 230.916 265.511 230.916Z" fill="white"/>
<path d="M265.511 230.916H171.817C167.196 230.916 163.45 227.288 163.45 222.813V140.915C163.45 136.441 167.196 132.812 171.817 132.812H265.511C270.132 132.812 273.878 136.441 273.878 140.915V222.812C273.878 227.288 270.132 230.916 265.511 230.916Z" stroke="#444E59" stroke-width="4" stroke-miterlimit="10" stroke-linecap="round" stroke-linejoin="round"/>
<path d="M263.729 141.102H173.001V199.513H263.729V141.102Z" fill="#9483C4"/>
<path d="M263.729 141.102H173.001V199.513H263.729V141.102Z" stroke="#444E59" stroke-width="4" stroke-miterlimit="10" stroke-linecap="round" stroke-linejoin="round"/>
<path d="M173.001 208.82H230.262" stroke="#444E59" stroke-width="4" stroke-miterlimit="10" stroke-linecap="round" stroke-linejoin="round"/>
<path d="M173.001 218.18H206.905" stroke="#444E59" stroke-width="4" stroke-miterlimit="10" stroke-linecap="round" stroke-linejoin="round"/>
<path d="M182.076 189.052L201.632 170.312L219.821 187.93" stroke="#444E59" stroke-width="4" stroke-miterlimit="10" stroke-linecap="round" stroke-linejoin="round"/>
<path d="M253.969 189.046L230.262 159.188L211.306 179.677" stroke="#444E59" stroke-width="4" stroke-miterlimit="10" stroke-linecap="round" stroke-linejoin="round"/>
<path d="M253.716 218.042C256.551 218.042 258.849 215.817 258.849 213.072C258.849 210.327 256.551 208.102 253.716 208.102C250.882 208.102 248.584 210.327 248.584 213.072C248.584 215.817 250.882 218.042 253.716 218.042Z" stroke="#444E59" stroke-width="4" stroke-miterlimit="10" stroke-linecap="round" stroke-linejoin="round"/>
<path d="M207.387 165.455C210.943 165.455 213.826 162.664 213.826 159.22C213.826 155.776 210.943 152.984 207.387 152.984C203.832 152.984 200.949 155.776 200.949 159.22C200.949 162.664 203.832 165.455 207.387 165.455Z" fill="#F09F54"/>
<path d="M207.387 165.455C210.943 165.455 213.826 162.664 213.826 159.22C213.826 155.776 210.943 152.984 207.387 152.984C203.832 152.984 200.949 155.776 200.949 159.22C200.949 162.664 203.832 165.455 207.387 165.455Z" stroke="#444E59" stroke-width="4" stroke-miterlimit="10" stroke-linecap="round" stroke-linejoin="round"/>
<path d="M161.687 103.906H189.692" stroke="#444E59" stroke-width="4" stroke-miterlimit="10" stroke-linecap="round" stroke-linejoin="round"/>
<path d="M146.746 103.906H154.144" stroke="#444E59" stroke-width="4" stroke-miterlimit="10" stroke-linecap="round" stroke-linejoin="round"/>
<path d="M175.69 91.3281H189.692" stroke="#444E59" stroke-width="4" stroke-miterlimit="10" stroke-linecap="round" stroke-linejoin="round"/>
<path d="M164.417 91.3281H168.6" stroke="#444E59" stroke-width="4" stroke-miterlimit="10" stroke-linecap="round" stroke-linejoin="round"/>
<path d="M131.356 183.336H153.179" stroke="#444E59" stroke-width="4" stroke-miterlimit="10" stroke-linecap="round" stroke-linejoin="round"/>
<path d="M119.715 183.336H125.479" stroke="#444E59" stroke-width="4" stroke-miterlimit="10" stroke-linecap="round" stroke-linejoin="round"/>
<path d="M144.279 170.75H153.179" stroke="#444E59" stroke-width="4" stroke-miterlimit="10" stroke-linecap="round" stroke-linejoin="round"/>
<path d="M133.484 170.75H136.743" stroke="#444E59" stroke-width="4" stroke-miterlimit="10" stroke-linecap="round" stroke-linejoin="round"/>
<path d="M479.898 36.3594H500.674" stroke="#444E59" stroke-width="4" stroke-miterlimit="10" stroke-linecap="round" stroke-linejoin="round"/>
<path d="M467.21 36.3594H472.975" stroke="#444E59" stroke-width="4" stroke-miterlimit="10" stroke-linecap="round" stroke-linejoin="round"/>
<path d="M491.774 23.7812H500.674" stroke="#444E59" stroke-width="4" stroke-miterlimit="10" stroke-linecap="round" stroke-linejoin="round"/>
<path d="M480.98 23.7812H484.24" stroke="#444E59" stroke-width="4" stroke-miterlimit="10" stroke-linecap="round" stroke-linejoin="round"/>
<path d="M496.052 107.112H414.283C409.305 107.112 405.268 103.202 405.268 98.3804V60.0515C405.268 55.2301 409.304 51.3203 414.283 51.3203H496.052C501.031 51.3203 505.068 55.2291 505.068 60.0515V98.3804C505.068 103.202 501.031 107.112 496.052 107.112Z" fill="#780206"/>
<path d="M496.052 107.112H414.283C409.305 107.112 405.268 103.202 405.268 98.3804V60.0515C405.268 55.2301 409.304 51.3203 414.283 51.3203H496.052C501.031 51.3203 505.068 55.2291 505.068 60.0515V98.3804C505.068 103.202 501.031 107.112 496.052 107.112Z" stroke="#444E59" stroke-width="3" stroke-miterlimit="10" stroke-linecap="round" stroke-linejoin="round"/>
<path opacity="0.56" d="M455.168 66.3125H490.504" stroke="white" stroke-width="3" stroke-miterlimit="10" stroke-linecap="round" stroke-linejoin="round"/>
<path opacity="0.56" d="M455.168 77.3359H478.549" stroke="white" stroke-width="3" stroke-miterlimit="10" stroke-linecap="round" stroke-linejoin="round"/>
<g opacity="0.56">
<path opacity="0.56" d="M472.931 93.8633H458.655C456.729 93.8633 455.168 92.3512 455.168 90.4864C455.168 88.6216 456.729 87.1094 458.655 87.1094H472.931C474.856 87.1094 476.418 88.6216 476.418 90.4864C476.417 92.3512 474.856 93.8633 472.931 93.8633Z" fill="white"/>
<path opacity="0.56" d="M472.931 93.8633H458.655C456.729 93.8633 455.168 92.3512 455.168 90.4864C455.168 88.6216 456.729 87.1094 458.655 87.1094H472.931C474.856 87.1094 476.418 88.6216 476.418 90.4864C476.417 92.3512 474.856 93.8633 472.931 93.8633Z" stroke="white" stroke-width="3" stroke-miterlimit="10" stroke-linecap="round" stroke-linejoin="round"/>
</g>
<path d="M440.401 94.3647H421.673C418.995 94.3647 416.824 92.2629 416.824 89.6688V68.4849C416.824 65.8918 418.994 63.7891 421.673 63.7891H440.401C443.078 63.7891 445.249 65.8908 445.249 68.4849V89.6688C445.249 92.2629 443.078 94.3647 440.401 94.3647Z" stroke="white" stroke-width="3" stroke-miterlimit="10" stroke-linecap="round" stroke-linejoin="round"/>
<path d="M431.037 80.4693C433.804 80.4693 436.047 78.297 436.047 75.6174C436.047 72.9378 433.804 70.7656 431.037 70.7656C428.27 70.7656 426.028 72.9378 426.028 75.6174C426.028 78.297 428.27 80.4693 431.037 80.4693Z" stroke="white" stroke-width="3" stroke-miterlimit="10" stroke-linecap="round" stroke-linejoin="round"/>
<path d="M421.541 93.8681C421.541 88.7893 425.793 84.6719 431.037 84.6719C436.281 84.6719 440.532 88.7893 440.532 93.8681" stroke="white" stroke-width="3" stroke-miterlimit="10" stroke-linecap="round" stroke-linejoin="round"/>
<path class="phonename" d="M287.039 70.8828C286.898 70.6953 286.781 70.4688 286.688 70.2031C286.609 69.9375 286.547 69.6562 286.5 69.3594C286.453 69.0625 286.414 68.7578 286.383 68.4453C286.367 68.1328 286.352 67.8359 286.336 67.5547L286.195 64.7422C286.148 64.2891 286.109 63.9453 286.078 63.7109C286.062 63.4766 286.039 63.2422 286.008 63.0078C285.992 62.7578 285.977 62.4609 285.961 62.1172C285.961 61.7578 285.961 61.2344 285.961 60.5469C285.961 60.3125 285.953 60.0859 285.938 59.8672C285.938 59.6484 285.938 59.4297 285.938 59.2109C285.938 58.6484 286.078 58.2656 286.359 58.0625C286.656 57.8438 287.031 57.7344 287.484 57.7344C287.75 57.7344 288.031 57.75 288.328 57.7812C288.625 57.7969 288.922 57.8047 289.219 57.8047C289.766 57.8047 290.305 57.7344 290.836 57.5938C291.367 57.4375 291.883 57.3125 292.383 57.2188C292.695 57.2188 292.961 57.3047 293.18 57.4766C293.398 57.6328 293.508 57.8281 293.508 58.0625C293.508 58.2812 293.438 58.5 293.297 58.7188C293.156 58.9219 292.93 59.0547 292.617 59.1172C292.008 59.2422 291.383 59.3828 290.742 59.5391C290.102 59.6953 289.453 59.7734 288.797 59.7734C288.625 59.7734 288.453 59.7734 288.281 59.7734C288.109 59.7734 287.961 59.7578 287.836 59.7266C287.852 60.3203 287.867 60.8906 287.883 61.4375C287.898 61.9844 287.922 62.5156 287.953 63.0312H287.977C289.164 62.9062 290.281 62.8359 291.328 62.8203C292.375 62.7891 293.484 62.7734 294.656 62.7734C295.234 62.9297 295.523 63.25 295.523 63.7344C295.523 63.9531 295.438 64.1562 295.266 64.3438C295.109 64.5156 294.891 64.625 294.609 64.6719C294.484 64.6719 294.234 64.6719 293.859 64.6719C293.5 64.6719 293.078 64.6797 292.594 64.6953C292.109 64.6953 291.602 64.7031 291.07 64.7188C290.539 64.7188 290.047 64.7344 289.594 64.7656C289.156 64.7812 288.789 64.8047 288.492 64.8359C288.211 64.8672 288.07 64.9062 288.07 64.9531C288.07 65.6562 288.109 66.3594 288.188 67.0625C288.281 67.75 288.359 68.4297 288.422 69.1016C288.844 68.9453 289.305 68.8125 289.805 68.7031C290.305 68.5781 290.82 68.4844 291.352 68.4219C291.898 68.3594 292.453 68.3125 293.016 68.2812C293.578 68.25 294.125 68.2344 294.656 68.2344C294.969 68.3594 295.188 68.5078 295.312 68.6797C295.453 68.8359 295.523 69.0156 295.523 69.2188C295.523 69.4375 295.438 69.6406 295.266 69.8281C295.109 70 294.891 70.1094 294.609 70.1562C293.891 70.1562 293.141 70.2109 292.359 70.3203C291.578 70.4141 290.852 70.5312 290.18 70.6719C289.523 70.7969 288.961 70.9062 288.492 71C288.023 71.1094 287.742 71.1641 287.648 71.1641C287.57 71.1641 287.477 71.1328 287.367 71.0703C287.273 71.0234 287.164 70.9609 287.039 70.8828ZM298.148 70.3203C298.148 69.8984 298.156 69.4609 298.172 69.0078C298.203 68.5547 298.258 68.125 298.336 67.7188L298.5 65.9844L298.711 64.7188C298.758 64.5156 298.781 64.3281 298.781 64.1562C298.781 63.9688 298.742 63.7734 298.664 63.5703C298.602 63.3672 298.422 63.2656 298.125 63.2656C298 63.2656 297.875 63.2344 297.75 63.1719C297.641 63.0938 297.539 63.0078 297.445 62.9141C297.352 62.8047 297.273 62.6953 297.211 62.5859C297.164 62.4766 297.141 62.375 297.141 62.2812C297.141 62.0938 297.234 61.8906 297.422 61.6719C297.609 61.4531 297.867 61.3438 298.195 61.3438C299.008 61.4219 299.602 61.6484 299.977 62.0234C300.352 62.3984 300.539 62.8594 300.539 63.4062C301.008 63.0781 301.555 62.8359 302.18 62.6797C302.805 62.5078 303.547 62.3906 304.406 62.3281C304.75 62.3281 305.016 62.4219 305.203 62.6094C305.391 62.7812 305.484 63 305.484 63.2656C305.484 63.5 305.406 63.7109 305.25 63.8984C305.094 64.0703 304.883 64.1797 304.617 64.2266C303.898 64.2734 303.289 64.3516 302.789 64.4609C302.289 64.5703 301.867 64.75 301.523 65C301.18 65.2344 300.914 65.5547 300.727 65.9609C300.539 66.3672 300.398 66.8906 300.305 67.5312L300.234 67.8828V68.8438C300.219 69.0781 300.203 69.3203 300.188 69.5703C300.188 69.8047 300.172 70.0469 300.141 70.2969L300.07 70.7188L299.93 71.0938C299.68 71.3906 299.391 71.5391 299.062 71.5391C298.5 71.5391 298.195 71.2109 298.148 70.5547V70.3203ZM307.055 62.7266C307.117 62.4453 307.227 62.2344 307.383 62.0938C307.555 61.9531 307.758 61.8672 307.992 61.8359C308.305 61.8359 308.531 61.9531 308.672 62.1875C308.812 62.4062 308.906 62.6797 308.953 63.0078C309.016 63.3359 309.047 63.6875 309.047 64.0625C309.062 64.4375 309.086 64.7734 309.117 65.0703C309.148 65.3516 309.188 65.6406 309.234 65.9375C309.281 66.2188 309.359 66.4844 309.469 66.7344C309.594 66.9844 309.758 67.1875 309.961 67.3438C310.18 67.5 310.477 67.5781 310.852 67.5781C310.945 67.5781 311.031 67.5703 311.109 67.5547C311.188 67.5234 311.266 67.4922 311.344 67.4609L311.93 67.1797C312.023 67.1172 312.141 67 312.281 66.8281C312.422 66.6406 312.555 66.4062 312.68 66.125C312.82 65.8438 312.938 65.5234 313.031 65.1641C313.141 64.7891 313.195 64.375 313.195 63.9219C313.195 63.75 313.188 63.5938 313.172 63.4531C313.172 63.3125 313.172 63.1797 313.172 63.0547L313.359 62.5625L313.43 62.4688C313.742 62.25 314.016 62.1406 314.25 62.1406C314.422 62.1406 314.57 62.1875 314.695 62.2812C314.82 62.3594 314.906 62.4453 314.953 62.5391L315.094 62.8438L315.117 62.9844C315.117 63.3906 315.125 63.7969 315.141 64.2031C315.156 64.5938 315.164 65.0234 315.164 65.4922C315.18 65.9609 315.195 66.4844 315.211 67.0625C315.227 67.6406 315.234 68.3047 315.234 69.0547C315.234 69.9453 315.172 70.7422 315.047 71.4453C314.922 72.1484 314.68 72.7734 314.32 73.3203C313.977 73.8672 313.5 74.3516 312.891 74.7734C312.281 75.2109 311.484 75.6016 310.5 75.9453C310.328 76.0234 310.117 76.0625 309.867 76.0625C309.711 76.0625 309.547 76.0391 309.375 75.9922C309.219 75.9609 309.07 75.8984 308.93 75.8047C308.789 75.7266 308.672 75.6094 308.578 75.4531C308.484 75.3125 308.43 75.1328 308.414 74.9141C308.414 74.5234 308.516 74.2344 308.719 74.0469C308.938 73.8594 309.164 73.7656 309.398 73.7656H309.539H309.586C309.758 73.7656 309.93 73.8672 310.102 74.0703L310.172 74.0469C310.312 73.9844 310.453 73.9219 310.594 73.8594C310.719 73.8125 310.836 73.7578 310.945 73.6953C311.055 73.6328 311.148 73.5859 311.227 73.5547C311.695 73.3203 312.07 73.0312 312.352 72.6875C312.648 72.3438 312.867 71.9531 313.008 71.5156C313.164 71.0938 313.266 70.6406 313.312 70.1562C313.359 69.6562 313.383 69.1328 313.383 68.5859V68.1406C313.133 68.3906 312.789 68.6484 312.352 68.9141C311.93 69.1641 311.359 69.2891 310.641 69.2891C309.828 69.2891 309.188 69.0859 308.719 68.6797C308.266 68.2734 307.922 67.75 307.688 67.1094C307.453 66.4688 307.297 65.7656 307.219 65C307.156 64.2188 307.102 63.4609 307.055 62.7266ZM324.023 63.2422C324.336 63.2422 324.602 63.3203 324.82 63.4766C325.039 63.6172 325.148 63.8359 325.148 64.1328C325.148 64.3047 325.102 64.4766 325.008 64.6484C324.93 64.8203 324.781 64.9766 324.562 65.1172C324.125 65.2422 323.672 65.3906 323.203 65.5625C322.734 65.7188 322.273 65.8984 321.82 66.1016C321.383 66.3047 320.961 66.5312 320.555 66.7812C320.164 67.0156 319.828 67.2578 319.547 67.5078C319.625 67.5078 319.805 67.5703 320.086 67.6953C320.367 67.8047 320.633 67.9141 320.883 68.0234C321.539 68.3203 322.18 68.6094 322.805 68.8906C323.445 69.1719 324.141 69.3359 324.891 69.3828C325.453 69.5703 325.734 69.8984 325.734 70.3672C325.656 70.8359 325.367 71.1484 324.867 71.3047C324.398 71.2578 323.961 71.1875 323.555 71.0938C323.164 71.0156 322.758 70.9141 322.336 70.7891C321.93 70.6484 321.492 70.4844 321.023 70.2969C320.555 70.0938 320.016 69.8516 319.406 69.5703C319.219 69.4922 319.125 69.4531 319.125 69.4531V70.8594C319.125 71.0938 319.031 71.2891 318.844 71.4453C318.656 71.6172 318.453 71.7031 318.234 71.7031C318 71.7031 317.773 71.6328 317.555 71.4922C317.336 71.3516 317.227 71.1094 317.227 70.7656C317.227 68.5312 317.195 66.3281 317.133 64.1562C317.07 61.9844 317.039 59.7656 317.039 57.5C317.102 57.2344 317.211 57.0312 317.367 56.8906C317.539 56.75 317.742 56.6641 317.977 56.6328C318.445 56.6328 318.766 56.9141 318.938 57.4766C318.938 58.6016 318.945 59.7109 318.961 60.8047C318.977 61.8984 319 62.9922 319.031 64.0859L319.078 65.6094C319.734 65.125 320.477 64.6719 321.305 64.25C322.133 63.8281 323.039 63.4922 324.023 63.2422ZM334.148 59.7266C334.102 61.3984 334.078 63.125 334.078 64.9062V70.3906C334.078 70.6719 333.977 70.8984 333.773 71.0703C333.586 71.2422 333.383 71.3281 333.164 71.3281C332.945 71.3281 332.727 71.25 332.508 71.0938C332.305 70.9531 332.188 70.7031 332.156 70.3438V64.9531C332.156 63.2188 332.18 61.5391 332.227 59.9141C331.477 59.9922 330.805 60.0625 330.211 60.125C329.617 60.1719 329.094 60.2266 328.641 60.2891C328.328 60.2578 328.086 60.1484 327.914 59.9609C327.758 59.7734 327.68 59.5469 327.68 59.2812C327.68 58.9844 327.82 58.7578 328.102 58.6016C328.383 58.4453 328.758 58.3281 329.227 58.25C329.695 58.1562 330.234 58.0938 330.844 58.0625C331.469 58.0312 332.125 57.9844 332.812 57.9219C333.766 57.8438 334.609 57.7812 335.344 57.7344C336.078 57.6875 336.711 57.6641 337.242 57.6641C337.805 57.8672 338.086 58.1797 338.086 58.6016C338.039 58.9297 337.898 59.1641 337.664 59.3047C337.445 59.4453 337.156 59.5391 336.797 59.5859C336.453 59.6328 336.055 59.6562 335.602 59.6562C335.148 59.6562 334.664 59.6797 334.148 59.7266ZM346.125 67.7188L345.961 67.6953C345.727 67.6484 345.508 67.5703 345.305 67.4609C345.117 67.3516 344.93 67.2422 344.742 67.1328C344.555 67.0234 344.375 66.9297 344.203 66.8516C344.031 66.7578 343.859 66.7109 343.688 66.7109C343.141 66.7734 342.664 66.9609 342.258 67.2734C341.867 67.5859 341.672 67.9609 341.672 68.3984C341.672 68.5234 341.703 68.6562 341.766 68.7969C341.828 68.9375 341.93 69.1172 342.07 69.3359C342.477 69.5859 342.922 69.7109 343.406 69.7109C343.969 69.7109 344.461 69.6562 344.883 69.5469L345.188 69.2422C345.344 69.0391 345.555 68.9375 345.82 68.9375H345.938C345.953 68.8125 345.969 68.6875 345.984 68.5625C346 68.4375 346.023 68.3125 346.055 68.1875L346.125 67.7188ZM346.477 70.5547L345.938 71.0703C345.734 71.2578 345.406 71.3906 344.953 71.4688C344.516 71.5625 344.055 71.6094 343.57 71.6094C342.914 71.6094 342.352 71.5391 341.883 71.3984C341.43 71.2578 341.031 70.9844 340.688 70.5781C340.125 69.8281 339.844 69.125 339.844 68.4688C339.844 68.0312 339.93 67.6016 340.102 67.1797C340.289 66.7422 340.547 66.3516 340.875 66.0078C341.203 65.6641 341.602 65.3828 342.07 65.1641C342.555 64.9453 343.094 64.8359 343.688 64.8359C343.938 64.8672 344.18 64.9219 344.414 65C344.648 65.0781 344.867 65.1641 345.07 65.2578C345.273 65.3516 345.453 65.4453 345.609 65.5391C345.781 65.6172 345.914 65.6797 346.008 65.7266L345.867 65.0938C345.789 64.8438 345.695 64.6016 345.586 64.3672C345.477 64.1172 345.344 63.875 345.188 63.6406L344.719 63.2188C344.594 63.1875 344.477 63.1484 344.367 63.1016C344.258 63.0391 344.117 63.0078 343.945 63.0078C343.492 63.0391 343.047 63.1016 342.609 63.1953C342.172 63.2734 341.734 63.3906 341.297 63.5469C341.25 63.5625 341.18 63.5703 341.086 63.5703C340.758 63.5703 340.5 63.4766 340.312 63.2891C340.141 63.1016 340.055 62.8984 340.055 62.6797C340.055 62.4922 340.102 62.3281 340.195 62.1875C340.289 62.0312 340.469 61.875 340.734 61.7188C341.141 61.5938 341.586 61.4609 342.07 61.3203C342.57 61.1641 343.07 61.0859 343.57 61.0859C344.43 61.0859 345.141 61.2578 345.703 61.6016C346.281 61.9453 346.734 62.3984 347.062 62.9609C347.406 63.5078 347.641 64.1172 347.766 64.7891C347.906 65.4609 347.977 66.125 347.977 66.7812C347.977 67.1719 347.961 67.5938 347.93 68.0469C347.914 68.4844 347.859 68.8984 347.766 69.2891C347.688 69.6641 347.57 69.9766 347.414 70.2266C347.258 70.4766 347.047 70.6016 346.781 70.6016C346.719 70.6016 346.656 70.6016 346.594 70.6016C346.531 70.5859 346.492 70.5703 346.477 70.5547ZM354.562 70.9297L354.328 70.9766H354.258C353.977 70.9766 353.75 70.8438 353.578 70.5781C353.406 70.3125 353.266 70.0156 353.156 69.6875C353.047 69.3438 352.969 69.0156 352.922 68.7031C352.875 68.3906 352.836 68.1875 352.805 68.0938C352.617 67.4844 352.414 66.9219 352.195 66.4062C351.992 65.875 351.789 65.3516 351.586 64.8359L351.305 63.8516C351.227 63.5859 351.172 63.3828 351.141 63.2422C351.125 63.0859 351.117 62.9688 351.117 62.8906C351.117 62.5469 351.227 62.3125 351.445 62.1875C351.68 62.0625 351.914 62 352.148 62C352.352 62 352.508 62.0391 352.617 62.1172C352.727 62.1797 352.812 62.2969 352.875 62.4688C352.953 62.625 353.023 62.8438 353.086 63.125C353.164 63.3906 353.266 63.7344 353.391 64.1562C353.609 64.7344 353.828 65.3203 354.047 65.9141C354.266 66.4922 354.484 67.0938 354.703 67.7188L354.891 67.3438C355 67.2031 355.133 66.9375 355.289 66.5469C355.648 65.9688 355.961 65.4062 356.227 64.8594C356.492 64.2969 356.68 63.7891 356.789 63.3359C356.852 63.0547 356.977 62.8516 357.164 62.7266C357.367 62.5859 357.555 62.5156 357.727 62.5156C357.977 62.5156 358.203 62.6016 358.406 62.7734C358.609 62.9453 358.711 63.2109 358.711 63.5703C358.523 64.2734 358.273 64.8984 357.961 65.4453C357.648 65.9766 357.352 66.5156 357.07 67.0625L356.086 68.9375C355.867 69.3438 355.664 69.7109 355.477 70.0391C355.289 70.3672 355.102 70.6172 354.914 70.7891L354.562 70.9297ZM366.469 67.7188L366.305 67.6953C366.07 67.6484 365.852 67.5703 365.648 67.4609C365.461 67.3516 365.273 67.2422 365.086 67.1328C364.898 67.0234 364.719 66.9297 364.547 66.8516C364.375 66.7578 364.203 66.7109 364.031 66.7109C363.484 66.7734 363.008 66.9609 362.602 67.2734C362.211 67.5859 362.016 67.9609 362.016 68.3984C362.016 68.5234 362.047 68.6562 362.109 68.7969C362.172 68.9375 362.273 69.1172 362.414 69.3359C362.82 69.5859 363.266 69.7109 363.75 69.7109C364.312 69.7109 364.805 69.6562 365.227 69.5469L365.531 69.2422C365.688 69.0391 365.898 68.9375 366.164 68.9375H366.281C366.297 68.8125 366.312 68.6875 366.328 68.5625C366.344 68.4375 366.367 68.3125 366.398 68.1875L366.469 67.7188ZM366.82 70.5547L366.281 71.0703C366.078 71.2578 365.75 71.3906 365.297 71.4688C364.859 71.5625 364.398 71.6094 363.914 71.6094C363.258 71.6094 362.695 71.5391 362.227 71.3984C361.773 71.2578 361.375 70.9844 361.031 70.5781C360.469 69.8281 360.188 69.125 360.188 68.4688C360.188 68.0312 360.273 67.6016 360.445 67.1797C360.633 66.7422 360.891 66.3516 361.219 66.0078C361.547 65.6641 361.945 65.3828 362.414 65.1641C362.898 64.9453 363.438 64.8359 364.031 64.8359C364.281 64.8672 364.523 64.9219 364.758 65C364.992 65.0781 365.211 65.1641 365.414 65.2578C365.617 65.3516 365.797 65.4453 365.953 65.5391C366.125 65.6172 366.258 65.6797 366.352 65.7266L366.211 65.0938C366.133 64.8438 366.039 64.6016 365.93 64.3672C365.82 64.1172 365.688 63.875 365.531 63.6406L365.062 63.2188C364.938 63.1875 364.82 63.1484 364.711 63.1016C364.602 63.0391 364.461 63.0078 364.289 63.0078C363.836 63.0391 363.391 63.1016 362.953 63.1953C362.516 63.2734 362.078 63.3906 361.641 63.5469C361.594 63.5625 361.523 63.5703 361.43 63.5703C361.102 63.5703 360.844 63.4766 360.656 63.2891C360.484 63.1016 360.398 62.8984 360.398 62.6797C360.398 62.4922 360.445 62.3281 360.539 62.1875C360.633 62.0312 360.812 61.875 361.078 61.7188C361.484 61.5938 361.93 61.4609 362.414 61.3203C362.914 61.1641 363.414 61.0859 363.914 61.0859C364.773 61.0859 365.484 61.2578 366.047 61.6016C366.625 61.9453 367.078 62.3984 367.406 62.9609C367.75 63.5078 367.984 64.1172 368.109 64.7891C368.25 65.4609 368.32 66.125 368.32 66.7812C368.32 67.1719 368.305 67.5938 368.273 68.0469C368.258 68.4844 368.203 68.8984 368.109 69.2891C368.031 69.6641 367.914 69.9766 367.758 70.2266C367.602 70.4766 367.391 70.6016 367.125 70.6016C367.062 70.6016 367 70.6016 366.938 70.6016C366.875 70.5859 366.836 70.5703 366.82 70.5547ZM371.18 70.3203C371.18 69.8984 371.188 69.4609 371.203 69.0078C371.234 68.5547 371.289 68.125 371.367 67.7188L371.531 65.9844L371.742 64.7188C371.789 64.5156 371.812 64.3281 371.812 64.1562C371.812 63.9688 371.773 63.7734 371.695 63.5703C371.633 63.3672 371.453 63.2656 371.156 63.2656C371.031 63.2656 370.906 63.2344 370.781 63.1719C370.672 63.0938 370.57 63.0078 370.477 62.9141C370.383 62.8047 370.305 62.6953 370.242 62.5859C370.195 62.4766 370.172 62.375 370.172 62.2812C370.172 62.0938 370.266 61.8906 370.453 61.6719C370.641 61.4531 370.898 61.3438 371.227 61.3438C372.039 61.4219 372.633 61.6484 373.008 62.0234C373.383 62.3984 373.57 62.8594 373.57 63.4062C374.039 63.0781 374.586 62.8359 375.211 62.6797C375.836 62.5078 376.578 62.3906 377.438 62.3281C377.781 62.3281 378.047 62.4219 378.234 62.6094C378.422 62.7812 378.516 63 378.516 63.2656C378.516 63.5 378.438 63.7109 378.281 63.8984C378.125 64.0703 377.914 64.1797 377.648 64.2266C376.93 64.2734 376.32 64.3516 375.82 64.4609C375.32 64.5703 374.898 64.75 374.555 65C374.211 65.2344 373.945 65.5547 373.758 65.9609C373.57 66.3672 373.43 66.8906 373.336 67.5312L373.266 67.8828V68.8438C373.25 69.0781 373.234 69.3203 373.219 69.5703C373.219 69.8047 373.203 70.0469 373.172 70.2969L373.102 70.7188L372.961 71.0938C372.711 71.3906 372.422 71.5391 372.094 71.5391C371.531 71.5391 371.227 71.2109 371.18 70.5547V70.3203ZM381.961 64.8125C381.93 64.8281 381.914 64.8438 381.914 64.8594H381.961C382.07 64.8594 382.18 64.8906 382.289 64.9531C382.398 65 382.492 65.0625 382.57 65.1406C382.648 65.2031 382.711 65.2656 382.758 65.3281C382.82 65.375 382.859 65.3984 382.875 65.3984C383.109 65.5078 383.367 65.5625 383.648 65.5625C384.102 65.5625 384.484 65.5 384.797 65.375C385.109 65.2344 385.266 64.9062 385.266 64.3906C385.172 64.0781 385.062 63.8203 384.938 63.6172C384.828 63.4141 384.641 63.2188 384.375 63.0312L383.883 62.8203H383.555C383.43 62.8203 383.266 62.8516 383.062 62.9141C382.859 62.9766 382.656 63.0625 382.453 63.1719C382.391 63.2656 382.328 63.4062 382.266 63.5938C382.203 63.7656 382.148 63.9375 382.102 64.1094C382.055 64.2812 382.016 64.4375 381.984 64.5781C381.969 64.7188 381.961 64.7969 381.961 64.8125ZM382.148 67.0859L382.078 66.8281C382.266 67.6562 382.719 68.3359 383.438 68.8672C383.594 68.9922 383.789 69.1016 384.023 69.1953C384.273 69.2891 384.516 69.375 384.75 69.4531C385 69.5312 385.219 69.5938 385.406 69.6406C385.594 69.6719 385.711 69.6875 385.758 69.6875C385.914 69.5469 386.109 69.4766 386.344 69.4766C386.625 69.5078 386.844 69.625 387 69.8281C387.156 70.0156 387.234 70.2188 387.234 70.4375C387.234 70.7812 387.07 71.0547 386.742 71.2578C386.43 71.4766 386.094 71.5859 385.734 71.5859C384.969 71.5859 384.242 71.4297 383.555 71.1172C382.867 70.8203 382.266 70.4141 381.75 69.8984C381.234 69.3828 380.812 68.7891 380.484 68.1172C380.172 67.4453 380 66.7344 379.969 65.9844C379.969 65.4688 380.008 64.9141 380.086 64.3203C380.164 63.7266 380.328 63.1797 380.578 62.6797C380.828 62.1641 381.188 61.7344 381.656 61.3906C382.141 61.0469 382.781 60.875 383.578 60.875C384.078 60.875 384.547 60.9844 384.984 61.2031C385.422 61.4062 385.797 61.6875 386.109 62.0469C386.438 62.4062 386.695 62.8203 386.883 63.2891C387.07 63.7422 387.164 64.2188 387.164 64.7188C387.164 65.1719 387.078 65.5703 386.906 65.9141C386.75 66.2578 386.531 66.5469 386.25 66.7812C385.969 67 385.633 67.1719 385.242 67.2969C384.867 67.4062 384.469 67.4609 384.047 67.4609C383.875 67.4609 383.68 67.4453 383.461 67.4141C383.258 67.3828 383.062 67.3516 382.875 67.3203C382.688 67.2734 382.523 67.2344 382.383 67.2031C382.258 67.1562 382.18 67.1172 382.148 67.0859ZM394.969 61.2266C395.219 61.3047 395.406 61.4375 395.531 61.625C395.656 61.8125 395.719 62 395.719 62.1875C395.719 62.4531 395.625 62.6797 395.438 62.8672C395.25 63.0391 395.023 63.125 394.758 63.125C394.68 63.125 394.617 63.1172 394.57 63.1016C394.242 63.0078 393.938 62.9375 393.656 62.8906C393.375 62.8281 393.102 62.7969 392.836 62.7969C392.602 62.7969 392.367 62.8203 392.133 62.8672C391.898 62.9141 391.648 62.9766 391.383 63.0547L391.359 63.0781C391.594 63.5312 391.914 63.9297 392.32 64.2734C392.727 64.6172 393.148 64.9688 393.586 65.3281C394.023 65.6719 394.438 66.0391 394.828 66.4297C395.234 66.8203 395.531 67.2734 395.719 67.7891C395.797 67.9922 395.836 68.2031 395.836 68.4219C395.836 68.75 395.773 69.0938 395.648 69.4531C395.523 69.8125 395.336 70.1406 395.086 70.4375C394.852 70.7344 394.547 70.9766 394.172 71.1641C393.797 71.3672 393.352 71.4688 392.836 71.4688C392.258 71.4688 391.727 71.375 391.242 71.1875C390.773 71.0156 390.359 70.7812 390 70.4844L389.555 70.2031L389.344 69.9922C389.109 69.7891 388.984 69.5391 388.969 69.2422V69.1016C389.016 68.8047 389.117 68.5938 389.273 68.4688C389.445 68.3281 389.648 68.2422 389.883 68.2109C390.195 68.2109 390.484 68.375 390.75 68.7031L391.312 69.0078C391.531 69.1328 391.773 69.2578 392.039 69.3828C392.32 69.5078 392.594 69.5703 392.859 69.5703C393.078 69.5703 393.289 69.5078 393.492 69.3828L393.633 69.2656C393.68 69.125 393.719 68.9844 393.75 68.8438C393.797 68.7031 393.82 68.5703 393.82 68.4453C393.82 68.2109 393.766 68.0156 393.656 67.8594C393.562 67.6875 393.43 67.5391 393.258 67.4141C393.102 67.2734 392.93 67.1484 392.742 67.0391C392.555 66.9141 392.367 66.7812 392.18 66.6406C392.008 66.5156 391.766 66.3203 391.453 66.0547C391.156 65.7734 390.852 65.4609 390.539 65.1172C390.227 64.7734 389.953 64.4141 389.719 64.0391C389.5 63.6484 389.391 63.2891 389.391 62.9609C389.391 62.5703 389.508 62.2422 389.742 61.9766C389.977 61.6953 390.266 61.4766 390.609 61.3203C390.953 61.1484 391.312 61.0312 391.688 60.9688C392.062 60.8906 392.383 60.8516 392.648 60.8516C393.086 60.8516 393.477 60.8828 393.82 60.9453C394.18 61.0078 394.562 61.1016 394.969 61.2266Z" fill="black"/>
</svg>

