<svg width="50" height="50" viewBox="0 0 50 50" fill="none" xmlns="http://www.w3.org/2000/svg">
<path d="M0 43.5529C0 47.1139 2.88652 50 6.44707 50H43.5527C47.1139 50 50 47.1135 50 43.5529V6.44727C50 2.88613 47.1135 0 43.5529 0H6.44727C2.88613 0 0 2.88652 0 6.44707V43.5527V43.5529Z" fill="#563D7C"/>
<path d="M20.734 22.1129V15.0322H26.9667C27.5605 15.0322 28.1327 15.0816 28.6839 15.1807C29.2351 15.2795 29.7228 15.4561 30.1468 15.7105C30.5706 15.965 30.9099 16.3184 31.1644 16.7705C31.4187 17.2229 31.546 17.8023 31.546 18.5088C31.546 19.7809 31.1644 20.6996 30.4011 21.2648C29.638 21.8303 28.6628 22.1129 27.4755 22.1129H20.734ZM14.0771 9.85938V40.1328H28.7476C30.1044 40.1328 31.4259 39.9633 32.7121 39.624C33.9982 39.2848 35.1429 38.7619 36.1465 38.0553C37.1498 37.3486 37.9484 36.4369 38.542 35.3205C39.1357 34.2039 39.4324 32.8824 39.4324 31.3561C39.4324 29.4621 38.973 27.8439 38.0545 26.5014C37.1357 25.1586 35.7435 24.2187 33.8779 23.6816C35.2347 23.0316 36.2595 22.1977 36.9521 21.1801C37.6445 20.1625 37.9908 18.8906 37.9908 17.3641C37.9908 15.9508 37.7576 14.7637 37.2912 13.8025C36.8248 12.8416 36.1676 12.0713 35.3195 11.4918C34.4716 10.9123 33.4541 10.4953 32.2667 10.241C31.0796 9.98652 29.7652 9.85938 28.3236 9.85938H14.0771ZM20.734 34.96V26.6496H27.9843C29.4259 26.6496 30.5849 26.9816 31.4613 27.6461C32.3374 28.3104 32.7757 29.4197 32.7757 30.9744C32.7757 31.766 32.6414 32.416 32.3728 32.9248C32.1042 33.4336 31.7439 33.8365 31.2915 34.1332C30.8394 34.4301 30.3163 34.642 29.7228 34.7693C29.129 34.8963 28.5073 34.96 27.8571 34.96H20.734Z" fill="white"/>
</svg>
