<svg width="35" height="35" viewBox="0 0 35 35" fill="none" xmlns="http://www.w3.org/2000/svg">
<path d="M17.148 22.7567L17.1374 22.7521L17.1266 22.7479C17.0105 22.7029 16.9043 22.6356 16.8139 22.55L10.9848 16.7209C10.8953 16.6314 10.8242 16.5251 10.7758 16.4081C10.7273 16.2911 10.7024 16.1657 10.7024 16.0391C10.7024 15.9124 10.7273 15.787 10.7758 15.67C10.8242 15.553 10.8953 15.4467 10.9848 15.3572C11.0744 15.2677 11.1807 15.1966 11.2977 15.1482C11.4146 15.0997 11.54 15.0748 11.6667 15.0748C11.7933 15.0748 11.9187 15.0997 12.0357 15.1482C12.1526 15.1966 12.2588 15.2675 12.3482 15.3569C12.3483 15.357 12.3484 15.3571 12.3485 15.3572L15.6874 18.7106L16.5417 19.5687V18.3578V4.3724C16.5417 4.11823 16.6426 3.87447 16.8224 3.69475C17.0021 3.51503 17.2458 3.41406 17.5 3.41406C17.7542 3.41406 17.9979 3.51503 18.1777 3.69475C18.3574 3.87447 18.4583 4.11823 18.4583 4.3724V18.3578V19.5687L19.3127 18.7106L22.6515 15.3572C22.6515 15.3572 22.6516 15.3571 22.6516 15.3571C22.8324 15.1763 23.0776 15.0748 23.3333 15.0748C23.5891 15.0748 23.8344 15.1764 24.0152 15.3572C24.196 15.538 24.2976 15.7833 24.2976 16.0391C24.2976 16.2948 24.196 16.5401 24.0152 16.7209L18.1861 22.55C18.0958 22.6356 17.9895 22.7029 17.8734 22.7479L17.8626 22.7521L17.852 22.7567C17.7412 22.8058 17.6212 22.8311 17.5 22.8311C17.3788 22.8311 17.2589 22.8058 17.148 22.7567ZM29.9474 21.1948C30.1271 21.015 30.3708 20.9141 30.625 20.9141C30.8792 20.9141 31.1229 21.015 31.3027 21.1948C31.4824 21.3745 31.5833 21.6182 31.5833 21.8724V27.7057C31.5833 28.7334 31.1751 29.7191 30.4484 30.4458C29.7217 31.1725 28.7361 31.5807 27.7083 31.5807H7.29167C6.26396 31.5807 5.27834 31.1725 4.55163 30.4458C3.82493 29.7191 3.41667 28.7334 3.41667 27.7057V21.8724C3.41667 21.6182 3.51764 21.3745 3.69736 21.1948C3.87708 21.015 4.12084 20.9141 4.37501 20.9141C4.62917 20.9141 4.87293 21.015 5.05265 21.1948C5.23237 21.3745 5.33334 21.6182 5.33334 21.8724V27.7057C5.33334 28.2251 5.53966 28.7232 5.90692 29.0905C6.27418 29.4577 6.77229 29.6641 7.29167 29.6641H27.7083C28.2277 29.6641 28.7258 29.4577 29.0931 29.0905C29.4604 28.7232 29.6667 28.2251 29.6667 27.7057V21.8724C29.6667 21.6182 29.7676 21.3745 29.9474 21.1948Z" stroke="url(#paint0_linear_33_18)"/>
<defs>
<linearGradient id="paint0_linear_33_18" x1="17.5" y1="2.91406" x2="17.5" y2="32.0807" gradientUnits="userSpaceOnUse">
<stop stop-color="#FF0000" stop-opacity="0.81"/>
<stop offset="0.473958" stop-color="#E01C34" stop-opacity="0.73"/>
<stop offset="1" stop-color="#500B28" stop-opacity="0.72"/>
</linearGradient>
</defs>
</svg>
