<svg width="50" height="50" viewBox="0 0 50 50" fill="none" xmlns="http://www.w3.org/2000/svg">
<path d="M42.6669 9.80469L39.4479 45.8656L24.9784 49.877L10.5487 45.8712L7.33313 9.80469H42.6669Z" fill="#E44D26"/>
<path d="M25 46.8072L36.6921 43.5657L39.4429 12.75H25V46.8072Z" fill="#F16529"/>
<path d="M18.7424 21.5953H25V17.1719H13.9082L14.0141 18.3586L15.1013 30.5483H25V26.125H19.1467L18.7424 21.5953Z" fill="#EBEBEB"/>
<path d="M19.7393 32.7656H15.2989L15.9186 39.711L24.9796 42.2264L25 42.2208V37.6186L24.9806 37.6237L20.0542 36.2935L19.7393 32.7656Z" fill="#EBEBEB"/>
<path d="M10.6206 0H12.8685V2.22094H14.9248V0H17.1728V6.72554H14.9249V4.47343H12.8686V6.72554H10.6207V0H10.6206Z" fill="white"/>
<path d="M20.1289 2.23029H18.15V0H24.3569V2.23029H22.3771V6.72554H20.129V2.23029H20.1289Z" fill="white"/>
<path d="M25.342 0H27.686L29.1279 2.36315L30.5682 0H32.9131V6.72554H30.6744V3.39199L29.1279 5.7833H29.0892L27.5415 3.39199V6.72554H25.342V0Z" fill="white"/>
<path d="M34.0318 0H36.2804V4.50246H39.4416V6.72554H34.0318V0Z" fill="white"/>
<path d="M24.9847 30.5484H30.4317L29.9182 36.2852L24.9847 37.6168V42.2188L34.053 39.7055L34.1195 38.9582L35.159 27.3128L35.2669 26.125H24.9847V30.5484Z" fill="white"/>
<path d="M24.9847 21.5845V21.5953H35.6694L35.7581 20.6011L35.9597 18.3586L36.0655 17.1719H24.9847V21.5845Z" fill="white"/>
</svg>
