<svg width="45" height="45" viewBox="0 0 45 45" fill="none" xmlns="http://www.w3.org/2000/svg">
<g clip-path="url(#clip0_17_160)">
<path d="M38.8106 33.2753C41.9344 33.2753 43.0894 31.0966 44.1731 27.8303C45.2981 24.4647 45.2494 21.2303 44.1731 16.9216C43.3987 13.8184 41.9344 11.4766 38.8106 11.4766H34.7831V16.2391C34.7831 19.9366 31.6481 23.0509 28.0725 23.0509H17.3475C14.415 23.0509 11.985 25.5616 11.985 28.5034V38.7297C11.985 41.6416 14.5162 43.3497 17.3475 44.1822C20.7431 45.1759 24.0075 45.3559 28.0744 44.1822C30.7762 43.3984 33.4387 41.8197 33.4387 38.7297V34.6403H22.7194V33.2734H38.8106V33.2753Z" fill="#F2BB30"/>
<path d="M6.45752 33.28H10.1438V28.3787C10.1438 24.8312 13.2075 21.7094 16.8544 21.7094H27.5813C30.5644 21.7094 32.9438 19.2494 32.9438 16.255V6.01748C32.9438 3.10373 30.4931 0.923106 27.5813 0.431856C23.985 -0.160645 20.0775 -0.130645 16.8544 0.443106L16.8563 0.441231C12.315 1.24373 11.4919 2.92186 11.4919 6.02498V10.1125H22.23V11.4812H7.46252C4.33689 11.4812 1.60502 13.36 0.753768 16.9281C-0.230607 21.0156 -0.271857 23.5656 0.753768 27.8369C1.51502 31.0094 3.33564 33.28 6.45752 33.28Z" fill="#35668F"/>
<path d="M22.5 23.0547H17.3475C14.415 23.0547 11.985 25.5653 11.985 28.5072V38.7334C11.985 41.6453 14.5162 43.3534 17.3475 44.1859C19.0575 44.6866 20.7356 44.9809 22.5 44.9997V23.0547Z" fill="#D3A32A"/>
<path d="M22.1756 0C20.3119 0 18.4931 0.151875 16.8525 0.4425L16.8544 0.440625C12.315 1.24312 11.4919 2.92125 11.4919 6.02437V10.1119H22.23V11.4806H7.4625C4.33687 11.4806 1.605 13.3594 0.75375 16.9275C0.26625 18.9544 0.009375 20.6044 0 22.2712V22.4606C0.009375 24.0956 0.255 25.7625 0.75375 27.8362C1.515 31.0087 3.33563 33.2794 6.4575 33.2794H10.1437V28.3781C10.1437 24.8306 13.2075 21.7087 16.8544 21.7087H22.5V0.001875C22.3913 0 22.2844 0 22.1756 0Z" fill="#2E597C"/>
<path d="M34.1831 13.7974H34.185V13.7891L34.1831 13.7974Z" fill="white"/>
<path d="M28.7475 37.3634C29.8613 37.3634 30.7669 38.2784 30.7669 39.4034C30.7669 40.5397 29.8631 41.4528 28.7475 41.4528C27.6413 41.4528 26.7281 40.5284 26.7281 39.4034C26.7394 38.2672 27.645 37.3634 28.7475 37.3634ZM16.1813 7.37656C15.0675 7.37656 14.1638 6.46156 14.1638 5.33656C14.175 4.20219 15.0675 3.28906 16.1813 3.28906C17.2875 3.28906 18.2006 4.21344 18.2006 5.33844C18.2006 6.46156 17.2969 7.37656 16.1813 7.37656Z" fill="white"/>
<path d="M16.1813 3.28906C15.0675 3.28906 14.1731 4.20219 14.1638 5.33844C14.1638 6.46344 15.0675 7.37844 16.1813 7.37844V3.28906ZM28.7475 37.3634C27.6338 37.3634 26.7394 38.2766 26.73 39.4128C26.73 40.5378 27.6338 41.4528 28.7475 41.4528V37.3634Z" fill="#DEDEDE"/>
</g>
<defs>
<clipPath id="clip0_17_160">
<rect width="45" height="45" fill="white"/>
</clipPath>
</defs>
</svg>
