<svg width="713" height="329" viewBox="0 0 713 329" fill="none" xmlns="http://www.w3.org/2000/svg">
<path opacity="0.28" d="M703.513 328.616H9.4873C4.38146 328.616 0.243164 324.407 0.243164 319.214C0.243164 314.021 4.38146 309.812 9.4873 309.812H703.513C708.619 309.812 712.757 314.021 712.757 319.214C712.757 324.406 708.618 328.616 703.513 328.616Z" fill="#848484"/>
<path d="M673.318 232.085C673.318 193.197 644.349 161.25 606.836 157.63V148.844H584.329V316.718H606.836V306.541C644.349 302.922 673.318 270.974 673.318 232.085ZM606.836 282.41V181.763C630.844 185.268 649.755 206.493 649.755 232.086C649.755 257.68 630.844 278.905 606.836 282.41Z" fill="#F09F54"/>
<path opacity="0.29" d="M606.836 157.63V148.844H584.329V316.718H606.836V306.541C644.349 302.922 673.318 270.975 673.318 232.086C673.318 193.198 644.349 161.25 606.836 157.63ZM606.836 298.853V307.562H585.83V156.474H606.836V165.318C639.848 168.564 666.453 197.213 666.453 232.084C666.453 266.958 639.848 295.607 606.836 298.853Z" fill="#F09F54"/>
<path d="M673.318 232.085C673.318 193.197 644.349 161.25 606.836 157.63V148.844H584.329V316.718H606.836V306.541C644.349 302.922 673.318 270.974 673.318 232.085ZM606.836 282.41V181.763C630.844 185.268 649.755 206.493 649.755 232.086C649.755 257.68 630.844 278.905 606.836 282.41Z" stroke="#444E59" stroke-width="4" stroke-miterlimit="10" stroke-linecap="round" stroke-linejoin="round"/>
<path d="M593.332 299.93H584.329" stroke="#444E59" stroke-width="3" stroke-miterlimit="10" stroke-linecap="round" stroke-linejoin="round"/>
<path d="M593.332 283.141H584.329" stroke="#444E59" stroke-width="3" stroke-miterlimit="10" stroke-linecap="round" stroke-linejoin="round"/>
<path d="M593.332 266.352H584.329" stroke="#444E59" stroke-width="3" stroke-miterlimit="10" stroke-linecap="round" stroke-linejoin="round"/>
<path d="M593.332 249.562H584.329" stroke="#444E59" stroke-width="3" stroke-miterlimit="10" stroke-linecap="round" stroke-linejoin="round"/>
<path d="M593.332 232.781H584.329" stroke="#444E59" stroke-width="3" stroke-miterlimit="10" stroke-linecap="round" stroke-linejoin="round"/>
<path d="M593.332 215.992H584.329" stroke="#444E59" stroke-width="3" stroke-miterlimit="10" stroke-linecap="round" stroke-linejoin="round"/>
<path d="M593.332 199.203H584.329" stroke="#444E59" stroke-width="3" stroke-miterlimit="10" stroke-linecap="round" stroke-linejoin="round"/>
<path d="M593.332 182.414H584.329" stroke="#444E59" stroke-width="3" stroke-miterlimit="10" stroke-linecap="round" stroke-linejoin="round"/>
<path d="M593.332 165.625H584.329" stroke="#444E59" stroke-width="3" stroke-miterlimit="10" stroke-linecap="round" stroke-linejoin="round"/>
<path d="M568.436 63.8906H534.457V316.325H568.436V63.8906Z" fill="#F09F54"/>
<path d="M568.436 63.8906H534.457V316.325H568.436V63.8906Z" fill="#F09F54"/>
<path opacity="0.29" d="M568.437 63.8906H553.663V316.325H568.437V63.8906Z" fill="#F09F54"/>
<path d="M568.436 63.8906H534.457V316.325H568.436V63.8906Z" stroke="#444E59" stroke-width="4" stroke-miterlimit="10" stroke-linecap="round" stroke-linejoin="round"/>
<path d="M546.276 290.781H534.457" stroke="#444E59" stroke-width="3" stroke-miterlimit="10" stroke-linecap="round" stroke-linejoin="round"/>
<path d="M541.844 302.805H534.457" stroke="#444E59" stroke-width="3" stroke-miterlimit="10" stroke-linecap="round" stroke-linejoin="round"/>
<path d="M546.276 266.742H534.457" stroke="#444E59" stroke-width="3" stroke-miterlimit="10" stroke-linecap="round" stroke-linejoin="round"/>
<path d="M541.844 278.758H534.457" stroke="#444E59" stroke-width="3" stroke-miterlimit="10" stroke-linecap="round" stroke-linejoin="round"/>
<path d="M546.276 242.695H534.457" stroke="#444E59" stroke-width="3" stroke-miterlimit="10" stroke-linecap="round" stroke-linejoin="round"/>
<path d="M541.844 254.719H534.457" stroke="#444E59" stroke-width="3" stroke-miterlimit="10" stroke-linecap="round" stroke-linejoin="round"/>
<path d="M546.276 218.656H534.457" stroke="#444E59" stroke-width="3" stroke-miterlimit="10" stroke-linecap="round" stroke-linejoin="round"/>
<path d="M541.844 230.68H534.457" stroke="#444E59" stroke-width="3" stroke-miterlimit="10" stroke-linecap="round" stroke-linejoin="round"/>
<path d="M546.276 194.617H534.457" stroke="#444E59" stroke-width="3" stroke-miterlimit="10" stroke-linecap="round" stroke-linejoin="round"/>
<path d="M541.844 206.641H534.457" stroke="#444E59" stroke-width="3" stroke-miterlimit="10" stroke-linecap="round" stroke-linejoin="round"/>
<path d="M546.276 170.578H534.457" stroke="#444E59" stroke-width="3" stroke-miterlimit="10" stroke-linecap="round" stroke-linejoin="round"/>
<path d="M541.844 182.594H534.457" stroke="#444E59" stroke-width="3" stroke-miterlimit="10" stroke-linecap="round" stroke-linejoin="round"/>
<path d="M546.276 146.531H534.457" stroke="#444E59" stroke-width="3" stroke-miterlimit="10" stroke-linecap="round" stroke-linejoin="round"/>
<path d="M541.844 158.555H534.457" stroke="#444E59" stroke-width="3" stroke-miterlimit="10" stroke-linecap="round" stroke-linejoin="round"/>
<path d="M546.276 122.492H534.457" stroke="#444E59" stroke-width="3" stroke-miterlimit="10" stroke-linecap="round" stroke-linejoin="round"/>
<path d="M541.844 134.516H534.457" stroke="#444E59" stroke-width="3" stroke-miterlimit="10" stroke-linecap="round" stroke-linejoin="round"/>
<path d="M546.276 98.4531H534.457" stroke="#444E59" stroke-width="3" stroke-miterlimit="10" stroke-linecap="round" stroke-linejoin="round"/>
<path d="M541.844 110.469H534.457" stroke="#444E59" stroke-width="3" stroke-miterlimit="10" stroke-linecap="round" stroke-linejoin="round"/>
<path d="M546.276 74.4062H534.457" stroke="#444E59" stroke-width="3" stroke-miterlimit="10" stroke-linecap="round" stroke-linejoin="round"/>
<path d="M541.844 86.4297H534.457" stroke="#444E59" stroke-width="3" stroke-miterlimit="10" stroke-linecap="round" stroke-linejoin="round"/>
<path d="M484.944 124.961H471.651V160.605H484.944V124.961Z" fill="#848484"/>
<path opacity="0.25" d="M476.561 124.961H471.651V160.605H476.561V124.961Z" fill="#848484"/>
<path d="M484.944 124.961H471.651V160.605H484.944V124.961Z" stroke="#444E59" stroke-width="4" stroke-miterlimit="10" stroke-linecap="round" stroke-linejoin="round"/>
<path d="M481.32 160.602H475.277V177.809H481.32V160.602Z" fill="white"/>
<path d="M481.32 160.602H475.277V177.809H481.32V160.602Z" stroke="#444E59" stroke-width="4" stroke-miterlimit="10" stroke-linecap="round" stroke-linejoin="round"/>
<path d="M468.084 193.266L437.276 316.206L484.089 194.875L468.084 193.266Z" fill="white"/>
<path d="M468.084 193.266L437.276 316.206L484.089 194.875L468.084 193.266Z" stroke="#444E59" stroke-width="4" stroke-miterlimit="10" stroke-linecap="round" stroke-linejoin="round"/>
<path d="M488.622 193.266L519.43 316.206L472.617 194.875L488.622 193.266Z" fill="white"/>
<path d="M488.622 193.266L519.43 316.206L472.617 194.875L488.622 193.266Z" stroke="#444E59" stroke-width="4" stroke-miterlimit="10" stroke-linecap="round" stroke-linejoin="round"/>
<path d="M478.358 217.328C489.704 217.328 498.902 207.973 498.902 196.433C498.902 184.894 489.704 175.539 478.358 175.539C467.012 175.539 457.815 184.894 457.815 196.433C457.815 207.973 467.012 217.328 478.358 217.328Z" fill="#71A850"/>
<path opacity="0.4" d="M463.545 196.433C463.545 185.885 471.237 177.187 481.223 175.766C480.284 175.632 479.333 175.539 478.357 175.539C467.012 175.539 457.814 184.894 457.814 196.433C457.814 207.973 467.012 217.328 478.357 217.328C479.332 217.328 480.284 217.235 481.223 217.101C471.238 215.68 463.545 206.981 463.545 196.433Z" fill="#71A850"/>
<path d="M478.358 217.328C489.704 217.328 498.902 207.973 498.902 196.433C498.902 184.894 489.704 175.539 478.358 175.539C467.012 175.539 457.815 184.894 457.815 196.433C457.815 207.973 467.012 217.328 478.358 217.328Z" stroke="#444E59" stroke-width="4" stroke-miterlimit="10" stroke-linecap="round" stroke-linejoin="round"/>
<path d="M478.358 203.509C482.202 203.509 485.318 200.34 485.318 196.43C485.318 192.521 482.202 189.352 478.358 189.352C474.515 189.352 471.399 192.521 471.399 196.43C471.399 200.34 474.515 203.509 478.358 203.509Z" fill="#444E59"/>
<path d="M478.358 203.509C482.202 203.509 485.318 200.34 485.318 196.43C485.318 192.521 482.202 189.352 478.358 189.352C474.515 189.352 471.399 192.521 471.399 196.43C471.399 200.34 474.515 203.509 478.358 203.509Z" stroke="#444E59" stroke-width="4" stroke-miterlimit="10" stroke-linecap="round" stroke-linejoin="round"/>
<path d="M404.175 315.945H268.594C260.653 315.945 254.215 309.397 254.215 301.32V17.1721C254.215 9.0948 260.653 2.54688 268.594 2.54688H404.175C412.117 2.54688 418.555 9.0948 418.555 17.1721V301.32C418.555 309.397 412.117 315.945 404.175 315.945Z" fill="#848484"/>
<path opacity="0.28" d="M404.175 2.54688H395.49C403.432 2.54688 409.87 9.0948 409.87 17.1721V301.32C409.87 309.397 403.432 315.945 395.49 315.945H404.175C412.117 315.945 418.555 309.397 418.555 301.32V17.1721C418.555 9.0948 412.117 2.54688 404.175 2.54688Z" fill="#848484"/>
<path opacity="0.48" d="M262.774 301.32V17.1721C262.774 9.0948 269.212 2.54688 277.153 2.54688H268.594C260.653 2.54688 254.215 9.0948 254.215 17.1721V301.32C254.215 309.397 260.653 315.945 268.594 315.945H277.153C269.212 315.945 262.774 309.397 262.774 301.32Z" fill="#848484"/>
<path d="M404.175 315.945H268.594C260.653 315.945 254.215 309.397 254.215 301.32V17.1721C254.215 9.0948 260.653 2.54688 268.594 2.54688H404.175C412.117 2.54688 418.555 9.0948 418.555 17.1721V301.32C418.555 309.397 412.117 315.945 404.175 315.945Z" stroke="#444E59" stroke-width="4" stroke-miterlimit="10" stroke-linecap="round" stroke-linejoin="round"/>
<path d="M418.555 275.762V41.7578L254.215 41.7578V275.762H418.555Z" fill="#E9FBFF"/>
<path d="M417.708 117.134H404.889C397.918 117.134 392.267 111.386 392.267 104.296V72.4316C392.267 65.3415 397.918 59.5938 404.889 59.5938H417.708V117.134ZM263.613 246.323H254.215V144.706H263.613C270.688 144.706 276.423 150.54 276.423 157.735V233.295C276.423 240.49 270.688 246.323 263.613 246.323Z" fill="#C9C9C9"/>
<path d="M418.555 275.762V41.7578L254.215 41.7578V275.762H418.555Z" stroke="#444E59" stroke-width="4" stroke-miterlimit="10" stroke-linecap="round" stroke-linejoin="round"/>
<path d="M358.981 23.4766H366.171" stroke="#444E59" stroke-width="5" stroke-miterlimit="10" stroke-linecap="round" stroke-linejoin="round"/>
<path d="M306.598 23.4766H347.683" stroke="#444E59" stroke-width="5" stroke-miterlimit="10" stroke-linecap="round" stroke-linejoin="round"/>
<path opacity="0.29" d="M336.385 304.845C342.598 304.845 347.635 299.722 347.635 293.403C347.635 287.084 342.598 281.961 336.385 281.961C330.171 281.961 325.135 287.084 325.135 293.403C325.135 299.722 330.171 304.845 336.385 304.845Z" fill="#848484"/>
<path d="M336.385 302.179C341.151 302.179 345.015 298.25 345.015 293.402C345.015 288.555 341.151 284.625 336.385 284.625C331.619 284.625 327.755 288.555 327.755 293.402C327.755 298.25 331.619 302.179 336.385 302.179Z" fill="#444E59"/>
<g opacity="0.3">
<path opacity="0.3" d="M298.833 247.752H282.399C277.861 247.752 274.182 244.01 274.182 239.395V222.681C274.182 218.065 277.861 214.323 282.399 214.323H298.833C303.371 214.323 307.05 218.065 307.05 222.681V239.395C307.05 244.011 303.371 247.752 298.833 247.752ZM389.795 247.752H373.361C368.823 247.752 365.144 244.01 365.144 239.395V222.681C365.144 218.065 368.823 214.323 373.361 214.323H389.795C394.333 214.323 398.012 218.065 398.012 222.681V239.395C398.012 244.011 394.333 247.752 389.795 247.752ZM344.602 247.752H328.168C323.63 247.752 319.951 244.01 319.951 239.395V222.681C319.951 218.065 323.63 214.323 328.168 214.323H344.602C349.14 214.323 352.819 218.065 352.819 222.681V239.395C352.819 244.011 349.14 247.752 344.602 247.752ZM298.833 197.609H282.399C277.861 197.609 274.182 193.867 274.182 189.252V172.537C274.182 167.922 277.861 164.18 282.399 164.18H298.833C303.371 164.18 307.05 167.922 307.05 172.537V189.252C307.05 193.868 303.371 197.609 298.833 197.609ZM389.795 197.609H373.361C368.823 197.609 365.144 193.867 365.144 189.252V172.537C365.144 167.922 368.823 164.18 373.361 164.18H389.795C394.333 164.18 398.012 167.922 398.012 172.537V189.252C398.012 193.868 394.333 197.609 389.795 197.609ZM344.602 197.609H328.168C323.63 197.609 319.951 193.867 319.951 189.252V172.537C319.951 167.922 323.63 164.18 328.168 164.18H344.602C349.14 164.18 352.819 167.922 352.819 172.537V189.252C352.819 193.868 349.14 197.609 344.602 197.609Z" stroke="#444E59" stroke-width="2" stroke-linecap="round" stroke-linejoin="round" stroke-dasharray="4.08 4.08"/>
<g opacity="0.3">
<path opacity="0.3" d="M298.833 147.46H282.399C277.861 147.46 274.182 143.718 274.182 139.103V122.389C274.182 117.773 277.861 114.031 282.399 114.031H298.833C303.371 114.031 307.05 117.773 307.05 122.389V139.103C307.05 143.719 303.371 147.46 298.833 147.46ZM389.795 147.46H373.361C368.823 147.46 365.144 143.718 365.144 139.103V122.389C365.144 117.773 368.823 114.031 373.361 114.031H389.795C394.333 114.031 398.012 117.773 398.012 122.389V139.103C398.012 143.719 394.333 147.46 389.795 147.46ZM344.602 147.46H328.168C323.63 147.46 319.951 143.718 319.951 139.103V122.389C319.951 117.773 323.63 114.031 328.168 114.031H344.602C349.14 114.031 352.819 117.773 352.819 122.389V139.103C352.819 143.719 349.14 147.46 344.602 147.46Z" stroke="#444E59" stroke-width="2" stroke-linecap="round" stroke-linejoin="round" stroke-dasharray="4.08 4.08"/>
</g>
<g opacity="0.3">
<path opacity="0.3" d="M298.833 97.3197H282.399C277.861 97.3197 274.182 93.5778 274.182 88.9625V72.2479C274.182 67.6326 277.861 63.8906 282.399 63.8906H298.833C303.371 63.8906 307.05 67.6326 307.05 72.2479V88.9625C307.05 93.5788 303.371 97.3197 298.833 97.3197ZM389.795 97.3197H373.361C368.823 97.3197 365.144 93.5778 365.144 88.9625V72.2479C365.144 67.6326 368.823 63.8906 373.361 63.8906H389.795C394.333 63.8906 398.012 67.6326 398.012 72.2479V88.9625C398.012 93.5788 394.333 97.3197 389.795 97.3197ZM344.602 97.3197H328.168C323.63 97.3197 319.951 93.5778 319.951 88.9625V72.2479C319.951 67.6326 323.63 63.8906 328.168 63.8906H344.602C349.14 63.8906 352.819 67.6326 352.819 72.2479V88.9625C352.819 93.5788 349.14 97.3197 344.602 97.3197Z" stroke="#444E59" stroke-width="2" stroke-linecap="round" stroke-linejoin="round" stroke-dasharray="4.08 4.08"/>
</g>
</g>
<path d="M298.833 247.749H282.399C277.861 247.749 274.182 244.007 274.182 239.392V222.678C274.182 218.062 277.861 214.32 282.399 214.32H298.833C303.371 214.32 307.05 218.062 307.05 222.678V239.392C307.05 244.008 303.371 247.749 298.833 247.749Z" fill="#71A850"/>
<path opacity="0.52" d="M298.828 214.32H282.394C279.103 214.32 276.271 216.294 274.96 219.135L307.045 225.011V222.677C307.045 218.062 303.367 214.32 298.828 214.32Z" fill="#5F8C42"/>
<path d="M298.833 247.749H282.399C277.861 247.749 274.182 244.007 274.182 239.392V222.678C274.182 218.062 277.861 214.32 282.399 214.32H298.833C303.371 214.32 307.05 218.062 307.05 222.678V239.392C307.05 244.008 303.371 247.749 298.833 247.749Z" stroke="#444E59" stroke-width="4" stroke-miterlimit="10" stroke-linecap="round" stroke-linejoin="round"/>
<path d="M344.602 247.749H328.168C323.63 247.749 319.951 244.007 319.951 239.392V222.678C319.951 218.062 323.63 214.32 328.168 214.32H344.602C349.14 214.32 352.819 218.062 352.819 222.678V239.392C352.819 244.008 349.14 247.749 344.602 247.749Z" fill="#F09F54"/>
<path opacity="0.52" d="M344.602 214.32H328.168C324.877 214.32 322.045 216.294 320.733 219.135L352.819 225.011V222.677C352.819 218.062 349.14 214.32 344.602 214.32Z" fill="#D38444"/>
<path d="M344.602 247.749H328.168C323.63 247.749 319.951 244.007 319.951 239.392V222.678C319.951 218.062 323.63 214.32 328.168 214.32H344.602C349.14 214.32 352.819 218.062 352.819 222.678V239.392C352.819 244.008 349.14 247.749 344.602 247.749Z" stroke="#444E59" stroke-width="4" stroke-miterlimit="10" stroke-linecap="round" stroke-linejoin="round"/>
<path d="M389.795 197.609H373.361C368.823 197.609 365.144 193.867 365.144 189.252V172.537C365.144 167.922 368.823 164.18 373.361 164.18H389.795C394.333 164.18 398.012 167.922 398.012 172.537V189.252C398.012 193.868 394.333 197.609 389.795 197.609Z" fill="#2FA9ED"/>
<path opacity="0.52" d="M389.795 164.18H373.361C370.07 164.18 367.239 166.153 365.927 168.995L398.012 174.871V172.536C398.012 167.922 394.333 164.18 389.795 164.18Z" fill="#288FBC"/>
<path d="M389.795 197.609H373.361C368.823 197.609 365.144 193.867 365.144 189.252V172.537C365.144 167.922 368.823 164.18 373.361 164.18H389.795C394.333 164.18 398.012 167.922 398.012 172.537V189.252C398.012 193.868 394.333 197.609 389.795 197.609Z" stroke="#444E59" stroke-width="4" stroke-miterlimit="10" stroke-linecap="round" stroke-linejoin="round"/>
<path d="M344.602 147.46H328.168C323.63 147.46 319.951 143.718 319.951 139.103V122.389C319.951 117.773 323.63 114.031 328.168 114.031H344.602C349.14 114.031 352.819 117.773 352.819 122.389V139.103C352.819 143.719 349.14 147.46 344.602 147.46Z" fill="#E7534E"/>
<path opacity="0.52" d="M344.602 114.031H328.168C324.877 114.031 322.045 116.005 320.733 118.846L352.819 124.722V122.388C352.819 117.773 349.14 114.031 344.602 114.031Z" fill="#BF4040"/>
<path d="M344.602 147.46H328.168C323.63 147.46 319.951 143.718 319.951 139.103V122.389C319.951 117.773 323.63 114.031 328.168 114.031H344.602C349.14 114.031 352.819 117.773 352.819 122.389V139.103C352.819 143.719 349.14 147.46 344.602 147.46Z" stroke="#444E59" stroke-width="4" stroke-miterlimit="10" stroke-linecap="round" stroke-linejoin="round"/>
<path d="M378.903 173.554L388.346 179.099C389.705 179.898 389.705 181.892 388.346 182.689L378.903 188.234C377.544 189.032 375.846 188.034 375.846 186.439V175.349C375.846 173.754 377.544 172.756 378.903 173.554ZM340.713 224.553H332.055C330.217 224.553 328.725 226.068 328.725 227.939V234.402C328.725 236.272 330.216 237.788 332.055 237.788H332.318L331.601 240.711C331.549 240.924 331.786 241.09 331.963 240.962L336.341 237.789H340.713C342.552 237.789 344.043 236.274 344.043 234.403V227.94C344.043 226.068 342.552 224.553 340.713 224.553Z" fill="white"/>
<path d="M284.332 231.016L288.106 234.854C288.622 235.38 289.46 235.38 289.978 234.854L298.461 226.227" stroke="white" stroke-width="4" stroke-miterlimit="10" stroke-linecap="round" stroke-linejoin="round"/>
<path d="M336.385 138.539C340.614 138.539 344.043 135.052 344.043 130.75C344.043 126.448 340.614 122.961 336.385 122.961C332.155 122.961 328.727 126.448 328.727 130.75C328.727 135.052 332.155 138.539 336.385 138.539Z" stroke="white" stroke-width="4" stroke-miterlimit="10" stroke-linecap="round" stroke-linejoin="round"/>
<path d="M274.363 90.0448L274.2 74.4136L263.91 74.5243C263.329 72.576 262.549 70.7175 261.586 68.9771L268.784 61.5005L257.801 50.564L250.603 58.0406C248.872 57.0983 247.029 56.3441 245.102 55.7946L244.993 45.3281L229.624 45.4932L229.733 55.9607C227.817 56.552 225.99 57.3448 224.279 58.3237L216.927 51.0027L206.174 62.1733L213.525 69.4942C212.599 71.2545 211.857 73.1297 211.317 75.0895L201.026 75.2002L201.188 90.8314L211.48 90.7207C212.06 92.669 212.841 94.5274 213.803 96.2678L206.605 103.744L217.587 114.681L224.785 107.204C226.517 108.147 228.36 108.901 230.288 109.45L230.397 119.918L245.766 119.753L245.657 109.286C247.572 108.696 249.399 107.902 251.111 106.923L258.462 114.244L269.215 103.072L261.864 95.7507C262.79 93.9905 263.532 92.1153 264.072 90.1555L274.363 90.0448ZM237.821 94.8231C231.196 94.8941 225.767 89.489 225.697 82.751C225.628 76.0129 230.942 70.4919 237.567 70.4208C244.192 70.3498 249.62 75.7549 249.69 82.4929C249.761 89.232 244.447 94.752 237.821 94.8231Z" fill="white"/>
<path d="M274.363 90.0448L274.2 74.4136L263.91 74.5243C263.329 72.576 262.549 70.7175 261.586 68.9771L268.784 61.5005L257.801 50.564L250.603 58.0406C248.872 57.0983 247.029 56.3441 245.102 55.7946L244.993 45.3281L229.624 45.4932L229.733 55.9607C227.817 56.552 225.99 57.3448 224.279 58.3237L216.927 51.0027L206.174 62.1733L213.525 69.4942C212.599 71.2545 211.857 73.1297 211.317 75.0895L201.026 75.2002L201.188 90.8314L211.48 90.7207C212.06 92.669 212.841 94.5274 213.803 96.2678L206.605 103.744L217.587 114.681L224.785 107.204C226.517 108.147 228.36 108.901 230.288 109.45L230.397 119.918L245.766 119.753L245.657 109.286C247.572 108.696 249.399 107.902 251.111 106.923L258.462 114.244L269.215 103.072L261.864 95.7507C262.79 93.9905 263.532 92.1153 264.072 90.1555L274.363 90.0448ZM237.821 94.8231C231.196 94.8941 225.767 89.489 225.697 82.751C225.628 76.0129 230.942 70.4919 237.567 70.4208C244.192 70.3498 249.62 75.7549 249.69 82.4929C249.761 89.232 244.447 94.752 237.821 94.8231Z" fill="#F09F54"/>
<path d="M274.363 90.0448L274.2 74.4136L263.91 74.5243C263.329 72.576 262.549 70.7175 261.586 68.9771L268.784 61.5005L257.801 50.564L250.603 58.0406C248.872 57.0983 247.029 56.3441 245.102 55.7946L244.993 45.3281L229.624 45.4932L229.733 55.9607C227.817 56.552 225.99 57.3448 224.279 58.3237L216.927 51.0027L206.174 62.1733L213.525 69.4942C212.599 71.2545 211.857 73.1297 211.317 75.0895L201.026 75.2002L201.188 90.8314L211.48 90.7207C212.06 92.669 212.841 94.5274 213.803 96.2678L206.605 103.744L217.587 114.681L224.785 107.204C226.517 108.147 228.36 108.901 230.288 109.45L230.397 119.918L245.766 119.753L245.657 109.286C247.572 108.696 249.399 107.902 251.111 106.923L258.462 114.244L269.215 103.072L261.864 95.7507C262.79 93.9905 263.532 92.1153 264.072 90.1555L274.363 90.0448ZM237.821 94.8231C231.196 94.8941 225.767 89.489 225.697 82.751C225.628 76.0129 230.942 70.4919 237.567 70.4208C244.192 70.3498 249.62 75.7549 249.69 82.4929C249.761 89.232 244.447 94.752 237.821 94.8231Z" fill="#F09F54"/>
<g opacity="0.29">
<path opacity="0.29" d="M270.383 74.4553C270.39 74.4783 270.398 74.5013 270.405 74.5243L274.202 74.4835L274.2 74.4135L270.383 74.4553ZM257.099 58.0416L261.117 53.8672L257.8 50.564L252.493 56.0777C254.095 56.5948 255.639 57.2467 257.099 58.0416ZM244.064 70.4219C242.984 70.4334 241.946 70.6026 240.953 70.8857C245.946 72.3179 249.633 76.951 249.69 82.495C249.749 88.1362 246.028 92.9103 240.93 94.3613C242.006 94.6705 243.141 94.8377 244.316 94.8251C250.942 94.7541 256.256 89.2341 256.186 82.495C256.116 75.7559 250.69 70.3508 244.064 70.4219ZM228.739 56.297L230.775 58.3237C232.486 57.3438 234.313 56.5509 236.229 55.9607L236.12 45.4932L244.993 45.3981L244.992 45.3281L229.623 45.4932L229.732 55.9607C229.397 56.0641 229.069 56.1811 228.739 56.297ZM236.783 109.449C234.856 108.9 233.013 108.146 231.281 107.203L229.391 109.167C229.689 109.263 229.985 109.364 230.287 109.449L230.396 119.917L236.891 119.847L236.783 109.449ZM207.522 75.2002L217.813 75.0894C218.354 73.1297 219.094 71.2545 220.022 69.4942L212.67 62.1733L220.243 54.3059L216.927 51.0027L206.174 62.1733L213.525 69.4942C212.599 71.2545 211.857 73.1297 211.317 75.0894L201.026 75.2002L201.188 90.8314L207.684 90.7614L207.522 75.2002ZM257.606 106.921C256.194 107.73 254.699 108.403 253.145 108.948L258.462 114.242L261.642 110.939L257.606 106.921ZM213.102 103.744L220.3 96.2678C219.336 94.5274 218.557 92.6689 217.977 90.7207L211.504 90.7896C212.082 92.7118 212.853 94.5473 213.804 96.2668L206.606 103.743L217.588 114.68L220.768 111.377L213.102 103.744Z" fill="#F09F54"/>
</g>
<path d="M274.363 90.0448L274.2 74.4136L263.91 74.5243C263.329 72.576 262.549 70.7175 261.586 68.9771L268.784 61.5005L257.801 50.564L250.603 58.0406C248.872 57.0983 247.029 56.3441 245.102 55.7946L244.993 45.3281L229.624 45.4932L229.733 55.9607C227.817 56.552 225.99 57.3448 224.279 58.3237L216.927 51.0027L206.174 62.1733L213.525 69.4942C212.599 71.2545 211.857 73.1297 211.317 75.0895L201.026 75.2002L201.188 90.8314L211.48 90.7207C212.06 92.669 212.841 94.5274 213.803 96.2678L206.605 103.744L217.587 114.681L224.785 107.204C226.517 108.147 228.36 108.901 230.288 109.45L230.397 119.918L245.766 119.753L245.657 109.286C247.572 108.696 249.399 107.902 251.111 106.923L258.462 114.244L269.215 103.072L261.864 95.7507C262.79 93.9905 263.532 92.1153 264.072 90.1555L274.363 90.0448ZM237.821 94.8231C231.196 94.8941 225.767 89.489 225.697 82.751C225.628 76.0129 230.942 70.4919 237.567 70.4208C244.192 70.3498 249.62 75.7549 249.69 82.4929C249.761 89.232 244.447 94.752 237.821 94.8231Z" stroke="#444E59" stroke-width="4" stroke-miterlimit="10" stroke-linecap="round" stroke-linejoin="round"/>
<path d="M210.166 315.943H83.0532C78.8789 315.943 75.4946 312.501 75.4946 308.255V219.836C75.4946 215.591 78.8789 212.148 83.0532 212.148H210.167C214.342 212.148 217.726 215.591 217.726 219.836V308.255C217.726 312.501 214.342 315.943 210.166 315.943Z" fill="#444E59"/>
<path d="M217.726 228.946H75.4946V219.836C75.4946 215.591 78.8789 212.148 83.0532 212.148H210.166C214.342 212.148 217.726 215.591 217.726 219.837V228.946Z" fill="#BCBCBC"/>
<path d="M210.166 315.943H83.0532C78.8789 315.943 75.4946 312.501 75.4946 308.255V219.836C75.4946 215.591 78.8789 212.148 83.0532 212.148H210.167C214.342 212.148 217.726 215.591 217.726 219.836V308.255C217.726 312.501 214.342 315.943 210.166 315.943Z" stroke="#444E59" stroke-width="4" stroke-miterlimit="10" stroke-linecap="round" stroke-linejoin="round"/>
<path d="M210.166 315.943H83.0532C78.8789 315.943 75.4946 312.501 75.4946 308.255V219.836C75.4946 215.591 78.8789 212.148 83.0532 212.148H210.167C214.342 212.148 217.726 215.591 217.726 219.836V308.255C217.726 312.501 214.342 315.943 210.166 315.943Z" stroke="#444E59" stroke-width="4" stroke-miterlimit="10" stroke-linecap="round" stroke-linejoin="round"/>
<path d="M217.726 228.946H75.4946V219.836C75.4946 215.591 78.8789 212.148 83.0532 212.148H210.166C214.342 212.148 217.726 215.591 217.726 219.837V228.946Z" stroke="#444E59" stroke-width="4" stroke-miterlimit="10" stroke-linecap="round" stroke-linejoin="round"/>
<path d="M95.1373 302.703H111.14" stroke="white" stroke-width="4" stroke-miterlimit="10" stroke-linecap="round" stroke-linejoin="round"/>
<path d="M83.8051 302.703H84.9215" stroke="white" stroke-width="4" stroke-miterlimit="10" stroke-linecap="round" stroke-linejoin="round"/>
<path d="M95.1373 293.695H135.692" stroke="white" stroke-width="4" stroke-miterlimit="10" stroke-linecap="round" stroke-linejoin="round"/>
<path d="M83.8051 293.695H84.9215" stroke="white" stroke-width="4" stroke-miterlimit="10" stroke-linecap="round" stroke-linejoin="round"/>
<path d="M155.005 284.68H166.04" stroke="#64BDFF" stroke-width="4" stroke-miterlimit="10" stroke-linecap="round" stroke-linejoin="round"/>
<path d="M124.795 284.68H145.349" stroke="white" stroke-width="4" stroke-miterlimit="10" stroke-linecap="round" stroke-linejoin="round"/>
<path d="M95.1373 284.68H115.415" stroke="#FF5F5F" stroke-width="4" stroke-miterlimit="10" stroke-linecap="round" stroke-linejoin="round"/>
<path d="M83.8051 284.68H84.9215" stroke="white" stroke-width="4" stroke-miterlimit="10" stroke-linecap="round" stroke-linejoin="round"/>
<path d="M129.347 275.672H178.816" stroke="white" stroke-width="4" stroke-miterlimit="10" stroke-linecap="round" stroke-linejoin="round"/>
<path d="M95.1373 275.672H120.933" stroke="#64BDFF" stroke-width="4" stroke-miterlimit="10" stroke-linecap="round" stroke-linejoin="round"/>
<path d="M83.8051 275.672H84.9215" stroke="white" stroke-width="4" stroke-miterlimit="10" stroke-linecap="round" stroke-linejoin="round"/>
<path d="M129.347 266.664H147.831" stroke="#FF5F5F" stroke-width="4" stroke-miterlimit="10" stroke-linecap="round" stroke-linejoin="round"/>
<path d="M95.1373 266.664H120.933" stroke="#FFBE78" stroke-width="4" stroke-miterlimit="10" stroke-linecap="round" stroke-linejoin="round"/>
<path d="M83.8051 266.664H84.9215" stroke="white" stroke-width="4" stroke-miterlimit="10" stroke-linecap="round" stroke-linejoin="round"/>
<path d="M132.934 257.656H137.9" stroke="#64BDFF" stroke-width="4" stroke-miterlimit="10" stroke-linecap="round" stroke-linejoin="round"/>
<path d="M113.346 257.656H124.796" stroke="#FF5F5F" stroke-width="4" stroke-miterlimit="10" stroke-linecap="round" stroke-linejoin="round"/>
<path d="M95.1373 257.656H104.517" stroke="#C383F2" stroke-width="4" stroke-miterlimit="10" stroke-linecap="round" stroke-linejoin="round"/>
<path d="M83.8051 257.656H84.9215" stroke="white" stroke-width="4" stroke-miterlimit="10" stroke-linecap="round" stroke-linejoin="round"/>
<path d="M169.903 248.641H178.816" stroke="#64BDFF" stroke-width="4" stroke-miterlimit="10" stroke-linecap="round" stroke-linejoin="round"/>
<path d="M123.554 248.641H158.592" stroke="#FF5F5F" stroke-width="4" stroke-miterlimit="10" stroke-linecap="round" stroke-linejoin="round"/>
<path d="M95.1373 248.641H115.967" stroke="#FFBE78" stroke-width="4" stroke-miterlimit="10" stroke-linecap="round" stroke-linejoin="round"/>
<path d="M83.8051 248.641H84.9215" stroke="white" stroke-width="4" stroke-miterlimit="10" stroke-linecap="round" stroke-linejoin="round"/>
<path d="M147.831 239.633H166.04" stroke="#FFBE78" stroke-width="4" stroke-miterlimit="10" stroke-linecap="round" stroke-linejoin="round"/>
<path d="M124.796 239.633H139.004" stroke="#6DBF7B" stroke-width="4" stroke-miterlimit="10" stroke-linecap="round" stroke-linejoin="round"/>
<path d="M109.346 239.633H117.347" stroke="#FFBE78" stroke-width="4" stroke-miterlimit="10" stroke-linecap="round" stroke-linejoin="round"/>
<path d="M95.1373 239.633H101.621" stroke="#6DBF7B" stroke-width="4" stroke-miterlimit="10" stroke-linecap="round" stroke-linejoin="round"/>
<path d="M83.8051 239.633H84.9215" stroke="white" stroke-width="4" stroke-miterlimit="10" stroke-linecap="round" stroke-linejoin="round"/>
<path d="M89.5169 223.193C90.9544 223.193 92.1197 222.008 92.1197 220.546C92.1197 219.084 90.9544 217.898 89.5169 217.898C88.0795 217.898 86.9142 219.084 86.9142 220.546C86.9142 222.008 88.0795 223.193 89.5169 223.193Z" fill="#E7534E"/>
<path d="M98.836 223.193C100.273 223.193 101.439 222.008 101.439 220.546C101.439 219.084 100.273 217.898 98.836 217.898C97.3986 217.898 96.2333 219.084 96.2333 220.546C96.2333 222.008 97.3986 223.193 98.836 223.193Z" fill="#444E59"/>
<path d="M108.155 223.193C109.593 223.193 110.758 222.008 110.758 220.546C110.758 219.084 109.593 217.898 108.155 217.898C106.718 217.898 105.552 219.084 105.552 220.546C105.552 222.008 106.718 223.193 108.155 223.193Z" fill="#444E59"/>
<path d="M260.757 238.156H168.74C164.202 238.156 160.523 234.414 160.523 229.799V145.334C160.523 140.719 164.202 136.977 168.74 136.977H260.757C265.295 136.977 268.974 140.719 268.974 145.334V229.798C268.974 234.414 265.295 238.156 260.757 238.156Z" fill="white"/>
<path d="M260.757 238.156H168.74C164.202 238.156 160.523 234.414 160.523 229.799V145.334C160.523 140.719 164.202 136.977 168.74 136.977H260.757C265.295 136.977 268.974 140.719 268.974 145.334V229.798C268.974 234.414 265.295 238.156 260.757 238.156Z" fill="white"/>
<path d="M260.757 238.156H168.74C164.202 238.156 160.523 234.414 160.523 229.799V145.334C160.523 140.719 164.202 136.977 168.74 136.977H260.757C265.295 136.977 268.974 140.719 268.974 145.334V229.798C268.974 234.414 265.295 238.156 260.757 238.156Z" stroke="#444E59" stroke-width="4" stroke-miterlimit="10" stroke-linecap="round" stroke-linejoin="round"/>
<path d="M259.007 145.523H169.903V205.766H259.007V145.523Z" fill="#9483C4"/>
<path d="M259.007 145.523H169.903V205.766H259.007V145.523Z" stroke="#444E59" stroke-width="4" stroke-miterlimit="10" stroke-linecap="round" stroke-linejoin="round"/>
<path d="M169.903 215.367H226.139" stroke="#444E59" stroke-width="4" stroke-miterlimit="10" stroke-linecap="round" stroke-linejoin="round"/>
<path d="M169.903 225.016H203.2" stroke="#444E59" stroke-width="4" stroke-miterlimit="10" stroke-linecap="round" stroke-linejoin="round"/>
<path d="M178.816 194.975L198.022 175.648L215.885 193.818" stroke="#444E59" stroke-width="4" stroke-miterlimit="10" stroke-linecap="round" stroke-linejoin="round"/>
<path d="M249.421 194.975L226.139 164.18L207.522 185.312" stroke="#444E59" stroke-width="4" stroke-miterlimit="10" stroke-linecap="round" stroke-linejoin="round"/>
<path d="M249.173 224.877C251.957 224.877 254.214 222.582 254.214 219.751C254.214 216.92 251.957 214.625 249.173 214.625C246.39 214.625 244.133 216.92 244.133 219.751C244.133 222.582 246.39 224.877 249.173 224.877Z" stroke="#444E59" stroke-width="4" stroke-miterlimit="10" stroke-linecap="round" stroke-linejoin="round"/>
<path d="M203.674 170.643C207.166 170.643 209.997 167.764 209.997 164.212C209.997 160.66 207.166 157.781 203.674 157.781C200.182 157.781 197.351 160.66 197.351 164.212C197.351 167.764 200.182 170.643 203.674 170.643Z" fill="#F09F54"/>
<path d="M203.674 170.643C207.166 170.643 209.997 167.764 209.997 164.212C209.997 160.66 207.166 157.781 203.674 157.781C200.182 157.781 197.351 160.66 197.351 164.212C197.351 167.764 200.182 170.643 203.674 170.643Z" stroke="#444E59" stroke-width="4" stroke-miterlimit="10" stroke-linecap="round" stroke-linejoin="round"/>
<path d="M158.792 107.164H186.295" stroke="#444E59" stroke-width="4" stroke-miterlimit="10" stroke-linecap="round" stroke-linejoin="round"/>
<path d="M144.118 107.164H151.384" stroke="#444E59" stroke-width="4" stroke-miterlimit="10" stroke-linecap="round" stroke-linejoin="round"/>
<path d="M172.544 94.1875H186.295" stroke="#444E59" stroke-width="4" stroke-miterlimit="10" stroke-linecap="round" stroke-linejoin="round"/>
<path d="M161.473 94.1875H165.581" stroke="#444E59" stroke-width="4" stroke-miterlimit="10" stroke-linecap="round" stroke-linejoin="round"/>
<path d="M129.004 189.086H150.436" stroke="#444E59" stroke-width="4" stroke-miterlimit="10" stroke-linecap="round" stroke-linejoin="round"/>
<path d="M117.571 189.086H123.232" stroke="#444E59" stroke-width="4" stroke-miterlimit="10" stroke-linecap="round" stroke-linejoin="round"/>
<path d="M141.695 176.102H150.436" stroke="#444E59" stroke-width="4" stroke-miterlimit="10" stroke-linecap="round" stroke-linejoin="round"/>
<path d="M131.094 176.102H134.294" stroke="#444E59" stroke-width="4" stroke-miterlimit="10" stroke-linecap="round" stroke-linejoin="round"/>
<path d="M471.305 37.5H491.709" stroke="#444E59" stroke-width="4" stroke-miterlimit="10" stroke-linecap="round" stroke-linejoin="round"/>
<path d="M458.844 37.5H464.506" stroke="#444E59" stroke-width="4" stroke-miterlimit="10" stroke-linecap="round" stroke-linejoin="round"/>
<path d="M482.968 24.5234H491.709" stroke="#444E59" stroke-width="4" stroke-miterlimit="10" stroke-linecap="round" stroke-linejoin="round"/>
<path d="M472.367 24.5234H475.569" stroke="#444E59" stroke-width="4" stroke-miterlimit="10" stroke-linecap="round" stroke-linejoin="round"/>
<path d="M487.17 110.47H406.865C401.976 110.47 398.011 106.438 398.011 101.465V61.9346C398.011 56.9621 401.975 52.9297 406.865 52.9297H487.17C492.059 52.9297 496.024 56.961 496.024 61.9346V101.465C496.024 106.438 492.059 110.47 487.17 110.47Z" fill="#2FA9ED"/>
<path d="M487.17 110.47H406.865C401.976 110.47 398.011 106.438 398.011 101.465V61.9346C398.011 56.9621 401.975 52.9297 406.865 52.9297H487.17C492.059 52.9297 496.024 56.961 496.024 61.9346V101.465C496.024 106.438 492.059 110.47 487.17 110.47Z" stroke="#444E59" stroke-width="3" stroke-miterlimit="10" stroke-linecap="round" stroke-linejoin="round"/>
<path opacity="0.56" d="M447.018 68.3906H481.721" stroke="white" stroke-width="3" stroke-miterlimit="10" stroke-linecap="round" stroke-linejoin="round"/>
<path opacity="0.56" d="M447.018 79.7578H469.98" stroke="white" stroke-width="3" stroke-miterlimit="10" stroke-linecap="round" stroke-linejoin="round"/>
<g opacity="0.56">
<path opacity="0.56" d="M464.462 96.8095H450.442C448.551 96.8095 447.018 95.2499 447.018 93.3267C447.018 91.4034 448.551 89.8438 450.442 89.8438H464.462C466.353 89.8438 467.887 91.4034 467.887 93.3267C467.886 95.2499 466.353 96.8095 464.462 96.8095Z" fill="white"/>
<path opacity="0.56" d="M464.462 96.8095H450.442C448.551 96.8095 447.018 95.2499 447.018 93.3267C447.018 91.4034 448.551 89.8438 450.442 89.8438H464.462C466.353 89.8438 467.887 91.4034 467.887 93.3267C467.886 95.2499 466.353 96.8095 464.462 96.8095Z" stroke="white" stroke-width="3" stroke-miterlimit="10" stroke-linecap="round" stroke-linejoin="round"/>
</g>
<path d="M432.515 97.3232H414.122C411.492 97.3232 409.36 95.1555 409.36 92.4801V70.6321C409.36 67.9578 411.491 65.7891 414.122 65.7891H432.515C435.144 65.7891 437.276 67.9567 437.276 70.6321V92.4801C437.276 95.1555 435.144 97.3232 432.515 97.3232Z" stroke="white" stroke-width="3" stroke-miterlimit="10" stroke-linecap="round" stroke-linejoin="round"/>
<path d="M423.319 82.9923C426.036 82.9923 428.239 80.7519 428.239 77.9883C428.239 75.2247 426.036 72.9844 423.319 72.9844C420.601 72.9844 418.399 75.2247 418.399 77.9883C418.399 80.7519 420.601 82.9923 423.319 82.9923Z" stroke="white" stroke-width="3" stroke-miterlimit="10" stroke-linecap="round" stroke-linejoin="round"/>
<path d="M413.993 96.8126C413.993 91.5746 418.169 87.3281 423.319 87.3281C428.469 87.3281 432.644 91.5746 432.644 96.8126" stroke="white" stroke-width="3" stroke-miterlimit="10" stroke-linecap="round" stroke-linejoin="round"/>
</svg>
