<svg width="50" height="50" viewBox="0 0 50 50" fill="none" xmlns="http://www.w3.org/2000/svg">
<path fill-rule="evenodd" clip-rule="evenodd" d="M42.7119 7.2661C38.0121 2.583 31.7616 0.0026322 25.1025 0C11.3814 0 0.214219 11.1138 0.208728 24.7746C0.206897 29.1413 1.35324 33.4038 3.53156 37.161L0 50L13.1965 46.5547C16.8324 48.5285 20.9262 49.5687 25.0925 49.5704H25.1028C38.8224 49.5704 49.9906 38.4552 49.9962 24.7944C49.9988 18.1742 47.4119 11.9492 42.7119 7.2661ZM25.1028 45.3858H25.0943C21.3817 45.3844 17.7401 44.3917 14.5635 42.5154L13.8079 42.0691L5.97697 44.1137L8.06723 36.5145L7.5752 35.7355C5.50406 32.4567 4.41012 28.6671 4.41175 24.7761C4.41629 13.4219 13.6981 4.18453 25.111 4.18453C30.6373 4.18662 35.8323 6.33146 39.7388 10.2239C43.6452 14.1163 45.7953 19.2903 45.7932 24.7927C45.7885 36.1478 36.5068 45.3858 25.1028 45.3858ZM36.4519 29.9629C35.8299 29.653 32.7718 28.1553 32.2017 27.9487C31.6315 27.7421 31.2169 27.6388 30.8022 28.2586C30.3876 28.8783 29.1955 30.2728 28.8326 30.6859C28.4698 31.0991 28.107 31.1508 27.485 30.8409C26.863 30.531 24.8588 29.8773 22.483 27.7682C20.634 26.1268 19.3856 24.0993 19.0227 23.4796C18.6599 22.8598 18.9842 22.5247 19.2955 22.2161C19.5753 21.9387 19.9175 21.4931 20.2285 21.1315C20.5395 20.7701 20.6431 20.5118 20.8504 20.0987C21.0578 19.6855 20.9542 19.324 20.7987 19.0141C20.6431 18.7042 19.3993 15.6571 18.8809 14.4176C18.376 13.2104 17.8632 13.3738 17.4814 13.3549C17.119 13.3369 16.7039 13.3331 16.2893 13.3331C15.8746 13.3331 15.2008 13.488 14.6306 14.1077C14.0605 14.7275 12.4537 16.2252 12.4537 19.2723C12.4537 22.3194 14.6824 25.2632 14.9935 25.6763C15.3044 26.0895 19.3795 32.3426 25.619 35.0242C27.1031 35.662 28.2617 36.0428 29.165 36.3283C30.6551 36.7994 32.011 36.7329 33.0828 36.5735C34.2778 36.3958 36.7628 35.0759 37.2812 33.6298C37.7995 32.1837 37.7995 30.9442 37.644 30.686C37.4886 30.4277 37.0739 30.2728 36.4519 29.9629Z" fill="url(#paint0_linear_9_121)"/>
<defs>
<linearGradient id="paint0_linear_9_121" x1="24.9981" y1="0" x2="24.9981" y2="50" gradientUnits="userSpaceOnUse">
<stop stop-color="#780206"/>
<stop offset="1" stop-color="#061161" stop-opacity="0.78"/>
</linearGradient>
</defs>
</svg>
